<?xml version="1.0" encoding="UTF-8"?>
<svg width="24px" height="24px" viewBox="0 0 24 24" version="1.1" xmlns="http://www.w3.org/2000/svg" xmlns:xlink="http://www.w3.org/1999/xlink">
    <title>Icon / Programma Fedeltà</title>
    <defs>
        <path d="M15.4800224,3.83999996 C15.4800224,3.01157284 14.8084495,2.33999996 13.9800224,2.33999996 C13.1515953,2.33999996 12.4800224,3.01157284 12.4800224,3.83999996 C12.4784557,4.06542083 12.5298342,4.288061 12.6300224,4.48999996 C12.3400224,5.00999996 11.4500224,6.28999996 10.6300224,6.18999996 C10.2400224,6.18999996 9.49002238,5.69999996 8.75002238,3.35999996 C9.24867831,3.01417296 9.54727821,2.44683315 9.55002238,1.83999996 C9.55002236,0.823796037 8.7262263,0 7.71002238,0 C6.69381845,0 5.8700224,0.823796037 5.87002238,1.83999996 C5.87527526,2.42260334 6.16219422,2.96663149 6.64002238,3.29999996 C6.05002238,5.06999996 5.34002238,6.08999996 4.64002238,6.16999996 C3.94002238,6.24999996 3.07002238,5.28999996 2.69002238,4.71999996 C3.07356524,4.19889691 3.07695858,3.48981969 2.69842072,2.96506965 C2.31988285,2.44031961 1.64594326,2.21984867 1.03045425,2.4194152 C0.414965241,2.61898172 -0.00137936304,3.19296708 1.11376519e-05,3.83999996 C-0.00243634676,4.47779693 0.398695489,5.04740413 1.00002238,5.25999996 L2.29002238,15.34 C2.32006402,15.5887098 2.52952526,15.7767974 2.78002238,15.78 L12.2400224,15.8600446 L12.2400224,15.8600446 C12.4822487,15.8632468 12.6904934,15.6890013 12.7300224,15.45 L14.4200224,5.25999996 C15.047006,5.07102469 15.4771179,4.49483711 15.4800224,3.83999996 Z M13.9900224,3.34999996 C14.2606419,3.34999996 14.4800224,3.56938043 14.4800224,3.83999996 C14.4800224,4.11061949 14.2606419,4.32999996 13.9900224,4.32999996 C13.7194029,4.32999996 13.5000224,4.11061949 13.5000224,3.83999996 C13.5000224,3.56938043 13.7194029,3.34999996 13.9900224,3.34999996 Z M7.74002238,1.00999996 C8.08067549,1.0100241 8.38758363,1.21578244 8.51699191,1.53089835 C8.64640019,1.84601426 8.57268142,2.2080842 8.33036526,2.44751565 C8.0880491,2.68694709 7.72512229,2.75632457 7.41157872,2.62315186 C7.09803515,2.48997915 6.89596698,2.18062893 6.90002238,1.83999996 C6.90549906,1.37999072 7.27998054,1.00996736 7.74002238,1.00999996 Z M4.53002238,7.16999996 L4.74002238,7.16999996 C5.90002238,7.00999996 6.82002238,5.87999996 7.57002238,3.65999996 L7.74002238,3.65999996 L7.83002238,3.65999996 C8.54002238,5.89999996 9.43002238,7.05999996 10.5500224,7.17999996 L10.7400224,7.17999996 C12.0100224,7.17999996 13.0000224,5.80999996 13.3800224,5.17999996 L13.3800224,5.17999996 L12.3400224,11.73 C9.32638657,10.3677767 5.87892551,10.3351165 2.84002238,11.64 L2.09002238,5.63999996 C2.63652239,6.48629833 3.53018601,7.04666937 4.53002238,7.16999996 L4.53002238,7.16999996 Z M1.53002815,3.34999996 C1.72820888,3.34999996 1.90688066,3.46938463 1.98272335,3.65248508 C2.05856604,3.83558553 2.01664372,4.04634327 1.8765047,4.18648228 C1.73636568,4.3266213 1.52560795,4.36854362 1.3425075,4.29270093 C1.15940704,4.21685824 1.04002238,4.03818646 1.04002238,3.84000712 C1.03916896,3.58426172 1.23513613,3.37087524 1.49002238,3.34999996 L1.53002815,3.34999996 Z M3.23002238,14.79 L2.97002238,12.68 C5.89645879,11.3468702 9.26122281,11.3688143 12.1700224,12.74 L11.8200224,14.86 L3.23002238,14.79 Z" id="path-1"></path>
    </defs>
    <g id="Icon-/-Programma-Fedeltà" stroke="none" stroke-width="1" fill="none" fill-rule="evenodd">
        <g id="Colors-/-Primary-/-Medium-Green" transform="translate(4.000000, 4.000000)">
            <mask id="mask-2" fill="white">
                <use xlink:href="#path-1"></use>
            </mask>
            <use id="Mask" fill="#222222" fill-rule="nonzero" xlink:href="#path-1"></use>
        </g>
    </g>
</svg>