<?xml version="1.0" standalone="no"?>
<!DOCTYPE svg PUBLIC "-//W3C//DTD SVG 20010904//EN"
 "http://www.w3.org/TR/2001/REC-SVG-20010904/DTD/svg10.dtd">
<svg version="1.0" xmlns="http://www.w3.org/2000/svg"
 width="214.000000pt" height="138.000000pt" viewBox="0 0 214.000000 138.000000"
 preserveAspectRatio="xMidYMid meet">

<g transform="translate(0.000000,138.000000) scale(0.100000,-0.100000)"
fill="#000000" stroke="none">
<path d="M769 1353 c-6 -16 -26 -72 -45 -126 l-33 -98 32 3 c24 2 33 8 35 26
3 19 9 22 48 22 38 0 44 -3 50 -25 5 -20 13 -25 36 -25 20 0 29 4 26 13 -3 6
-22 63 -42 125 -37 109 -38 112 -67 112 -23 0 -32 -6 -40 -27z m56 -90 c6 -30
4 -33 -18 -33 -23 0 -24 1 -14 40 12 44 21 42 32 -7z"/>
<path d="M940 1254 l0 -126 76 4 c71 3 78 6 105 36 24 27 29 41 29 86 0 89
-48 126 -162 126 l-48 0 0 -126z m113 65 c30 -16 37 -28 37 -68 0 -43 -24 -71
-62 -71 l-28 0 0 75 c0 81 6 88 53 64z"/>
<path d="M1186 1308 c-4 -40 -9 -97 -12 -125 l-6 -53 31 0 c31 0 31 0 31 53 0
75 14 90 32 36 13 -38 19 -44 43 -44 23 0 30 7 45 44 20 52 30 38 30 -40 0
-48 1 -49 31 -49 l31 0 -6 78 c-15 174 -14 173 -48 170 -27 -3 -33 -10 -54
-67 -14 -36 -26 -67 -28 -69 -3 -2 -15 28 -27 67 -22 68 -24 71 -55 71 l-31 0
-7 -72z"/>
<path d="M600 1075 c-11 -14 -9 -28 19 -93 25 -60 29 -79 19 -85 -163 -97
-232 -151 -311 -245 -47 -56 -120 -167 -130 -195 -2 -7 -34 2 -85 23 -76 31
-84 33 -99 18 -26 -26 -8 -46 73 -83 62 -29 75 -38 69 -52 -26 -68 -47 -173
-52 -256 l-6 -97 100 0 100 0 7 68 c8 75 34 192 46 206 10 10 529 -219 546
-240 16 -20 354 -20 354 -1 0 17 528 253 540 241 15 -15 40 -124 47 -202 l6
-72 104 0 104 0 -6 50 c-3 28 -7 72 -10 99 -5 47 -34 167 -50 204 -6 14 6 23
68 52 82 38 90 45 81 68 -10 28 -35 27 -106 -3 -38 -17 -72 -30 -73 -30 -2 0
-20 28 -41 61 -89 148 -203 261 -350 350 -38 23 -70 43 -71 44 -2 1 11 36 28
78 34 83 33 107 -4 107 -20 0 -30 -12 -60 -80 l-36 -79 -43 15 c-175 62 -441
62 -616 0 l-43 -15 -37 77 c-38 78 -58 95 -82 67z m655 -124 c50 -10 104 -25
122 -32 l32 -14 -29 -65 c-16 -36 -32 -65 -37 -65 -4 1 -44 9 -88 20 -113 27
-274 25 -378 -3 -42 -12 -79 -22 -82 -22 -4 0 -65 127 -65 136 0 1 22 10 49
19 143 47 326 57 476 26z m18 -187 c49 -14 58 -20 54 -36 -3 -11 -56 -133
-119 -273 -104 -234 -115 -254 -138 -255 -23 0 -34 20 -143 263 -64 144 -117
267 -117 273 0 10 44 25 145 48 45 11 262 -3 318 -20z m-424 -333 c85 -203
108 -267 100 -278 -6 -7 -16 -13 -21 -13 -24 0 -538 224 -538 235 0 19 77 125
133 184 58 60 196 156 208 144 4 -4 57 -127 118 -272z m619 248 c71 -40 193
-158 242 -233 22 -33 40 -66 40 -72 0 -6 -120 -61 -266 -122 -228 -95 -268
-110 -285 -99 -11 7 -17 18 -14 27 27 72 221 530 225 530 3 0 29 -14 58 -31z"/>
</g>
</svg>
