<?xml version="1.0" standalone="no"?>
<!DOCTYPE svg PUBLIC "-//W3C//DTD SVG 20010904//EN"
 "http://www.w3.org/TR/2001/REC-SVG-20010904/DTD/svg10.dtd">
<svg version="1.0" xmlns="http://www.w3.org/2000/svg"
 width="229.000000pt" height="138.000000pt" viewBox="0 0 229.000000 138.000000"
 preserveAspectRatio="xMidYMid meet">

<g transform="translate(0.000000,138.000000) scale(0.100000,-0.100000)"
fill="#000000" stroke="none">
<path d="M1435 695 c0 -379 1 -533 2 -342 2 192 2 502 0 690 -1 188 -2 32 -2
-348z"/>
<path d="M1635 690 c0 -377 1 -531 2 -342 2 188 2 496 0 685 -1 188 -2 34 -2
-343z"/>
<path d="M1937 1173 c-37 -109 -67 -201 -67 -205 0 -5 22 -8 49 -8 l48 0 13
45 13 45 67 0 68 0 11 -45 11 -45 51 0 c37 0 50 4 47 13 -2 8 -32 100 -68 205
l-65 192 -56 0 -55 0 -67 -197z m143 40 c7 -32 15 -64 17 -70 4 -9 -7 -13 -37
-13 -39 0 -42 2 -36 23 4 12 12 43 18 70 6 26 14 47 18 47 4 0 13 -26 20 -57z"/>
<path d="M706 1345 c-10 -8 -23 -16 -29 -18 -19 -6 16 -67 38 -67 11 0 25 -8
32 -19 6 -10 25 -21 41 -24 16 -3 37 -18 46 -33 16 -23 16 -28 3 -41 -20 -20
-57 -1 -50 26 3 14 -3 21 -28 30 -29 10 -35 9 -49 -8 -11 -15 -20 -17 -37 -10
-13 4 -23 15 -23 24 0 11 -10 15 -35 15 -25 0 -35 -4 -35 -15 0 -9 -10 -20
-22 -25 -18 -6 -27 -4 -39 11 -15 16 -21 17 -49 8 -23 -8 -30 -16 -27 -29 6
-25 -37 -45 -53 -25 -13 16 -36 10 -44 -11 -4 -11 -2 -12 13 -4 14 7 22 6 31
-4 17 -21 70 11 70 42 0 26 34 31 47 7 13 -22 83 -9 83 16 0 14 7 19 25 19 18
0 25 -5 25 -19 0 -25 70 -38 83 -16 13 24 47 19 47 -7 0 -29 49 -59 72 -45 23
15 47 2 41 -23 -4 -14 2 -30 18 -46 15 -16 24 -38 24 -60 1 -26 9 -41 31 -59
l29 -23 -132 0 -132 1 -16 45 c-8 25 -15 65 -15 88 l0 43 47 -16 c29 -10 67
-36 100 -68 55 -53 65 -75 36 -75 -9 0 -14 -3 -10 -6 3 -3 15 -3 26 1 21 6 21
7 4 37 -32 55 -107 107 -190 132 -21 7 -23 4 -24 -26 -1 -27 -5 -19 -27 45
-14 42 -29 77 -32 77 -3 0 -17 -33 -30 -72 -20 -58 -26 -67 -28 -45 -6 50 -17
28 -18 -36 -2 -87 -19 -121 -64 -125 -40 -3 -122 18 -127 33 -7 21 60 85 119
114 34 17 55 31 47 31 -41 0 -189 -118 -189 -150 0 -4 15 -12 33 -18 28 -9 23
-10 -47 -11 -73 -1 -78 0 -65 17 13 16 13 16 -7 0 -11 -10 -26 -18 -33 -18 -7
0 -10 -4 -7 -9 3 -5 -1 -11 -9 -15 -19 -7 -19 -26 0 -26 23 0 19 -41 -5 -47
-28 -8 -28 -69 0 -78 24 -8 27 -50 5 -59 -8 -3 -15 -16 -15 -28 0 -13 -4 -29
-9 -37 -7 -11 -11 -8 -17 10 -4 13 -9 31 -10 39 -1 8 -7 37 -12 65 -6 29 -7
56 -1 65 4 8 9 11 9 5 0 -5 8 4 18 20 10 17 17 44 16 60 -2 40 -4 43 -13 21
-4 -11 -10 -15 -14 -10 -7 12 35 64 52 64 6 0 11 4 11 9 0 5 16 33 36 62 19
29 37 65 39 80 5 37 20 64 52 89 l28 22 5 -21 c5 -20 7 -19 76 14 39 19 77 41
84 50 7 8 -14 -1 -46 -20 -32 -19 -63 -35 -70 -35 -21 0 -9 32 22 57 39 31 27
30 -16 -2 -43 -32 -70 -33 -38 -2 13 12 17 16 8 10 -9 -7 -20 -13 -24 -13 -15
0 8 23 52 51 25 16 41 29 36 29 -6 0 -30 -13 -55 -28 -46 -30 -88 -77 -129
-147 -36 -61 -92 -137 -97 -131 -3 3 4 17 15 33 11 15 31 53 46 83 25 50 21
51 -11 3 -8 -11 -7 -3 2 20 8 21 29 56 46 78 17 21 24 36 15 33 -33 -12 -108
-136 -113 -186 -1 -14 -14 -64 -27 -111 -14 -46 -28 -102 -33 -123 l-7 -39 -7
40 c-6 31 -7 26 -5 -24 2 -39 7 -66 14 -69 7 -2 12 -8 12 -14 0 -25 -28 16
-40 58 -27 97 7 254 71 323 19 20 19 23 4 19 -23 -4 -81 -88 -95 -136 -21 -72
-24 -167 -7 -216 l16 -47 -27 3 c-27 3 -27 3 -26 -62 0 -48 7 -80 26 -120 26
-58 111 -160 133 -160 7 0 18 -7 25 -15 11 -13 8 -14 -19 -9 -24 5 -31 3 -31
-10 0 -12 8 -15 32 -12 26 3 42 -4 72 -30 22 -19 42 -32 44 -29 3 3 15 -4 28
-16 31 -29 21 -59 -20 -60 -24 -1 -26 -3 -8 -6 13 -3 68 3 123 11 111 18 159
20 159 8 0 -5 7 -17 16 -28 15 -18 15 -18 5 3 -16 33 -13 51 5 28 8 -11 14
-31 12 -44 -3 -21 -13 -27 -68 -43 -36 -10 -109 -26 -162 -35 l-97 -16 -53 27
c-73 38 -143 86 -157 108 -9 14 -8 25 4 48 8 16 15 39 15 50 0 31 -23 19 -31
-16 -3 -16 -11 -40 -18 -53 -12 -21 -10 -26 21 -58 18 -19 65 -53 103 -76 62
-37 76 -41 129 -40 33 1 70 4 83 7 31 8 30 -7 -2 -24 -14 -7 -25 -17 -25 -21
0 -17 33 -39 58 -39 l27 0 -30 25 c-16 13 -24 24 -17 25 7 0 23 11 35 24 13
14 40 27 62 31 l40 7 -28 -19 c-15 -11 -34 -28 -43 -39 -8 -10 -13 -13 -9 -7
4 9 1 11 -10 7 -12 -5 -13 -9 -4 -21 10 -12 16 -10 39 12 14 14 30 25 36 25 5
0 15 9 21 19 18 28 122 24 155 -6 13 -11 36 -32 52 -47 16 -14 41 -26 55 -26
21 0 23 2 11 10 -13 9 -13 12 3 21 9 6 15 15 11 21 -4 7 -9 6 -14 -3 -6 -9
-18 -6 -47 17 -32 24 -35 29 -19 32 11 3 27 -6 39 -19 10 -13 16 -18 12 -11
-7 14 -11 14 94 2 l84 -9 88 62 c48 34 86 63 84 65 -2 2 -37 -20 -79 -48 l-75
-53 -88 6 c-48 3 -112 11 -140 18 -47 11 -52 15 -47 35 6 23 -22 84 -39 84 -5
0 1 -12 12 -26 27 -34 26 -52 -1 -64 -13 -6 -30 -15 -39 -22 -9 -6 -24 -8 -35
-4 -18 8 -18 8 2 16 32 13 36 24 21 69 -13 36 -13 41 2 44 34 10 -46 6 -88 -4
-33 -7 -47 -6 -59 3 -12 10 -14 10 -8 1 15 -25 -28 -13 -95 27 -37 22 -74 40
-82 40 -16 0 -67 54 -67 71 0 5 -8 9 -18 9 -19 0 -28 8 -91 77 -40 43 -76 128
-87 201 -9 59 11 55 39 -8 13 -28 26 -47 31 -43 5 4 6 -1 3 -12 -3 -11 2 -36
13 -55 10 -19 29 -59 43 -88 15 -30 33 -52 42 -52 13 0 14 4 5 20 -6 11 -14
20 -19 20 -4 0 -11 23 -14 52 -7 52 14 119 47 158 7 8 16 27 20 43 5 23 9 26
25 17 13 -7 17 -16 14 -31 -5 -17 -3 -20 7 -14 10 6 12 0 7 -28 -3 -20 -3 -37
1 -39 4 -2 20 -23 36 -47 l28 -44 23 29 24 29 -23 -80 c-13 -44 -22 -82 -20
-84 2 -2 29 15 60 37 53 38 85 49 56 20 -7 -7 -12 -15 -12 -19 0 -10 58 -29
84 -28 12 1 3 5 -19 10 -22 5 -43 13 -48 18 -11 11 97 121 119 121 19 0 124
-102 124 -120 0 -5 -7 -10 -17 -10 -9 0 -14 -3 -10 -6 3 -3 15 -3 27 1 21 7
21 7 -6 43 -30 39 -28 38 65 -27 l64 -45 -6 30 c-4 16 -13 52 -22 79 -14 49
-14 49 3 27 l18 -23 19 23 c18 20 18 21 2 8 -17 -13 -21 -11 -38 10 -10 14
-28 49 -39 79 -20 51 -20 54 -3 68 21 16 119 63 133 63 13 0 13 -67 0 -75 -18
-11 -10 -56 15 -83 28 -30 33 -16 10 28 -13 25 -13 29 2 34 9 4 21 1 26 -6 6
-9 7 -8 3 5 -3 10 -6 20 -6 23 0 2 -7 0 -17 -3 -11 -4 -14 -3 -9 5 4 6 2 30
-4 52 -10 36 -13 39 -31 29 -42 -22 -28 -1 26 40 30 23 56 39 56 36 1 -3 3 -9
4 -15 1 -5 3 -23 4 -39 1 -23 6 -30 23 -33 33 -4 35 -36 4 -48 -19 -7 -24 -14
-19 -27 7 -17 8 -17 11 0 2 9 12 17 23 17 10 0 19 5 19 12 0 9 3 9 11 1 10
-10 4 -93 -7 -93 -3 0 -16 7 -30 16 -29 19 -46 10 -19 -10 10 -7 15 -18 11
-24 -4 -7 -1 -12 8 -12 23 0 20 -15 -10 -47 -24 -26 -25 -27 -21 -5 3 12 1 22
-4 22 -5 0 -9 -7 -9 -16 0 -14 -2 -15 -17 -3 -16 12 -15 11 0 -8 11 -12 16
-27 12 -33 -9 -14 -41 27 -51 64 -4 17 -10 24 -16 18 -13 -13 0 -57 23 -78 31
-28 23 -56 -10 -35 -19 12 -64 -40 -55 -64 9 -22 -15 -36 -39 -23 -28 15 -77
-8 -77 -37 0 -29 -27 -40 -41 -17 -15 24 -79 17 -86 -9 -7 -25 -43 -25 -50 0
-7 27 -70 34 -87 9 -17 -24 -46 -13 -46 17 0 30 -52 54 -75 35 -21 -18 -48 5
-35 30 12 23 -38 74 -60 60 -21 -13 -50 26 -50 69 0 27 -3 32 -10 21 -5 -8 -7
-23 -4 -34 4 -11 2 -16 -4 -12 -22 13 -24 -35 -3 -58 12 -12 21 -28 21 -34 0
-7 5 -12 11 -12 5 0 8 -4 5 -9 -3 -5 1 -11 9 -15 8 -3 15 -10 15 -16 0 -6 -5
-8 -12 -4 -7 4 -8 3 -4 -5 4 -6 12 -9 17 -6 5 4 9 -1 9 -9 0 -9 6 -16 14 -16
7 0 26 -10 42 -22 l29 -22 -30 34 c-16 19 -39 44 -50 56 -11 12 -28 37 -38 56
-10 18 -12 26 -5 17 10 -12 17 -14 30 -6 24 15 51 -9 44 -39 -8 -32 37 -63 65
-46 26 17 59 -1 52 -27 -3 -14 3 -21 28 -30 30 -10 35 -9 50 10 19 26 59 18
59 -12 0 -28 70 -28 77 0 7 27 51 34 58 10 7 -22 14 -23 49 -9 16 6 26 17 26
29 0 30 37 47 59 27 16 -15 19 -15 31 -1 26 31 29 13 4 -25 -17 -26 -38 -43
-59 -49 -18 -5 -42 -18 -54 -30 -11 -11 -28 -21 -38 -21 -14 0 -14 2 2 20 17
19 17 20 2 14 -10 -3 -22 -14 -27 -24 -8 -15 -4 -18 28 -24 20 -3 52 -9 71
-12 25 -5 32 -4 27 4 -4 7 -1 12 8 12 8 0 17 -6 20 -12 3 -7 4 -4 3 6 -1 12 7
25 22 32 21 11 50 44 38 44 -3 0 -25 -12 -51 -26 -51 -29 -63 -17 -16 17 41
31 78 89 78 122 0 15 -4 27 -9 27 -5 0 -9 -7 -9 -16 0 -8 -5 -12 -11 -8 -7 4
-4 14 10 28 18 18 23 19 31 6 5 -8 6 -18 4 -22 -3 -4 -3 -8 -1 -8 3 0 19 22
37 49 34 53 57 77 66 68 3 -3 -8 -23 -25 -44 -28 -36 -30 -41 -19 -70 10 -28
9 -34 -8 -50 -11 -10 -15 -15 -10 -11 6 5 17 8 25 8 9 1 30 8 46 16 17 8 22
12 13 10 -13 -4 -10 5 12 37 16 23 26 44 23 47 -3 3 -8 -1 -10 -8 -3 -7 -16
-25 -29 -40 l-24 -27 5 30 c5 26 4 27 -4 7 -6 -12 -15 -22 -21 -22 -14 0 -13
6 6 42 13 25 18 28 26 17 8 -11 9 -10 4 3 -3 10 -1 20 4 23 6 4 6 14 -1 26 -7
15 -7 24 1 34 9 10 8 19 0 36 -11 20 -11 21 16 15 16 -4 24 -3 17 1 -8 6 -9
22 -3 51 11 60 24 67 16 8 l-6 -48 24 16 c18 12 26 12 29 3 3 -7 6 -5 6 5 1
22 -15 32 -23 13 -12 -32 -24 -14 -14 23 5 20 10 44 10 52 1 8 7 21 15 28 7 7
13 20 13 28 0 8 7 28 15 44 9 17 11 31 5 35 -5 3 -6 13 -3 21 3 8 1 25 -5 37
-6 12 -16 41 -22 65 -6 23 -16 42 -22 42 -7 0 -6 -5 2 -15 6 -8 13 -33 13 -55
1 -24 7 -40 15 -40 15 0 15 -15 1 -42 -8 -14 -8 -23 0 -27 7 -5 6 -19 -4 -46
l-14 -40 -1 35 c-1 19 -4 30 -6 23 -7 -16 -34 -5 -28 12 3 8 -6 21 -21 31 -18
11 -25 23 -22 36 3 10 1 21 -4 24 -9 5 -10 4 -13 -63 -1 -28 3 -44 12 -48 7
-2 10 -10 7 -16 -4 -5 0 -16 8 -22 8 -7 17 -21 20 -32 4 -16 5 -15 6 6 0 14
-3 29 -8 35 -13 14 -31 74 -22 74 4 0 17 -21 28 -47 20 -46 19 -83 -3 -90 -14
-4 -63 91 -70 137 -4 22 -11 37 -15 34 -5 -3 -7 -10 -4 -15 12 -18 -11 -8 -44
21 -19 16 -32 33 -28 36 3 4 2 15 -3 25 -7 12 -7 20 0 24 5 3 10 17 10 30 0
13 4 26 9 30 9 5 41 -20 41 -34 0 -3 8 -7 18 -7 13 0 17 8 16 39 0 21 4 44 10
52 9 13 17 9 49 -20 25 -23 37 -29 37 -19 0 9 -9 18 -20 21 -11 3 -20 9 -20
14 0 5 -11 14 -25 21 -13 6 -28 24 -34 39 -9 27 -41 41 -41 19 0 -5 5 -9 12
-7 18 3 34 -50 21 -72 -6 -9 -9 -29 -6 -44 6 -32 -7 -35 -25 -7 -7 11 -23 20
-37 20 -27 0 -53 34 -34 46 8 5 6 10 -5 16 -13 7 -16 17 -11 39 5 22 3 29 -9
29 -8 0 -14 -6 -12 -12 15 -49 16 -68 1 -68 -8 0 -15 7 -15 15 0 8 -5 15 -11
15 -7 0 -9 9 -5 24 5 20 3 23 -14 19 -11 -3 -20 0 -20 6 0 6 -11 11 -25 11
-14 0 -28 7 -31 15 -4 8 -16 15 -28 15 -27 0 -50 44 -31 60 6 5 15 7 18 3 4
-3 7 1 7 10 0 20 0 20 -24 2z m-309 -140 c0 -8 -4 -12 -9 -9 -4 3 -8 9 -8 15
0 5 4 9 8 9 5 0 9 -7 9 -15z m532 -114 c8 -5 11 -16 7 -26 -5 -14 -9 -15 -21
-5 -16 13 -21 40 -7 40 4 0 13 -4 21 -9z m-732 -111 c-1 -11 -6 -20 -12 -20
-21 0 -25 13 -7 26 22 17 21 17 19 -6z m448 -92 l18 -48 63 0 c35 0 64 -3 64
-7 0 -5 -15 -18 -33 -31 -75 -52 -71 -45 -52 -101 9 -28 15 -56 13 -61 -2 -6
-25 6 -52 25 l-49 35 -50 -36 c-27 -19 -51 -34 -53 -31 -2 2 3 26 11 53 8 27
15 54 15 60 0 6 -21 26 -47 44 -40 29 -44 35 -27 41 10 4 40 8 65 8 l45 1 18
56 c10 31 21 52 26 48 4 -5 15 -30 25 -56z m-356 -39 c53 -42 65 -57 32 -39
-26 13 -31 13 -31 -5 0 -8 6 -12 14 -9 16 6 118 -39 136 -61 7 -8 9 -26 5 -44
-7 -33 -60 -121 -73 -121 -5 0 -18 18 -30 39 -18 31 -21 48 -16 82 5 29 4 40
-4 36 -6 -5 -8 0 -5 11 3 14 -4 22 -27 32 -17 7 -32 11 -34 9 -2 -2 -11 -17
-19 -34 -11 -20 -16 -24 -17 -12 0 10 -8 17 -20 17 -27 0 -27 40 -1 47 20 5
38 64 26 83 -13 22 15 8 64 -31z m-143 -17 c-15 -15 -15 -15 -4 10 7 15 15 23
17 17 2 -6 -4 -18 -13 -27z m-29 -44 c-3 -8 -6 -5 -6 6 -1 11 2 17 5 13 3 -3
4 -12 1 -19z m123 -269 c0 -6 -4 -7 -10 -4 -5 3 -10 11 -10 16 0 6 5 7 10 4 6
-3 10 -11 10 -16z m564 -246 c-21 -15 -48 -18 -39 -3 4 6 11 8 16 5 5 -4 9 0
9 9 0 17 23 28 29 13 2 -6 -4 -16 -15 -24z m-400 -12 c3 -5 -1 -11 -9 -15 -9
-3 -15 0 -15 9 0 16 16 20 24 6z"/>
<path d="M760 1306 c0 -7 9 -16 21 -19 20 -5 20 -5 3 14 -20 23 -24 23 -24 5z"/>
<path d="M475 1290 c-3 -6 1 -7 9 -4 18 7 21 14 7 14 -6 0 -13 -4 -16 -10z"/>
<path d="M1517 1281 c-3 -12 -1 -19 4 -16 4 3 15 -10 23 -30 21 -50 29 -44 9
8 -21 54 -29 63 -36 38z"/>
<path d="M815 1280 c-3 -5 1 -10 9 -10 9 0 16 -8 16 -17 0 -15 2 -15 9 -4 5 8
16 11 25 8 9 -4 16 -2 16 3 0 6 4 10 10 10 5 0 6 -8 3 -17 -6 -15 -5 -16 9 -3
23 22 11 32 -28 24 -21 -4 -40 -2 -48 5 -10 8 -16 9 -21 1z"/>
<path d="M955 1253 c11 -3 24 -10 28 -17 6 -7 7 -6 4 4 -2 8 -14 16 -28 17
-19 1 -20 1 -4 -4z"/>
<path d="M1496 1233 c-6 -14 -5 -15 5 -6 7 7 10 15 7 18 -3 3 -9 -2 -12 -12z"/>
<path d="M333 1095 c4 -8 2 -17 -3 -20 -6 -3 -15 -16 -21 -28 -9 -17 -4 -15
21 9 18 18 29 37 26 43 -10 16 -29 13 -23 -4z"/>
<path d="M1492 1098 c-18 -18 -15 -53 6 -71 20 -18 57 -23 66 -8 4 5 -3 7 -14
4 -40 -11 -77 46 -48 75 7 7 10 12 7 12 -3 0 -10 -5 -17 -12z"/>
<path d="M300 1080 c-9 -6 -10 -10 -3 -10 6 0 15 5 18 10 8 12 4 12 -15 0z"/>
<path d="M1071 1085 c0 -6 9 -28 19 -50 17 -34 18 -36 13 -10 -6 28 -34 80
-32 60z"/>
<path d="M1030 1005 c0 -6 9 -11 20 -11 11 0 20 5 20 11 0 6 -9 11 -20 11 -11
0 -20 -5 -20 -11z"/>
<path d="M111 994 c0 -11 3 -14 6 -6 3 7 2 16 -1 19 -3 4 -6 -2 -5 -13z"/>
<path d="M1110 973 c0 -10 5 -25 10 -33 7 -11 9 -6 7 17 -2 34 -17 47 -17 16z"/>
<path d="M102 945 c0 -16 2 -22 5 -12 2 9 2 23 0 30 -3 6 -5 -1 -5 -18z"/>
<path d="M1509 883 c3 -27 7 -38 9 -26 2 12 11 24 20 26 15 4 15 5 0 6 -11 1
-18 9 -18 21 0 11 -3 20 -8 20 -4 0 -5 -21 -3 -47z"/>
<path d="M1110 914 c0 -1 6 -7 14 -13 10 -9 15 -8 19 3 4 10 0 14 -14 13 -10
-1 -19 -2 -19 -3z"/>
<path d="M1890 694 l0 -206 113 4 c132 4 175 20 215 81 24 36 27 50 27 127 0
80 -2 89 -29 124 -45 59 -92 76 -218 76 l-108 0 0 -206z m208 106 c36 -22 52
-54 52 -106 0 -73 -53 -124 -130 -124 l-30 0 0 125 0 125 38 0 c20 0 52 -9 70
-20z"/>
<path d="M1175 773 c28 -7 32 -18 30 -65 -2 -30 0 -37 7 -24 5 9 8 33 6 54 -3
33 -6 37 -33 39 -19 1 -22 0 -10 -4z"/>
<path d="M1480 742 c0 -4 20 -30 45 -57 30 -35 44 -45 45 -32 0 9 -4 17 -8 17
-5 0 -21 18 -38 40 -27 37 -44 50 -44 32z"/>
<path d="M261 684 c0 -11 3 -14 6 -6 3 7 2 16 -1 19 -3 4 -6 -2 -5 -13z"/>
<path d="M212 620 c-30 -72 -28 -88 3 -21 14 30 24 59 22 64 -2 6 -13 -14 -25
-43z"/>
<path d="M1170 646 c0 -9 5 -16 10 -16 6 0 10 4 10 9 0 6 -4 13 -10 16 -5 3
-10 -1 -10 -9z"/>
<path d="M901 623 c-10 -26 -10 -27 4 -9 8 11 15 23 15 28 0 15 -7 8 -19 -19z"/>
<path d="M1522 524 c-41 -55 -37 -69 4 -16 38 47 47 62 37 62 -4 -1 -23 -21
-41 -46z"/>
<path d="M291 453 c7 -10 15 -20 16 -22 2 -2 3 3 3 11 0 9 -7 19 -16 22 -15 6
-15 4 -3 -11z"/>
<path d="M964 418 l-26 -53 31 35 c16 19 30 43 31 53 0 28 -8 20 -36 -35z"/>
<path d="M668 453 c6 -2 18 -2 25 0 6 3 1 5 -13 5 -14 0 -19 -2 -12 -5z"/>
<path d="M603 443 c9 -2 23 -2 30 0 6 3 -1 5 -18 5 -16 0 -22 -2 -12 -5z"/>
<path d="M1870 418 c-1 -2 -9 -94 -18 -205 l-18 -203 47 0 c46 0 46 0 53 37 3
21 6 78 6 127 0 51 4 86 9 80 4 -5 21 -46 36 -92 l29 -83 45 3 46 3 31 90 32
90 6 -100 c4 -55 8 -111 9 -125 2 -22 7 -25 50 -28 l47 -3 0 33 c0 18 -7 110
-15 203 -8 94 -15 171 -15 173 0 1 -24 2 -54 2 l-55 0 -38 -115 c-20 -63 -40
-115 -43 -115 -3 0 -23 52 -43 115 l-38 115 -55 0 c-30 0 -54 -1 -54 -2z"/>
<path d="M1021 381 c-8 -5 -11 -16 -6 -30 12 -39 -4 -79 -41 -102 -19 -12 -33
-24 -30 -27 6 -6 69 35 106 70 14 13 21 20 16 16 -19 -15 -25 -7 -28 37 -2 34
-6 43 -17 36z"/>
<path d="M1523 340 c0 -30 2 -43 4 -27 2 15 2 39 0 55 -2 15 -4 2 -4 -28z"/>
<path d="M1102 340 c-12 -20 -11 -20 7 -11 26 14 29 14 35 -6 3 -11 4 -8 3 7
-2 31 -28 37 -45 10z"/>
<path d="M110 340 c0 -6 7 -13 15 -17 14 -5 14 -8 0 -29 -8 -13 -11 -24 -6
-24 5 0 13 9 16 21 5 14 12 18 23 14 32 -12 37 -10 39 20 1 20 0 23 -4 8 -2
-13 -6 -23 -8 -23 -12 0 -55 25 -55 32 0 4 -4 8 -10 8 -5 0 -10 -5 -10 -10z"/>
<path d="M390 331 c0 -17 15 -19 28 -5 11 12 9 14 -8 14 -11 0 -20 -4 -20 -9z"/>
<path d="M431 311 c-8 -6 -9 -11 -3 -15 6 -3 14 -1 17 5 9 14 2 20 -14 10z"/>
<path d="M1150 295 c0 -5 5 -17 10 -25 5 -8 10 -10 10 -5 0 6 -5 17 -10 25 -5
8 -10 11 -10 5z"/>
<path d="M162 249 c-13 -17 -18 -30 -12 -34 5 -3 10 1 10 9 0 9 4 16 9 16 8 0
25 30 19 35 -2 1 -13 -10 -26 -26z"/>
<path d="M1122 264 c10 -10 20 -16 22 -13 3 3 -5 11 -17 18 -21 13 -21 12 -5
-5z"/>
<path d="M212 229 c-7 -10 -8 -19 -3 -19 5 0 12 6 14 13 4 9 8 8 16 -3 6 -8
11 -10 11 -4 0 6 -6 16 -13 22 -10 8 -16 6 -25 -9z"/>
<path d="M1025 242 c6 -5 26 -12 45 -16 21 -4 31 -3 25 3 -6 5 -26 12 -45 16
-23 5 -32 4 -25 -3z"/>
<path d="M481 214 c0 -11 3 -14 6 -6 3 7 2 16 -1 19 -3 4 -6 -2 -5 -13z"/>
<path d="M500 206 c0 -8 4 -17 9 -20 5 -4 7 3 4 14 -6 23 -13 26 -13 6z"/>
<path d="M396 183 c6 -31 11 -39 20 -30 4 4 2 13 -4 20 -7 8 -9 16 -6 19 3 3
1 9 -5 12 -6 4 -8 -4 -5 -21z"/>
<path d="M732 190 c0 -14 2 -19 5 -12 2 6 2 18 0 25 -3 6 -5 1 -5 -13z"/>
<path d="M836 197 c3 -10 9 -15 12 -12 3 3 0 11 -7 18 -10 9 -11 8 -5 -6z"/>
<path d="M1524 198 c3 -10 9 -25 13 -35 5 -13 2 -15 -15 -11 -12 3 -23 1 -25
-7 -4 -8 3 -10 19 -7 17 3 30 -2 40 -14 11 -15 11 -10 -2 26 -10 25 -21 50
-27 55 -7 7 -8 4 -3 -7z"/>
<path d="M285 190 c-3 -6 1 -7 9 -4 18 7 21 14 7 14 -6 0 -13 -4 -16 -10z"/>
<path d="M320 186 c0 -7 9 -16 20 -19 11 -3 20 -4 20 -3 0 1 -9 9 -20 19 -15
13 -20 14 -20 3z"/>
<path d="M782 180 c0 -14 2 -19 5 -12 2 6 2 18 0 25 -3 6 -5 1 -5 -13z"/>
<path d="M1010 196 c0 -2 8 -10 18 -17 15 -13 16 -12 3 4 -13 16 -21 21 -21
13z"/>
<path d="M882 170 c0 -14 2 -19 5 -12 2 6 2 18 0 25 -3 6 -5 1 -5 -13z"/>
<path d="M952 165 c0 -16 2 -22 5 -12 2 9 2 23 0 30 -3 6 -5 -1 -5 -18z"/>
<path d="M250 170 c0 -5 5 -10 11 -10 5 0 7 5 4 10 -3 6 -8 10 -11 10 -2 0 -4
-4 -4 -10z"/>
<path d="M431 164 c0 -11 3 -14 6 -6 3 7 2 16 -1 19 -3 4 -6 -2 -5 -13z"/>
</g>
</svg>
