<?xml version="1.0" standalone="no"?>
<!DOCTYPE svg PUBLIC "-//W3C//DTD SVG 20010904//EN"
 "http://www.w3.org/TR/2001/REC-SVG-20010904/DTD/svg10.dtd">
<svg version="1.0" xmlns="http://www.w3.org/2000/svg"
 width="498.000000pt" height="138.000000pt" viewBox="0 0 498.000000 138.000000"
 preserveAspectRatio="xMidYMid meet">

<g transform="translate(0.000000,138.000000) scale(0.100000,-0.100000)"
fill="#000000" stroke="none">
<path d="M2132 1364 c-30 -21 -30 -77 0 -98 49 -34 108 -7 108 49 0 37 -28 65
-65 65 -11 0 -31 -7 -43 -16z"/>
<path d="M4432 1334 c-47 -33 -17 -114 43 -114 37 0 65 28 65 65 0 37 -28 65
-65 65 -11 0 -31 -7 -43 -16z"/>
<path d="M4862 1334 c-15 -10 -22 -25 -22 -48 0 -38 14 -53 58 -62 25 -5 36
-1 56 19 32 32 33 51 1 82 -28 29 -61 32 -93 9z"/>
<path d="M3887 1323 c-4 -3 -7 -138 -7 -298 0 -325 -1 -319 66 -313 24 2 41
10 48 23 6 11 12 22 14 24 1 3 16 -8 32 -24 23 -22 41 -29 84 -33 69 -6 115
10 159 55 46 45 61 90 61 173 -1 130 -65 210 -175 218 -73 5 -99 -1 -138 -34
l-31 -26 0 95 c0 80 -3 98 -21 121 -15 18 -30 26 -53 26 -18 0 -36 -3 -39 -7z
m299 -294 c81 -76 38 -229 -66 -229 -83 0 -120 40 -120 131 0 61 11 84 53 110
40 25 99 20 133 -12z"/>
<path d="M4637 1323 c-4 -3 -7 -137 -7 -298 0 -213 3 -294 12 -303 16 -16 80
-16 96 0 9 9 12 87 12 288 0 264 -1 277 -20 298 -20 21 -78 31 -93 15z"/>
<path d="M25 1265 l-25 -24 0 -238 c0 -275 3 -286 66 -291 25 -2 45 2 52 11 6
7 12 53 14 103 3 87 4 89 28 89 19 0 43 -23 108 -103 82 -100 84 -102 126
-102 30 0 48 6 61 20 17 19 15 22 -60 112 l-77 92 38 13 c80 28 120 95 112
185 -12 119 -89 158 -310 158 -102 0 -110 -1 -133 -25z m264 -86 c37 -13 51
-35 51 -79 0 -67 -38 -90 -146 -90 l-64 0 0 90 0 90 64 0 c34 0 77 -5 95 -11z"/>
<path d="M2086 1175 c-74 -26 -136 -106 -136 -175 0 -29 1 -30 48 -30 47 0 47
1 66 46 15 38 27 50 62 66 70 31 133 4 165 -69 18 -43 19 -43 69 -43 56 0 59
4 38 74 -16 53 -81 118 -134 134 -54 16 -129 15 -178 -3z"/>
<path d="M677 1146 c-94 -25 -157 -114 -157 -221 0 -156 119 -246 286 -218
104 18 161 77 119 123 -21 23 -50 26 -58 7 -8 -21 -71 -47 -112 -47 -62 0
-125 46 -125 92 0 17 14 18 165 18 l165 0 0 48 c-1 97 -68 181 -162 202 -59
12 -60 12 -121 -4z m117 -87 c27 -13 61 -73 51 -89 -8 -14 -215 -13 -215 0 0
6 7 24 15 40 27 52 94 74 149 49z"/>
<path d="M3523 1150 c-84 -17 -123 -50 -123 -104 0 -40 73 -66 87 -31 13 37
109 59 153 35 23 -13 44 -69 27 -75 -7 -2 -44 -6 -82 -8 -135 -10 -205 -59
-205 -144 0 -38 5 -50 33 -78 57 -57 168 -60 231 -5 l33 29 11 -24 c14 -30 54
-47 88 -39 l24 6 0 156 c0 182 -12 223 -78 259 -43 24 -139 35 -199 23z m153
-255 c8 -19 -12 -68 -36 -90 -29 -26 -96 -31 -120 -10 -44 40 -14 89 61 104
67 13 89 12 95 -4z"/>
<path d="M1082 1129 c-50 -25 -72 -62 -72 -118 0 -65 38 -99 139 -125 94 -24
126 -50 96 -80 -27 -27 -118 -21 -177 11 -49 27 -50 27 -64 8 -20 -26 -18 -39
11 -73 40 -47 153 -65 251 -41 85 22 131 99 101 171 -19 45 -49 63 -142 87
-88 22 -116 42 -99 69 27 42 104 40 170 -4 l38 -26 18 22 c20 25 17 53 -10 82
-37 43 -189 52 -260 17z"/>
<path d="M1447 1144 c-4 -4 -7 -137 -7 -295 0 -286 0 -288 22 -303 29 -20 62
-20 82 0 13 12 16 38 16 122 l0 106 28 -26 c15 -14 37 -31 49 -37 34 -18 112
-13 159 9 147 72 147 344 0 414 -68 32 -191 12 -217 -36 -10 -18 -12 -17 -32
14 -17 25 -31 34 -58 36 -19 2 -38 0 -42 -4z m299 -115 c81 -76 38 -229 -65
-229 -81 0 -121 44 -121 135 0 57 12 80 53 106 40 25 99 20 133 -12z"/>
<path d="M2482 1141 c-18 -11 -13 -404 6 -423 6 -6 28 -12 48 -12 57 0 64 18
64 160 0 67 3 130 6 139 9 21 56 45 92 45 17 0 40 -9 53 -19 23 -18 24 -26 27
-158 2 -76 8 -144 14 -150 13 -16 80 -17 96 -1 18 18 16 298 -2 341 -23 54
-59 80 -120 85 -70 6 -96 -1 -137 -35 -24 -20 -34 -24 -37 -14 -14 41 -75 65
-110 42z"/>
<path d="M3055 1136 c-57 -26 -80 -61 -80 -123 0 -51 3 -58 34 -84 23 -19 59
-34 108 -45 68 -15 103 -33 103 -54 0 -46 -118 -55 -189 -15 -52 30 -74 21
-69 -29 6 -60 109 -97 230 -83 96 12 154 72 144 150 -6 51 -38 84 -100 102
-28 8 -71 20 -95 27 -59 17 -74 42 -42 69 38 31 120 20 169 -24 l22 -21 22 22
c18 18 20 26 13 48 -18 51 -57 69 -153 72 -58 1 -97 -2 -117 -12z"/>
<path d="M4430 1130 c-18 -18 -20 -33 -20 -194 0 -96 4 -186 10 -201 9 -24 14
-26 57 -23 l48 3 3 205 c2 184 1 206 -15 217 -25 19 -60 16 -83 -7z"/>
<path d="M4867 1138 c-16 -12 -17 -32 -15 -218 l3 -205 48 -3 c43 -3 48 -1 57
23 15 39 13 354 -3 385 -14 29 -62 38 -90 18z"/>
<path d="M1946 912 c-9 -15 12 -83 39 -123 81 -123 310 -117 387 11 15 25 28
61 30 80 l3 35 -48 3 c-47 3 -47 3 -66 -41 -32 -73 -95 -100 -165 -69 -35 16
-47 28 -62 66 -19 45 -20 46 -66 46 -26 0 -49 -4 -52 -8z"/>
<path d="M2132 624 c-30 -21 -30 -77 0 -98 49 -34 108 -7 108 49 0 37 -28 65
-65 65 -11 0 -31 -7 -43 -16z"/>
<path d="M972 588 c-17 -17 -17 -539 0 -556 7 -7 29 -12 49 -12 67 0 69 10 69
287 0 133 -4 253 -10 267 -8 22 -16 26 -53 26 -24 0 -48 -5 -55 -12z"/>
<path d="M1402 461 c-19 -5 -47 -22 -64 -37 -23 -21 -32 -25 -36 -15 -11 33
-43 52 -80 49 l-37 -3 -3 -198 c-1 -128 1 -205 8 -218 9 -16 19 -20 58 -17
l47 3 5 143 c5 142 5 144 33 168 35 30 94 32 128 5 23 -18 24 -26 27 -158 2
-76 8 -144 14 -150 14 -18 83 -16 97 1 9 11 11 61 9 175 -3 143 -5 163 -24
187 -44 60 -109 83 -182 65z"/>
<path d="M2465 461 c-125 -32 -194 -148 -167 -278 14 -66 49 -116 101 -143
119 -60 318 -14 309 73 -3 35 -31 57 -52 42 -54 -40 -71 -48 -110 -52 -54 -7
-111 19 -131 58 -8 15 -15 33 -15 39 0 6 56 10 165 10 l165 0 0 50 c0 81 -40
149 -111 185 -33 18 -115 26 -154 16z m126 -110 c16 -16 29 -39 29 -50 0 -20
-5 -21 -110 -21 -60 0 -110 2 -110 5 0 4 7 19 15 35 33 64 126 81 176 31z"/>
<path d="M3004 459 c-16 -5 -41 -20 -54 -34 -26 -28 -40 -32 -40 -12 0 27 -37
48 -77 45 l-38 -3 -3 -200 c-3 -228 0 -237 62 -237 21 0 43 5 49 11 8 8 13 64
15 151 3 136 4 140 29 160 33 26 87 26 113 0 18 -18 20 -33 20 -153 0 -159 5
-170 70 -165 l45 3 3 142 3 142 30 25 c38 32 90 35 119 6 18 -18 20 -33 20
-144 0 -161 5 -176 64 -176 65 0 69 12 65 194 -4 136 -6 155 -27 187 -49 80
-175 88 -248 15 l-32 -32 -26 32 c-15 20 -42 37 -64 43 -43 13 -56 12 -98 0z"/>
<path d="M3717 456 c-94 -25 -157 -114 -157 -221 0 -150 113 -240 274 -220
105 13 173 78 131 125 -24 26 -38 25 -71 -5 -51 -47 -146 -45 -196 5 -15 16
-28 38 -28 49 0 20 6 21 163 23 l162 3 3 39 c8 92 -63 185 -157 205 -62 13
-63 13 -124 -3z m124 -86 c19 -10 49 -59 49 -80 0 -6 -40 -10 -110 -10 -126 0
-135 7 -76 66 28 28 42 34 76 34 23 0 50 -5 61 -10z"/>
<path d="M1755 440 c-50 -25 -75 -65 -75 -120 0 -65 44 -103 143 -125 99 -22
126 -45 91 -79 -26 -27 -117 -21 -176 11 -49 27 -50 27 -64 8 -19 -25 -18 -38
7 -68 37 -49 159 -70 255 -46 86 22 131 99 100 173 -19 45 -46 62 -141 85 -88
22 -116 41 -99 69 27 42 104 40 170 -4 l38 -26 18 22 c10 12 18 27 18 34 0 22
-33 58 -66 72 -51 21 -171 18 -219 -6z"/>
<path d="M2125 436 c-23 -35 -18 -392 5 -406 21 -14 74 -12 88 2 17 17 17 399
0 416 -22 22 -76 15 -93 -12z"/>
</g>
</svg>
