<?xml version="1.0" standalone="no"?>
<!DOCTYPE svg PUBLIC "-//W3C//DTD SVG 20010904//EN"
 "http://www.w3.org/TR/2001/REC-SVG-20010904/DTD/svg10.dtd">
<svg version="1.0" xmlns="http://www.w3.org/2000/svg"
 width="138.000000pt" height="138.000000pt" viewBox="0 0 138.000000 138.000000"
 preserveAspectRatio="xMidYMid meet">

<g transform="translate(0.000000,138.000000) scale(0.100000,-0.100000)"
fill="#000000" stroke="none">
<path d="M589 1370 c-152 -24 -288 -98 -398 -216 -340 -364 -182 -959 294
-1110 242 -77 505 -14 683 164 138 139 193 263 200 457 5 143 -9 211 -68 330
-88 179 -248 311 -435 359 -78 20 -205 27 -276 16z m256 -35 c183 -46 352
-181 433 -346 125 -253 84 -540 -106 -741 -112 -118 -240 -185 -400 -208 -331
-49 -660 191 -728 530 -67 335 151 677 486 764 74 20 240 20 315 1z"/>
<path d="M536 1255 c-197 -54 -359 -221 -410 -421 -67 -261 66 -548 307 -663
96 -46 161 -61 260 -61 241 1 457 150 543 376 32 84 44 243 24 333 -43 201
-218 384 -416 435 -75 19 -239 20 -308 1z m291 -354 c73 -34 100 -111 57 -167
l-19 -27 27 -29 c23 -24 28 -39 28 -78 0 -56 -26 -95 -76 -116 -47 -20 -151
-18 -194 4 -41 20 -80 74 -80 111 0 30 33 89 55 97 12 5 10 12 -10 36 -90 107
69 234 212 169z m-367 -160 l0 -170 48 -3 47 -3 0 -45 0 -45 -150 0 -150 0 0
45 0 45 48 3 47 3 0 109 0 109 -41 -14 c-23 -8 -43 -15 -46 -15 -2 0 -3 23 -1
51 l3 52 60 22 c33 13 77 23 98 24 l37 1 0 -169z m630 25 c0 -33 2 -35 38 -38
34 -3 37 -6 40 -35 3 -32 2 -33 -37 -33 -40 0 -41 -1 -41 -35 0 -32 -2 -35
-30 -35 -28 0 -30 3 -30 35 0 34 -1 35 -40 35 -39 0 -40 1 -40 35 0 34 1 35
40 35 39 0 40 1 40 35 0 32 2 35 30 35 28 0 30 -3 30 -34z"/>
<path d="M707 822 c-21 -23 -22 -46 -1 -66 32 -33 104 -8 104 36 0 42 -73 63
-103 30z"/>
<path d="M701 646 c-21 -25 -9 -69 22 -84 22 -11 32 -11 55 0 34 16 43 65 16
85 -24 17 -79 17 -93 -1z"/>
</g>
</svg>
