<svg width="185" height="85" viewBox="0 0 185 85" fill="none" xmlns="http://www.w3.org/2000/svg">
<g clip-path="url(#clip0_1579_15090)">
<rect width="185" height="85" fill="url(#paint0_linear_1579_15090)"/>
<path opacity="0.9" d="M111.542 34.1918L152.747 -6.53446C161.469 -15.1552 175.736 -15.1552 184.458 -6.53446C193.181 2.08626 193.181 16.1875 184.458 24.8082L143.253 65.5345C134.531 74.1552 120.264 74.1552 111.542 65.5345C102.819 56.9137 102.819 42.8125 111.542 34.1918Z" fill="url(#paint1_linear_1579_15090)"/>
<path opacity="0.9" d="M116.074 23.1021L152.567 -13.487C155.516 -16.4438 155.517 -21.2365 152.569 -24.1918C149.622 -27.1471 144.842 -27.1459 141.893 -24.1892L105.4 12.4C102.451 15.3567 102.45 20.1495 105.398 23.1048C108.345 26.0601 113.125 26.0589 116.074 23.1021Z" fill="url(#paint2_linear_1579_15090)"/>
<g clip-path="url(#clip1_1579_15090)">
<path d="M118.999 17.3608C118.999 17.3477 118.999 17.3347 118.998 17.3216C118.998 17.292 118.997 17.2624 118.996 17.2328C118.996 17.2184 118.995 17.2041 118.995 17.1897C118.994 17.1593 118.993 17.129 118.991 17.0988C118.991 17.087 118.99 17.075 118.989 17.0631C118.987 17.0215 118.985 16.9799 118.982 16.9385C118.982 16.9322 118.981 16.9259 118.981 16.9196C118.979 16.8843 118.976 16.8489 118.974 16.8138C118.972 16.8003 118.971 16.7868 118.97 16.7733C118.968 16.7446 118.965 16.7159 118.963 16.6872C118.961 16.6734 118.96 16.6593 118.959 16.6454C118.955 16.6142 118.952 16.5829 118.949 16.5517C118.948 16.5417 118.947 16.5315 118.945 16.5215C118.941 16.4806 118.936 16.4397 118.931 16.399C118.929 16.3896 118.928 16.3803 118.927 16.3711C118.923 16.3395 118.918 16.3078 118.914 16.2762C118.912 16.2627 118.91 16.2492 118.908 16.2357C118.904 16.2074 118.899 16.1791 118.895 16.151C118.893 16.1376 118.891 16.1245 118.889 16.1112C118.883 16.0781 118.878 16.045 118.872 16.0119C118.871 16.0046 118.869 15.9972 118.868 15.99C118.861 15.9499 118.853 15.9099 118.846 15.87C118.844 15.859 118.841 15.8483 118.839 15.8374C118.833 15.808 118.828 15.7786 118.821 15.7492C118.819 15.7357 118.816 15.7222 118.813 15.7088C118.807 15.6809 118.801 15.653 118.795 15.625C118.792 15.6126 118.789 15.6002 118.786 15.5879C118.778 15.5507 118.769 15.5137 118.76 15.4767C118.76 15.4743 118.759 15.4719 118.758 15.4695C118.749 15.4301 118.739 15.391 118.729 15.3518C118.726 15.3402 118.723 15.3285 118.72 15.3168C118.712 15.2889 118.705 15.261 118.697 15.2332C118.693 15.2201 118.69 15.207 118.686 15.1938C118.678 15.1657 118.67 15.1378 118.662 15.1098C118.659 15.0987 118.655 15.0876 118.652 15.0765C118.641 15.0379 118.629 14.9994 118.617 14.9609C118.616 14.957 118.615 14.9533 118.614 14.9495C118.603 14.9149 118.592 14.8806 118.58 14.8462C118.576 14.8342 118.572 14.8222 118.568 14.8102C118.559 14.7833 118.55 14.7567 118.541 14.7301C118.537 14.7173 118.533 14.7047 118.528 14.6921C118.518 14.6636 118.508 14.6352 118.498 14.6069C118.494 14.5974 118.491 14.5878 118.488 14.5784C118.474 14.5408 118.46 14.5033 118.446 14.4661C118.443 14.4587 118.44 14.4515 118.437 14.4442C118.426 14.4141 118.414 14.3841 118.402 14.3543C118.397 14.3423 118.392 14.3303 118.388 14.3183C118.377 14.2922 118.366 14.2663 118.356 14.2404C118.351 14.2285 118.346 14.2167 118.341 14.2049C118.328 14.1751 118.316 14.1453 118.303 14.1157C118.3 14.1087 118.297 14.1016 118.294 14.0948C118.278 14.0584 118.261 14.0219 118.245 13.9858C118.241 13.9768 118.237 13.9677 118.233 13.9586C118.22 13.9313 118.207 13.9041 118.195 13.8769C118.189 13.865 118.183 13.8532 118.178 13.8414C118.166 13.816 118.154 13.7907 118.141 13.7655C118.136 13.7544 118.13 13.7435 118.125 13.7324C118.109 13.7 118.093 13.6678 118.076 13.6358C118.075 13.6327 118.073 13.6294 118.071 13.6262C118.053 13.5909 118.035 13.5557 118.016 13.5206C118.011 13.5108 118.006 13.501 118 13.4912C117.987 13.4657 117.973 13.4403 117.959 13.415C117.953 13.4035 117.947 13.392 117.94 13.3807C117.926 13.3556 117.912 13.3306 117.898 13.3056C117.892 13.2958 117.887 13.286 117.881 13.2762C117.862 13.2418 117.842 13.2074 117.821 13.1732C117.821 13.1723 117.82 13.1713 117.82 13.1702C117.8 13.1373 117.78 13.1044 117.76 13.0716C117.754 13.0616 117.748 13.0516 117.742 13.0417C117.727 13.0174 117.712 12.9934 117.697 12.9695C117.69 12.9586 117.683 12.9479 117.676 12.937C117.66 12.9118 117.644 12.8866 117.628 12.8617C117.622 12.8533 117.617 12.845 117.611 12.8369C117.59 12.8038 117.568 12.7706 117.545 12.7379C117.542 12.7329 117.539 12.7281 117.535 12.7231C117.516 12.6954 117.497 12.6678 117.478 12.6404C117.471 12.6304 117.464 12.6204 117.457 12.6104C117.441 12.5873 117.425 12.5644 117.408 12.5416C117.401 12.5316 117.394 12.5215 117.386 12.5115C117.368 12.4859 117.349 12.4604 117.33 12.4351C117.325 12.4288 117.321 12.4223 117.316 12.4158C117.292 12.3842 117.269 12.3526 117.244 12.3213C117.239 12.3145 117.234 12.3078 117.229 12.301C117.21 12.2765 117.191 12.2521 117.171 12.2277C117.164 12.2179 117.156 12.2081 117.148 12.1985C117.13 12.1765 117.113 12.1544 117.095 12.1326C117.087 12.1234 117.08 12.1141 117.072 12.1049C117.05 12.0779 117.028 12.051 117.005 12.0242C117.002 12.0209 117 12.0176 116.997 12.0142C116.971 11.9839 116.945 11.9539 116.919 11.9239C116.913 11.9164 116.906 11.9088 116.899 11.9012C116.88 11.879 116.86 11.8566 116.841 11.8346C116.832 11.8253 116.824 11.8159 116.815 11.8067C116.796 11.7852 116.777 11.7639 116.757 11.7428C116.75 11.7347 116.742 11.7266 116.735 11.7184C116.681 11.6605 116.626 11.6034 116.571 11.5471C116.563 11.5392 116.555 11.5314 116.548 11.5236C116.527 11.5031 116.507 11.4827 116.486 11.4624C116.477 11.4537 116.469 11.4448 116.46 11.4361C116.439 11.4152 116.417 11.3945 116.396 11.374C116.388 11.3671 116.381 11.3601 116.374 11.3533C116.346 11.3259 116.317 11.2985 116.288 11.2715C116.285 11.2687 116.282 11.2659 116.279 11.2632C116.253 11.2391 116.227 11.2154 116.2 11.1918C116.192 11.184 116.183 11.1762 116.174 11.1684C116.153 11.1494 116.132 11.1303 116.11 11.1115C116.101 11.1033 116.092 11.0954 116.083 11.0874C116.059 11.0669 116.035 11.0464 116.011 11.0262C116.005 11.0208 115.999 11.0155 115.993 11.0101C115.962 10.9844 115.932 10.959 115.901 10.9337C115.895 10.9289 115.889 10.9243 115.884 10.9196C115.859 10.8993 115.834 10.8791 115.809 10.8591C115.799 10.8516 115.79 10.844 115.78 10.8366C115.758 10.8188 115.735 10.8012 115.713 10.7837C115.704 10.7765 115.694 10.7691 115.685 10.7618C115.658 10.7411 115.631 10.7206 115.603 10.7001C115.599 10.6967 115.595 10.6934 115.59 10.6901C115.558 10.6662 115.526 10.6427 115.494 10.6192C115.486 10.6137 115.479 10.6083 115.471 10.6028C115.447 10.585 115.422 10.5674 115.397 10.5498C115.387 10.5426 115.377 10.5356 115.367 10.5286C115.343 10.5121 115.319 10.4956 115.295 10.4794C115.286 10.4731 115.277 10.4666 115.267 10.4603C115.235 10.4383 115.202 10.4163 115.169 10.3946C113.829 9.51279 112.224 9 110.5 9C105.806 9 102 12.7999 102 17.4873C102 20.5798 103.656 23.2858 106.132 24.7694C106.137 24.7726 106.142 24.7757 106.148 24.7789C106.226 24.8253 106.304 24.8706 106.384 24.9147C106.389 24.9174 106.394 24.92 106.399 24.9228C106.435 24.943 106.472 24.9629 106.509 24.9826C106.513 24.9846 106.516 24.9864 106.52 24.9885C106.561 25.0103 106.602 25.0316 106.644 25.0529C106.644 25.0534 106.645 25.0538 106.646 25.0543C106.685 25.0741 106.724 25.0936 106.764 25.1128C106.77 25.1157 106.776 25.1189 106.782 25.1219C106.863 25.1614 106.945 25.1997 107.028 25.2367C107.034 25.2395 107.041 25.2423 107.047 25.2449C107.084 25.2615 107.121 25.2778 107.159 25.2939C107.164 25.2959 107.168 25.298 107.173 25.2998C107.215 25.3178 107.258 25.3355 107.301 25.3529C107.303 25.354 107.306 25.3551 107.309 25.3561C107.348 25.3718 107.386 25.3871 107.426 25.4023C107.433 25.4053 107.441 25.4082 107.448 25.411C107.532 25.4432 107.617 25.4743 107.702 25.5039C107.71 25.5066 107.718 25.5092 107.725 25.512C107.763 25.5248 107.8 25.5373 107.837 25.5497C107.843 25.5518 107.85 25.5538 107.856 25.5558C107.899 25.5699 107.942 25.5838 107.986 25.5971C107.99 25.5986 107.995 25.6001 108 25.6015C108.038 25.6132 108.077 25.6247 108.115 25.6359C108.124 25.6385 108.133 25.6413 108.142 25.6439C108.228 25.6687 108.315 25.6922 108.402 25.7142C108.412 25.7166 108.421 25.719 108.431 25.7214C108.467 25.7307 108.504 25.7395 108.541 25.7482C108.549 25.7501 108.557 25.7519 108.565 25.7538C108.608 25.764 108.652 25.7738 108.696 25.7834C108.703 25.7849 108.71 25.7863 108.717 25.7878C108.755 25.7958 108.792 25.8034 108.829 25.8109C108.84 25.8132 108.851 25.8152 108.862 25.8174C108.95 25.8346 109.038 25.8503 109.127 25.8648C109.138 25.8666 109.149 25.8683 109.16 25.8701C109.197 25.8759 109.233 25.8814 109.269 25.8866C109.279 25.8879 109.288 25.8894 109.297 25.8907C109.341 25.897 109.386 25.9029 109.43 25.9084C109.439 25.9095 109.448 25.9105 109.457 25.9116C109.493 25.916 109.53 25.9203 109.567 25.9243C109.579 25.9256 109.591 25.9269 109.603 25.9282C109.647 25.9328 109.692 25.9373 109.737 25.9414C109.737 25.9414 109.737 25.9414 109.738 25.9414C109.783 25.9454 109.828 25.9489 109.873 25.9521C109.885 25.953 109.898 25.9538 109.91 25.9547C109.946 25.9571 109.983 25.9595 110.019 25.9615C110.029 25.9621 110.039 25.9626 110.049 25.9632C110.094 25.9656 110.139 25.9676 110.185 25.9691C110.195 25.9695 110.205 25.9697 110.215 25.97C110.251 25.9713 110.288 25.9723 110.325 25.973C110.338 25.9732 110.35 25.9735 110.363 25.9737C110.409 25.9745 110.454 25.975 110.5 25.975C110.684 25.975 110.866 25.9693 111.046 25.9578C111.082 25.9556 111.118 25.953 111.154 25.9502C111.442 25.9284 111.726 25.8922 112.005 25.8424C112.319 25.7863 112.627 25.7133 112.928 25.6237C112.995 25.6039 113.061 25.5832 113.128 25.5618C113.194 25.5403 113.26 25.5181 113.325 25.495C113.391 25.4719 113.456 25.4482 113.52 25.4236C113.553 25.4114 113.585 25.3988 113.617 25.3862C114.646 24.9809 115.578 24.3808 116.365 23.6312C116.389 23.6077 116.414 23.5842 116.438 23.5605C116.657 23.3471 116.864 23.1221 117.059 22.8863C117.081 22.86 117.103 22.8337 117.124 22.8073C117.166 22.7544 117.208 22.7009 117.25 22.6469C117.271 22.6199 117.291 22.5929 117.312 22.5655C117.352 22.5111 117.393 22.456 117.432 22.4007C117.472 22.3452 117.51 22.2893 117.549 22.2329C117.701 22.0072 117.844 21.7735 117.974 21.5331C117.991 21.5029 118.007 21.4727 118.023 21.4426C118.055 21.3821 118.086 21.3211 118.117 21.2596C118.178 21.1368 118.236 21.0123 118.292 20.8861C118.374 20.6969 118.451 20.5041 118.52 20.3081C118.543 20.2428 118.565 20.1769 118.587 20.1109C118.619 20.0117 118.649 19.9118 118.678 19.8112C118.688 19.7777 118.697 19.744 118.706 19.7102C118.724 19.6426 118.742 19.5749 118.758 19.5069C118.808 19.3024 118.851 19.0953 118.886 18.8853C118.897 18.8154 118.908 18.7451 118.918 18.6746C118.972 18.2867 119 17.8904 119 17.4877C119 17.4455 119 17.4033 118.999 17.3612L118.999 17.3608Z" fill="#BED62F"/>
<path d="M110.5 22.7103C113.389 22.7103 115.731 20.3719 115.731 17.4873C115.731 14.6027 113.389 12.2643 110.5 12.2643C107.611 12.2643 105.269 14.6027 105.269 17.4873C105.269 20.3719 107.611 22.7103 110.5 22.7103Z" fill="white"/>
<path opacity="0.1" d="M119 17.5126C119 14.5471 117.477 11.9369 115.169 10.4192C115.165 10.4168 115.161 10.4142 115.158 10.4118C115.142 10.4018 115.127 10.3918 115.112 10.3818C116.708 12.8609 116.883 15.9874 115.637 18.6081C115.435 19.5644 114.963 20.4751 114.219 21.2176C113.476 21.9602 112.564 22.431 111.606 22.633C108.981 23.8776 105.85 23.7028 103.367 22.1085C103.69 22.6104 104.07 23.0867 104.51 23.5259C104.976 23.9908 105.482 24.3906 106.017 24.725C107.319 25.533 108.855 26 110.5 26C115.194 26 119 22.2001 119 17.5126Z" fill="black"/>
<path d="M111.251 15.4696C111.171 15.5333 111.104 15.5882 111.05 15.6345C110.996 15.6809 110.946 15.7264 110.901 15.7715L109.126 17.5437C109.012 17.6577 109.096 17.8553 109.378 18.1365L108.959 18.5543L107.062 16.6597L107.48 16.2418C107.809 16.5707 108.031 16.6786 108.145 16.5646L109.417 15.2945L108.887 14.765L109.27 14.3512C109.65 14.7147 110.064 14.8129 110.513 14.6457L111.251 15.4695L111.251 15.4696Z" fill="url(#paint3_linear_1579_15090)"/>
<path d="M110.155 19.8759C109.979 19.7007 109.849 19.5242 109.764 19.3465C109.679 19.1687 109.63 18.9981 109.619 18.835C109.607 18.6718 109.627 18.5225 109.68 18.3873C109.733 18.2519 109.806 18.1379 109.899 18.0451C110.014 17.9309 110.137 17.8678 110.268 17.856C110.4 17.8442 110.525 17.8978 110.645 18.0171C110.764 18.1364 110.813 18.2554 110.806 18.3893C110.799 18.5234 110.744 18.642 110.641 18.7456C110.572 18.8146 110.487 18.8523 110.388 18.8592C110.288 18.8659 110.202 18.8387 110.13 18.7776C110.125 18.8202 110.129 18.8679 110.143 18.921C110.156 18.9741 110.177 19.027 110.206 19.0803C110.235 19.1333 110.269 19.1851 110.306 19.2355C110.343 19.286 110.383 19.3322 110.426 19.3748C110.545 19.4943 110.671 19.554 110.804 19.554C110.937 19.554 111.067 19.4904 111.195 19.3629C111.301 19.2567 111.382 19.1592 111.436 19.0704C111.49 18.9815 111.52 18.8953 111.524 18.8116C111.528 18.728 111.51 18.6426 111.47 18.5549C111.43 18.4674 111.37 18.373 111.29 18.2722L111.609 18.0016C111.745 18.1211 111.871 18.1834 111.988 18.1886C112.105 18.194 112.235 18.125 112.379 17.9816C112.448 17.9126 112.496 17.8482 112.524 17.7885C112.552 17.7287 112.563 17.6717 112.556 17.6174C112.549 17.563 112.529 17.5099 112.496 17.4581C112.463 17.4063 112.419 17.3526 112.363 17.2968C112.262 17.1959 112.166 17.1282 112.076 17.0938C111.985 17.0592 111.903 17.0341 111.829 17.0182C111.9 17.1005 111.939 17.1987 111.944 17.3127C111.95 17.4268 111.91 17.5263 111.825 17.6112C111.726 17.7095 111.612 17.7609 111.481 17.7659C111.351 17.7709 111.229 17.7172 111.117 17.6051C111.005 17.493 110.954 17.3745 110.964 17.2494C110.974 17.1244 111.035 17.0061 111.147 16.8946C111.237 16.8043 111.349 16.7314 111.481 16.6756C111.614 16.6199 111.762 16.5973 111.924 16.6079C112.086 16.6184 112.261 16.6682 112.448 16.7572C112.635 16.8459 112.829 16.9901 113.028 17.1891C113.166 17.3271 113.286 17.4703 113.387 17.619C113.488 17.7676 113.56 17.9148 113.602 18.0608C113.645 18.2067 113.653 18.3488 113.626 18.4866C113.6 18.6246 113.528 18.7521 113.411 18.8688C113.235 19.044 113.057 19.1348 112.875 19.1415C112.693 19.1481 112.486 19.0758 112.255 18.9247C112.462 19.174 112.562 19.4062 112.554 19.6212C112.546 19.8361 112.455 20.0298 112.283 20.2022C112.126 20.3589 111.956 20.4595 111.772 20.5047C111.589 20.5498 111.403 20.5511 111.214 20.5086C111.026 20.4662 110.84 20.3885 110.658 20.2757C110.476 20.1628 110.308 20.0294 110.154 19.8757L110.155 19.8759Z" fill="url(#paint4_linear_1579_15090)"/>
</g>
<path d="M116.366 53.1657C116.409 53.1872 120.684 55.2586 125.213 59.7969C129.366 63.9605 134.599 71.122 135.936 81.5986C135.992 82.0221 136.309 82.3836 136.752 82.471C137.304 82.5799 137.843 82.2204 137.952 81.6662C137.974 81.5568 137.976 81.4453 137.962 81.3398C137.337 76.4458 135.863 71.8242 133.576 67.5978C131.748 64.2194 129.4 61.0904 126.6 58.2956C121.829 53.5336 117.432 51.4123 117.248 51.3229L116.368 53.1643L116.366 53.1657Z" fill="#B8161C"/>
<path d="M105.971 71.0095C110.675 78.285 117.891 70.5734 117.891 70.5734C117.891 70.5734 125.629 77.7614 129.813 70.1761C133.997 62.5908 117.21 51.1355 117.21 51.1355C117.21 51.1355 101.267 63.7358 105.969 71.0092L105.971 71.0095Z" fill="url(#paint5_linear_1579_15090)"/>
<path d="M128.519 33.1526C123.815 25.8771 116.598 33.5887 116.598 33.5887C116.598 33.5887 108.863 26.4011 104.678 33.9864C100.494 41.5717 117.177 52.2878 117.177 52.2878C117.177 52.2878 133.227 40.427 128.52 33.153L128.519 33.1526Z" fill="url(#paint6_linear_1579_15090)"/>
<path d="M136.171 63.3556C143.446 58.6518 135.734 51.4359 135.734 51.4359C135.734 51.4359 142.923 43.6986 135.337 39.5146C127.751 35.3305 117.171 52.2891 117.171 52.2891C117.171 52.2891 128.897 68.0598 136.17 63.3574L136.171 63.3556Z" fill="#B8161C"/>
<path d="M98.3125 40.8102C91.0368 45.514 98.7487 52.7299 98.7487 52.7299C98.7487 52.7299 91.5609 60.4655 99.1466 64.6495C106.732 68.8352 117.17 52.2871 117.17 52.2871C117.17 52.2871 105.587 36.1042 98.311 40.808L98.3125 40.8102Z" fill="#B8161C"/>
<path d="M130.102 25.8972C130.239 26.0336 130.461 26.0336 130.597 25.8972L131.451 25.0436H132.82C133.012 25.0436 133.169 24.887 133.169 24.6951C133.169 24.5991 133.128 24.5132 133.068 24.4476C133.007 24.3819 132.916 24.3466 132.82 24.3466H131.305C131.214 24.3466 131.123 24.3819 131.057 24.4476L130.102 25.4022C129.966 25.5386 129.966 25.7608 130.102 25.8972Z" fill="#262C2F"/>
<path d="M135.952 29.5491L135.098 30.4027C134.962 30.5391 134.962 30.7614 135.098 30.8977C135.235 31.0341 135.457 31.0341 135.593 30.8977L136.548 29.9431C136.614 29.8774 136.649 29.7865 136.649 29.6956V28.1803C136.649 28.0843 136.609 27.9985 136.548 27.9328C136.488 27.8671 136.397 27.8318 136.301 27.8318C136.109 27.8318 135.952 27.9884 135.952 28.1803V29.5491Z" fill="#262C2F"/>
<path d="M136.427 24.5688C135.533 23.6747 134.902 22.6241 134.518 21.5028C134.285 21.6442 134.068 21.816 133.871 22.013C132.462 23.4222 132.462 25.7103 133.871 27.1246C135.28 28.5338 137.569 28.5338 138.983 27.1246C139.185 26.9225 139.352 26.7053 139.494 26.4781C138.372 26.0992 137.321 25.4628 136.427 24.5688Z" fill="#262C2F"/>
<path d="M134.613 26.3821C133.33 25.0991 133.219 23.0938 134.27 21.6796C134.134 21.7806 133.997 21.8917 133.876 22.0129C132.466 23.4222 132.466 25.7103 133.876 27.1246C135.285 28.5338 137.574 28.5338 138.988 27.1246C139.115 26.9983 139.221 26.867 139.322 26.7306C137.907 27.7812 135.902 27.6701 134.619 26.3871L134.613 26.3821Z" fill="#262C2F"/>
<path d="M136.427 24.5688C139.534 27.6752 144.566 27.6752 147.672 24.5688C149.961 22.2807 150.562 18.947 149.476 16.1084L138.761 22.2352C138.761 22.2352 143.03 14.7749 144.889 11.522C142.05 10.4411 138.716 11.0371 136.427 13.3253C133.32 16.4316 133.32 21.4624 136.427 24.5688Z" fill="url(#paint7_linear_1579_15090)"/>
<path d="M143.312 25.4729C139.241 26.2912 135.27 23.8415 134.118 19.932C134.143 20.1593 134.179 20.3866 134.224 20.6189C135.093 24.9224 139.286 27.7105 143.59 26.8418C147.894 25.973 150.683 21.7807 149.814 17.4772C149.768 17.2499 149.708 17.0226 149.647 16.8054C150.102 20.8563 147.389 24.6496 143.317 25.4729H143.312Z" fill="black" fill-opacity="0.2"/>
<path d="M148.172 16.8559C148.117 15.8407 147.703 14.8456 146.925 14.0678C146.147 13.2899 145.152 12.8758 144.136 12.8202L138.751 22.2353L148.167 16.8509L148.172 16.8559Z" fill="#262C2F"/>
<path d="M146.187 14.8103C146.884 15.5073 147.288 16.3862 147.405 17.2954L148.177 16.8559C148.122 15.8407 147.708 14.8456 146.93 14.0678C146.152 13.2899 145.157 12.8758 144.141 12.8202L143.702 13.593C144.611 13.7092 145.49 14.1132 146.187 14.8103Z" fill="#262C2F"/>
<path d="M140.357 15.0932C140.938 15.0932 141.408 14.6228 141.408 14.0426C141.408 13.4623 140.938 12.9919 140.357 12.9919C139.777 12.9919 139.307 13.4623 139.307 14.0426C139.307 14.6228 139.777 15.0932 140.357 15.0932Z" fill="#262C2F"/>
<path d="M146.955 21.6897C147.535 21.6897 148.006 21.2193 148.006 20.6391C148.006 20.0589 147.535 19.5885 146.955 19.5885C146.375 19.5885 145.904 20.0589 145.904 20.6391C145.904 21.2193 146.375 21.6897 146.955 21.6897Z" fill="#262C2F"/>
<path d="M142.535 23.7556C143.115 23.7556 143.585 23.2853 143.585 22.705C143.585 22.1248 143.115 21.6544 142.535 21.6544C141.954 21.6544 141.484 22.1248 141.484 22.705C141.484 23.2853 141.954 23.7556 142.535 23.7556Z" fill="#262C2F"/>
<path d="M137.963 19.1793C138.543 19.1793 139.014 18.709 139.014 18.1287C139.014 17.5485 138.543 17.0781 137.963 17.0781C137.383 17.0781 136.912 17.5485 136.912 18.1287C136.912 18.709 137.383 19.1793 137.963 19.1793Z" fill="#262C2F"/>
</g>
<defs>
<linearGradient id="paint0_linear_1579_15090" x1="-1.79567e-06" y1="85" x2="80.4321" y2="-95.1825" gradientUnits="userSpaceOnUse">
<stop offset="0.125" stop-color="#006138"/>
<stop offset="1" stop-color="#83D92E"/>
</linearGradient>
<linearGradient id="paint1_linear_1579_15090" x1="208.444" y1="-32.8114" x2="110.82" y2="70.2154" gradientUnits="userSpaceOnUse">
<stop offset="0.24" stop-color="white" stop-opacity="0"/>
<stop offset="1" stop-color="white" stop-opacity="0.7"/>
</linearGradient>
<linearGradient id="paint2_linear_1579_15090" x1="154.768" y1="-0.54909" x2="103.189" y2="-0.549088" gradientUnits="userSpaceOnUse">
<stop offset="0.24" stop-color="white" stop-opacity="0"/>
<stop offset="1" stop-color="white" stop-opacity="0.7"/>
</linearGradient>
<linearGradient id="paint3_linear_1579_15090" x1="108.115" y1="18.2609" x2="110.768" y2="10.2901" gradientUnits="userSpaceOnUse">
<stop stop-color="#00643A"/>
<stop offset="1" stop-color="#003C3A"/>
</linearGradient>
<linearGradient id="paint4_linear_1579_15090" x1="110.627" y1="20.2649" x2="113.059" y2="12.7657" gradientUnits="userSpaceOnUse">
<stop stop-color="#00643A"/>
<stop offset="1" stop-color="#003C3A"/>
</linearGradient>
<linearGradient id="paint5_linear_1579_15090" x1="106.31" y1="61.1531" x2="130.896" y2="66.002" gradientUnits="userSpaceOnUse">
<stop stop-color="#D01C46"/>
<stop offset="1" stop-color="#E63848"/>
</linearGradient>
<linearGradient id="paint6_linear_1579_15090" x1="103.661" y1="37.814" x2="128.228" y2="42.6592" gradientUnits="userSpaceOnUse">
<stop stop-color="#D01C46"/>
<stop offset="1" stop-color="#E63848"/>
</linearGradient>
<linearGradient id="paint7_linear_1579_15090" x1="142.049" y1="11" x2="142.049" y2="26.8986" gradientUnits="userSpaceOnUse">
<stop stop-color="#D01C46"/>
<stop offset="1" stop-color="#E63848"/>
</linearGradient>
<clipPath id="clip0_1579_15090">
<rect width="185" height="85" fill="white"/>
</clipPath>
<clipPath id="clip1_1579_15090">
<rect width="17" height="17" fill="white" transform="translate(102 9)"/>
</clipPath>
</defs>
</svg>
