<svg width="185" height="85" viewBox="0 0 185 85" fill="none" xmlns="http://www.w3.org/2000/svg">
<g clip-path="url(#clip0_1579_14922)">
<rect width="185" height="85" fill="url(#paint0_linear_1579_14922)"/>
<path opacity="0.9" d="M111.542 34.1918L152.747 -6.53446C161.469 -15.1552 175.736 -15.1552 184.458 -6.53446C193.181 2.08626 193.181 16.1875 184.458 24.8082L143.253 65.5345C134.531 74.1552 120.264 74.1552 111.542 65.5345C102.819 56.9137 102.819 42.8125 111.542 34.1918Z" fill="url(#paint1_linear_1579_14922)"/>
<path opacity="0.9" d="M116.074 23.1021L152.567 -13.487C155.516 -16.4438 155.517 -21.2365 152.569 -24.1918C149.622 -27.1471 144.842 -27.1459 141.893 -24.1892L105.4 12.4C102.451 15.3567 102.45 20.1495 105.398 23.1048C108.345 26.0601 113.125 26.0589 116.074 23.1021Z" fill="url(#paint2_linear_1579_14922)"/>
<g clip-path="url(#clip1_1579_14922)">
<path d="M143.256 49.8247C143.139 46.899 142.193 44.1029 140.643 41.6231L145.574 38.5708C143.525 35.3002 140.659 32.5896 137.259 30.736L134.529 35.9803C132.1 34.6771 129.364 33.937 126.625 33.937C126.457 33.937 126.293 33.937 126.128 33.9402L125.958 28.0127C121.922 28.1076 118.151 29.2621 114.909 31.2137L118.031 36.2112C115.656 37.6598 113.464 39.6494 112.059 42.0786C111.996 42.1861 111.939 42.2905 111.882 42.3917L106.812 39.6083C105.022 42.8377 104 46.5479 104 50.4985C104 50.6281 104.006 50.7547 104.009 50.8812L109.633 50.7768C109.687 53.7026 110.415 56.7264 111.914 59.241L107.195 62.0529C109.235 65.4563 112.151 68.2714 115.63 70.1976L118.366 65.5417C120.928 66.9397 123.715 67.6198 126.577 67.6198H126.698L126.755 72.9906C130.822 72.9431 134.63 71.8202 137.907 69.8877L135.181 65.1843C137.695 63.723 139.672 61.6069 141.14 59.067C141.26 58.8583 141.377 58.6464 141.488 58.4344L146.432 60.93C148.067 57.8113 148.994 54.2656 148.994 50.5016C148.994 50.198 148.984 49.8975 148.972 49.597L143.253 49.8247H143.256Z" fill="#262C2F"/>
<path d="M126.499 67.2718C135.634 67.2718 143.039 59.8669 143.039 50.7324C143.039 41.598 135.634 34.1931 126.499 34.1931C117.365 34.1931 109.96 41.598 109.96 50.7324C109.96 59.8669 117.365 67.2718 126.499 67.2718Z" fill="#262C2F"/>
<path d="M125.539 64.5863C124.666 64.5262 123.8 64.3871 122.958 64.1657L123.199 63.2484C123.98 63.454 124.79 63.5837 125.602 63.6406L125.539 64.5863ZM127.5 64.5832L127.434 63.6374C128.247 63.5805 129.053 63.4445 129.838 63.2389L130.081 64.1562C129.24 64.3776 128.373 64.5231 127.503 64.5832H127.5ZM121.098 63.5362C120.295 63.1978 119.52 62.7834 118.793 62.3026L119.318 61.5119C119.994 61.961 120.719 62.3469 121.465 62.6601L121.098 63.5362ZM131.938 63.5204L131.568 62.6474C132.314 62.3311 133.035 61.9421 133.712 61.4929L134.237 62.2837C133.51 62.7676 132.735 63.1851 131.935 63.5236L131.938 63.5204ZM117.236 61.1102C116.585 60.5314 115.984 59.8893 115.449 59.2029L116.199 58.6209C116.695 59.263 117.258 59.8608 117.866 60.3985L117.236 61.1102ZM135.794 61.0817L135.161 60.3732C135.768 59.8323 136.328 59.2314 136.822 58.5893L137.574 59.1681C137.043 59.8576 136.445 60.4997 135.794 61.0817ZM114.358 57.5708C113.925 56.8148 113.561 56.0114 113.279 55.1891L114.178 54.8822C114.44 55.6509 114.779 56.3973 115.184 57.1027L114.361 57.574L114.358 57.5708ZM138.659 57.5328L137.834 57.0647C138.235 56.3562 138.571 55.6097 138.833 54.8411L139.732 55.1448C139.45 55.9703 139.089 56.7706 138.659 57.5297V57.5328ZM112.773 53.2913C112.609 52.4373 112.527 51.5643 112.523 50.6881H113.472C113.472 51.501 113.555 52.3171 113.706 53.111L112.773 53.2881V53.2913ZM140.228 53.247L139.295 53.073C139.444 52.2791 139.52 51.463 139.52 50.647C139.52 50.4129 139.513 50.182 139.501 49.9511L140.45 49.9005C140.462 50.1472 140.469 50.394 140.469 50.6438C140.469 51.52 140.386 52.393 140.225 53.247H140.228ZM113.593 48.8599L112.653 48.7302C112.773 47.8667 112.973 47.0095 113.251 46.184L114.149 46.4876C113.89 47.2563 113.703 48.0533 113.593 48.8599ZM139.282 48.1356C139.127 47.3385 138.893 46.5509 138.593 45.7981L139.475 45.4439C139.798 46.2504 140.048 47.0949 140.216 47.9521L139.286 48.1356H139.282ZM114.855 44.8018L114.007 44.3748C114.399 43.5967 114.864 42.8502 115.395 42.1575L116.148 42.7332C115.655 43.3784 115.218 44.0743 114.855 44.7986V44.8018ZM137.796 44.1565C137.391 43.4543 136.916 42.7838 136.388 42.167L137.109 41.547C137.679 42.2081 138.185 42.9261 138.621 43.6821L137.799 44.1565H137.796ZM117.363 41.3636L116.695 40.6867C117.319 40.0731 117.999 39.5196 118.723 39.0325L119.251 39.82C118.577 40.2724 117.942 40.7911 117.363 41.3604V41.3636ZM135.101 40.8638C134.49 40.3261 133.826 39.8453 133.13 39.431L133.614 38.6149C134.364 39.0578 135.076 39.5765 135.73 40.1522L135.104 40.8638H135.101ZM120.836 38.9123L120.421 38.0583C121.206 37.6787 122.031 37.3719 122.873 37.1473L123.119 38.0646C122.335 38.2733 121.566 38.5612 120.836 38.9154V38.9123ZM131.492 38.6118C130.742 38.3018 129.958 38.0583 129.164 37.8938L129.357 36.9639C130.211 37.141 131.052 37.4003 131.856 37.7356L131.492 38.6118ZM124.913 37.7166L124.799 36.7741C125.659 36.6697 126.545 36.6444 127.412 36.7013L127.352 37.6471C126.542 37.5933 125.716 37.6186 124.913 37.7166Z" fill="white"/>
<path d="M126.78 72.9905L126.72 67.2718H126.6C123.788 67.2718 121.052 66.6044 118.537 65.2317L115.621 70.1944C118.847 71.9815 122.554 73 126.502 73C126.597 73 126.688 72.9937 126.78 72.9937V72.9905Z" fill="white"/>
<path d="M112.198 59.0448C110.728 56.5776 110.016 53.6076 109.962 50.7324L104 50.8431C104.06 54.9297 105.215 58.757 107.176 62.037L112.195 59.0479L112.198 59.0448Z" fill="white"/>
<path d="M106.827 39.5672L112.163 42.4993C112.22 42.398 112.277 42.2968 112.337 42.1893C113.716 39.8012 115.867 37.8497 118.201 36.4263L114.934 31.1947C111.553 33.2253 108.747 36.1132 106.827 39.564V39.5672Z" fill="white"/>
<path d="M146.459 60.8825L141.243 58.2509C141.136 58.4596 141.019 58.6652 140.902 58.8708C139.463 61.3664 137.521 63.4413 135.05 64.8773L137.941 69.8686C141.553 67.7304 144.511 64.6116 146.459 60.8793V60.8825Z" fill="white"/>
<path d="M140.409 41.7432C141.931 44.1787 142.861 46.9211 142.974 49.7962L148.975 49.559C148.807 45.5262 147.58 41.7685 145.562 38.5549L140.409 41.7464V41.7432Z" fill="white"/>
<path d="M134.403 36.2048L137.249 30.7328C134.058 28.99 130.395 28 126.498 28C126.324 28 126.151 28.0095 125.977 28.0127L126.154 34.1995C126.312 34.1963 126.476 34.1932 126.641 34.1963C129.333 34.1963 132.021 34.927 134.403 36.2048Z" fill="white"/>
<path d="M126.499 61.0154C132.225 61.0154 136.867 56.3734 136.867 50.6471C136.867 44.9209 132.225 40.2788 126.499 40.2788C120.773 40.2788 116.131 44.9209 116.131 50.6471C116.131 56.3734 120.773 61.0154 126.499 61.0154Z" fill="#EDEDED"/>
<g opacity="0.2">
<path d="M148.997 50.5077C148.997 62.9288 138.923 72.9998 126.502 72.9967C121.634 72.9967 116.896 71.4152 113.002 68.4926C124.487 73.2339 137.386 67.7619 142.127 56.2771C146.04 46.7975 144.126 38.5484 137.263 30.7327C143.829 34.193 149.001 41.4015 149.004 50.5077H148.997Z" fill="#262C2F"/>
</g>
</g>
<g clip-path="url(#clip2_1579_14922)">
<path d="M115.958 17.7599C115.916 16.7196 115.58 15.7255 115.029 14.8438L116.782 13.7585C116.053 12.5956 115.034 11.6318 113.825 10.9728L112.855 12.8374C111.991 12.3741 111.018 12.1109 110.044 12.1109C109.985 12.1109 109.926 12.1109 109.868 12.1121L109.807 10.0045C108.372 10.0383 107.032 10.4487 105.879 11.1426L106.989 12.9195C106.144 13.4346 105.365 14.142 104.866 15.0057C104.843 15.0439 104.823 15.0811 104.803 15.117L103 14.1274C102.363 15.2756 102 16.5948 102 17.9995C102 18.0456 102.002 18.0905 102.003 18.1355L104.003 18.0984C104.022 19.1387 104.281 20.2138 104.814 21.1079L103.136 22.1077C103.861 23.3178 104.898 24.3187 106.135 25.0036L107.108 23.3482C108.019 23.8452 109.01 24.087 110.028 24.087H110.07L110.091 25.9966C111.537 25.9798 112.891 25.5805 114.056 24.8934L113.087 23.2211C113.981 22.7015 114.683 21.9491 115.205 21.0461C115.248 20.9718 115.29 20.8965 115.329 20.8211L117.087 21.7085C117.668 20.5996 117.998 19.3389 117.998 18.0006C117.998 17.8926 117.994 17.7858 117.99 17.6789L115.957 17.7599H115.958Z" fill="#262C2F"/>
<path d="M110 23.9633C113.248 23.9633 115.88 21.3305 115.88 18.0827C115.88 14.8349 113.248 12.202 110 12.202C106.752 12.202 104.119 14.8349 104.119 18.0827C104.119 21.3305 106.752 23.9633 110 23.9633Z" fill="#262C2F"/>
<path d="M109.658 23.0085C109.348 22.9871 109.04 22.9376 108.74 22.8589L108.826 22.5328C109.104 22.6059 109.392 22.652 109.681 22.6722L109.658 23.0085ZM110.355 23.0074L110.332 22.6711C110.621 22.6508 110.908 22.6025 111.186 22.5294L111.273 22.8555C110.974 22.9343 110.666 22.986 110.356 23.0074H110.355ZM108.079 22.6351C107.793 22.5148 107.518 22.3674 107.259 22.1965L107.446 21.9153C107.687 22.075 107.944 22.2122 108.21 22.3236L108.079 22.6351ZM111.933 22.6295L111.802 22.3191C112.067 22.2066 112.323 22.0683 112.564 21.9086L112.751 22.1898C112.492 22.3618 112.217 22.5103 111.932 22.6306L111.933 22.6295ZM106.706 21.7725C106.474 21.5667 106.261 21.3384 106.071 21.0944L106.337 20.8874C106.514 21.1157 106.714 21.3283 106.93 21.5195L106.706 21.7725ZM113.304 21.7624L113.079 21.5105C113.295 21.3182 113.494 21.1045 113.67 20.8762L113.937 21.082C113.748 21.3272 113.536 21.5555 113.304 21.7624ZM105.683 20.5141C105.528 20.2453 105.399 19.9596 105.299 19.6672L105.618 19.5581C105.712 19.8314 105.832 20.0968 105.976 20.3476L105.684 20.5152L105.683 20.5141ZM114.323 20.5006L114.029 20.3341C114.172 20.0822 114.292 19.8168 114.385 19.5435L114.704 19.6515C114.604 19.945 114.476 20.2295 114.323 20.4994V20.5006ZM105.119 18.9925C105.061 18.6888 105.031 18.3784 105.03 18.0669H105.368C105.368 18.3559 105.397 18.6461 105.451 18.9284L105.119 18.9913V18.9925ZM114.881 18.9767L114.549 18.9149C114.602 18.6326 114.629 18.3424 114.629 18.0523C114.629 17.969 114.627 17.887 114.622 17.8049L114.96 17.7869C114.964 17.8746 114.966 17.9623 114.966 18.0511C114.966 18.3627 114.937 18.6731 114.88 18.9767H114.881ZM105.41 17.4169L105.076 17.3707C105.119 17.0637 105.19 16.759 105.289 16.4654L105.608 16.5734C105.516 16.8467 105.45 17.1301 105.41 17.4169ZM114.545 17.1593C114.489 16.8759 114.406 16.5959 114.299 16.3282L114.613 16.2023C114.728 16.489 114.817 16.7893 114.876 17.0941L114.546 17.1593H114.545ZM105.859 15.974L105.558 15.8221C105.697 15.5455 105.862 15.2801 106.051 15.0338L106.319 15.2385C106.144 15.4679 105.988 15.7153 105.859 15.9728V15.974ZM114.016 15.7445C113.872 15.4949 113.703 15.2565 113.516 15.0372L113.772 14.8167C113.974 15.0518 114.154 15.3071 114.31 15.5759L114.017 15.7445H114.016ZM106.751 14.7515L106.514 14.5108C106.735 14.2927 106.977 14.0958 107.235 13.9227L107.422 14.2027C107.183 14.3635 106.957 14.5479 106.751 14.7504V14.7515ZM113.058 14.5738C112.841 14.3826 112.605 14.2117 112.357 14.0644L112.529 13.7742C112.796 13.9317 113.049 14.1161 113.282 14.3208L113.059 14.5738H113.058ZM107.986 13.8799L107.838 13.5763C108.117 13.4413 108.411 13.3322 108.71 13.2524L108.798 13.5785C108.519 13.6527 108.246 13.7551 107.986 13.881V13.8799ZM111.775 13.7731C111.508 13.6629 111.229 13.5763 110.947 13.5178L111.016 13.1872C111.319 13.2501 111.618 13.3424 111.904 13.4616L111.775 13.7731ZM109.435 13.4548L109.395 13.1197C109.701 13.0826 110.016 13.0736 110.324 13.0938L110.303 13.4301C110.015 13.411 109.721 13.42 109.435 13.4548Z" fill="white"/>
<path d="M110.1 25.9966L110.078 23.9633H110.035C109.036 23.9633 108.063 23.726 107.169 23.2379L106.132 25.0024C107.279 25.6379 108.597 26 110.001 26C110.034 26 110.067 25.9977 110.1 25.9977V25.9966Z" fill="white"/>
<path d="M104.915 21.0381C104.392 20.1609 104.139 19.1049 104.12 18.0826L102 18.122C102.021 19.575 102.432 20.9358 103.129 22.102L104.914 21.0393L104.915 21.0381Z" fill="white"/>
<path d="M103.005 14.1127L104.903 15.1553C104.923 15.1193 104.943 15.0833 104.964 15.0451C105.455 14.196 106.22 13.5021 107.05 12.996L105.888 11.1359C104.686 11.8579 103.688 12.8847 103.005 14.1116V14.1127Z" fill="white"/>
<path d="M117.097 21.6915L115.242 20.7559C115.204 20.8301 115.162 20.9032 115.121 20.9763C114.609 21.8636 113.918 22.6014 113.04 23.1119L114.068 24.8866C115.352 24.1264 116.404 23.0175 117.097 21.6904V21.6915Z" fill="white"/>
<path d="M114.945 14.8864C115.486 15.7524 115.817 16.7274 115.857 17.7497L117.991 17.6654C117.931 16.2315 117.495 14.8954 116.777 13.7528L114.945 14.8876V14.8864Z" fill="white"/>
<path d="M112.81 12.9173L113.822 10.9717C112.687 10.352 111.385 10 110 10C109.938 10 109.876 10.0034 109.814 10.0045L109.877 12.2043C109.933 12.2031 109.992 12.202 110.05 12.2031C111.007 12.2031 111.963 12.4629 112.81 12.9173Z" fill="white"/>
<path d="M110 21.7389C112.036 21.7389 113.687 20.0884 113.687 18.0524C113.687 16.0164 112.036 14.3658 110 14.3658C107.964 14.3658 106.313 16.0164 106.313 18.0524C106.313 20.0884 107.964 21.7389 110 21.7389Z" fill="#EDEDED"/>
<g opacity="0.2">
<path d="M117.999 18.0028C117.999 22.4192 114.417 26 110.001 25.9989C108.27 25.9989 106.585 25.4366 105.201 24.3974C109.284 26.0832 113.87 24.1376 115.556 20.0541C116.947 16.6836 116.267 13.7506 113.827 10.9717C116.161 12.202 118 14.765 118.001 18.0028H117.999Z" fill="#262C2F"/>
</g>
</g>
</g>
<defs>
<linearGradient id="paint0_linear_1579_14922" x1="-1.79567e-06" y1="85" x2="80.4321" y2="-95.1825" gradientUnits="userSpaceOnUse">
<stop offset="0.125" stop-color="#006138"/>
<stop offset="1" stop-color="#83D92E"/>
</linearGradient>
<linearGradient id="paint1_linear_1579_14922" x1="208.444" y1="-32.8114" x2="110.82" y2="70.2154" gradientUnits="userSpaceOnUse">
<stop offset="0.24" stop-color="white" stop-opacity="0"/>
<stop offset="1" stop-color="white" stop-opacity="0.7"/>
</linearGradient>
<linearGradient id="paint2_linear_1579_14922" x1="154.768" y1="-0.54909" x2="103.189" y2="-0.549088" gradientUnits="userSpaceOnUse">
<stop offset="0.24" stop-color="white" stop-opacity="0"/>
<stop offset="1" stop-color="white" stop-opacity="0.7"/>
</linearGradient>
<clipPath id="clip0_1579_14922">
<rect width="185" height="85" fill="white"/>
</clipPath>
<clipPath id="clip1_1579_14922">
<rect width="45" height="45" fill="white" transform="translate(104 28)"/>
</clipPath>
<clipPath id="clip2_1579_14922">
<rect width="16" height="16" fill="white" transform="translate(102 10)"/>
</clipPath>
</defs>
</svg>
