<svg width="185" height="85" viewBox="0 0 185 85" fill="none" xmlns="http://www.w3.org/2000/svg">
<g clip-path="url(#clip0_1579_15261)">
<rect width="185" height="85" fill="url(#paint0_linear_1579_15261)"/>
<path opacity="0.9" d="M121.542 34.1918L162.747 -6.53446C171.469 -15.1552 185.736 -15.1552 194.458 -6.53446C203.181 2.08626 203.181 16.1875 194.458 24.8082L153.253 65.5345C144.531 74.1552 130.264 74.1552 121.542 65.5345C112.819 56.9137 112.819 42.8125 121.542 34.1918Z" fill="url(#paint1_linear_1579_15261)"/>
<path opacity="0.9" d="M126.074 23.1021L162.567 -13.487C165.516 -16.4438 165.517 -21.2365 162.569 -24.1918C159.622 -27.1471 154.842 -27.1459 151.893 -24.1892L115.4 12.4C112.451 15.3567 112.45 20.1495 115.398 23.1048C118.345 26.0601 123.125 26.0589 126.074 23.1021Z" fill="url(#paint2_linear_1579_15261)"/>
<path d="M150.073 34.6514C157.441 34.6514 163.414 28.6666 163.414 21.284C163.414 13.9014 157.441 7.91663 150.073 7.91663C142.704 7.91663 136.731 13.9014 136.731 21.284C136.731 28.6666 142.704 34.6514 150.073 34.6514Z" fill="url(#paint3_linear_1579_15261)"/>
<path d="M127.714 43.8009H172.283V70.0707C172.283 71.6864 170.975 72.997 169.362 72.997H130.634C129.022 72.997 127.714 71.6864 127.714 70.0707V43.8009Z" fill="url(#paint4_linear_1579_15261)"/>
<path d="M146.572 43.8009V45.5183C146.572 47.4159 148.106 48.9532 150 48.9532C151.894 48.9532 153.428 47.4159 153.428 45.5183V43.8009H146.572Z" fill="url(#paint5_linear_1579_15261)"/>
<path d="M153.428 43.8009V45.5183C153.428 47.4159 154.962 48.9532 156.856 48.9532C158.75 48.9532 160.285 47.4159 160.285 45.5183V43.8009H153.428Z" fill="url(#paint6_linear_1579_15261)"/>
<path d="M160.285 43.8009V45.5183C160.285 47.4159 161.819 48.9532 163.713 48.9532C165.607 48.9532 167.141 47.4159 167.141 45.5183V43.8009H160.285Z" fill="url(#paint7_linear_1579_15261)"/>
<path d="M139.712 43.8009V45.5183C139.712 47.4159 141.247 48.9532 143.141 48.9532C145.034 48.9532 146.569 47.4159 146.569 45.5183V43.8009H139.712Z" fill="url(#paint8_linear_1579_15261)"/>
<path d="M132.856 43.8009V45.5183C132.856 47.4159 134.391 48.9532 136.285 48.9532C138.179 48.9532 139.713 47.4159 139.713 45.5183V43.8009H132.856Z" fill="url(#paint9_linear_1579_15261)"/>
<path d="M132.856 55.8258H149.997V73H132.856V55.8258Z" fill="#F2F2F2"/>
<path d="M150 55.8258H167.141V73H150V55.8258Z" fill="#F2F2F2"/>
<path d="M167.141 55.8258H168.855V52.391H131.142V55.8258H167.141Z" fill="#BED62F"/>
<path d="M173.997 43.8009H126L130.287 36.9313H169.713L174 43.8009H173.997Z" fill="url(#paint10_linear_1579_15261)"/>
<path d="M129.428 48.9532C131.322 48.9532 132.856 47.4159 132.856 45.5183V43.8009H126V45.5183C126 47.4159 127.534 48.9532 129.428 48.9532Z" fill="url(#paint11_linear_1579_15261)"/>
<path d="M167.141 45.5183C167.141 47.4159 168.675 48.9532 170.569 48.9532C172.463 48.9532 173.997 47.4159 173.997 45.5183V43.8009H167.141V45.5183Z" fill="url(#paint12_linear_1579_15261)"/>
<path d="M150 55.8258L132.856 73H150V55.8258Z" fill="#DADDE1"/>
<path d="M167.141 55.8258L150 73H167.141V55.8258Z" fill="#DADDE1"/>
<path fill-rule="evenodd" clip-rule="evenodd" d="M149.975 41.3226C150.607 41.3226 151.174 40.9441 151.42 40.3599H151.429L158.31 24.258C158.606 23.3694 158.77 22.4149 158.77 21.4276C158.77 16.532 154.812 12.5662 149.926 12.5662C145.04 12.5662 141.082 16.532 141.082 21.4276C141.082 22.4231 141.246 23.3694 141.541 24.258L148.53 40.3681C148.784 40.9441 149.343 41.3226 149.975 41.3226ZM151.509 21.2979C151.509 22.1003 150.86 22.7508 150.059 22.7508C149.258 22.7508 148.609 22.1003 148.609 21.2979C148.609 20.4954 149.258 19.8449 150.059 19.8449C150.86 19.8449 151.509 20.4954 151.509 21.2979Z" fill="url(#paint13_linear_1579_15261)"/>
<path fill-rule="evenodd" clip-rule="evenodd" d="M153.588 21.2054C153.588 23.2367 151.945 24.8833 149.917 24.8833C147.89 24.8833 146.247 23.2367 146.247 21.2054C146.247 19.1742 147.89 17.5276 149.917 17.5276C151.945 17.5276 153.588 19.1742 153.588 21.2054ZM151.116 21.0985C151.116 21.7619 150.579 22.2997 149.917 22.2997C149.255 22.2997 148.718 21.7619 148.718 21.0985C148.718 20.435 149.255 19.8972 149.917 19.8972C150.579 19.8972 151.116 20.435 151.116 21.0985Z" fill="#262C2F"/>
</g>
<defs>
<linearGradient id="paint0_linear_1579_15261" x1="-5.63139" y1="85.3914" x2="19.071" y2="-85.6313" gradientUnits="userSpaceOnUse">
<stop stop-color="#44546A"/>
<stop offset="1" stop-color="#262C2F"/>
</linearGradient>
<linearGradient id="paint1_linear_1579_15261" x1="218.444" y1="-32.8114" x2="120.82" y2="70.2154" gradientUnits="userSpaceOnUse">
<stop offset="0.24" stop-color="white" stop-opacity="0"/>
<stop offset="1" stop-color="white" stop-opacity="0.7"/>
</linearGradient>
<linearGradient id="paint2_linear_1579_15261" x1="164.768" y1="-0.54909" x2="113.189" y2="-0.549088" gradientUnits="userSpaceOnUse">
<stop offset="0.24" stop-color="white" stop-opacity="0"/>
<stop offset="1" stop-color="white" stop-opacity="0.7"/>
</linearGradient>
<linearGradient id="paint3_linear_1579_15261" x1="150.073" y1="7.91663" x2="150.073" y2="34.6514" gradientUnits="userSpaceOnUse">
<stop stop-color="#FFBB00"/>
<stop offset="1" stop-color="#FFD80E"/>
</linearGradient>
<linearGradient id="paint4_linear_1579_15261" x1="138.918" y1="70.9586" x2="151.685" y2="12.2302" gradientUnits="userSpaceOnUse">
<stop stop-color="#00643A"/>
<stop offset="1" stop-color="#003C3A"/>
</linearGradient>
<linearGradient id="paint5_linear_1579_15261" x1="150" y1="43.8009" x2="150" y2="48.9532" gradientUnits="userSpaceOnUse">
<stop stop-color="#D01C46"/>
<stop offset="1" stop-color="#E63848"/>
</linearGradient>
<linearGradient id="paint6_linear_1579_15261" x1="156.856" y1="43.8009" x2="156.856" y2="48.9532" gradientUnits="userSpaceOnUse">
<stop stop-color="#D01C46"/>
<stop offset="1" stop-color="#E63848"/>
</linearGradient>
<linearGradient id="paint7_linear_1579_15261" x1="163.713" y1="43.8009" x2="163.713" y2="48.9532" gradientUnits="userSpaceOnUse">
<stop stop-color="#D01C46"/>
<stop offset="1" stop-color="#E63848"/>
</linearGradient>
<linearGradient id="paint8_linear_1579_15261" x1="143.141" y1="43.8009" x2="143.141" y2="48.9532" gradientUnits="userSpaceOnUse">
<stop stop-color="#D01C46"/>
<stop offset="1" stop-color="#E63848"/>
</linearGradient>
<linearGradient id="paint9_linear_1579_15261" x1="136.285" y1="43.8009" x2="136.285" y2="48.9532" gradientUnits="userSpaceOnUse">
<stop stop-color="#D01C46"/>
<stop offset="1" stop-color="#E63848"/>
</linearGradient>
<linearGradient id="paint10_linear_1579_15261" x1="150" y1="36.9313" x2="150" y2="43.8009" gradientUnits="userSpaceOnUse">
<stop stop-color="#FFBB00"/>
<stop offset="1" stop-color="#FFD80E"/>
</linearGradient>
<linearGradient id="paint11_linear_1579_15261" x1="129.428" y1="43.8009" x2="129.428" y2="48.9532" gradientUnits="userSpaceOnUse">
<stop stop-color="#D01C46"/>
<stop offset="1" stop-color="#E63848"/>
</linearGradient>
<linearGradient id="paint12_linear_1579_15261" x1="170.569" y1="43.8009" x2="170.569" y2="48.9532" gradientUnits="userSpaceOnUse">
<stop stop-color="#D01C46"/>
<stop offset="1" stop-color="#E63848"/>
</linearGradient>
<linearGradient id="paint13_linear_1579_15261" x1="149.926" y1="12.5662" x2="149.926" y2="41.3226" gradientUnits="userSpaceOnUse">
<stop stop-color="#D01C46"/>
<stop offset="1" stop-color="#E63848"/>
</linearGradient>
<clipPath id="clip0_1579_15261">
<rect width="185" height="85" fill="white"/>
</clipPath>
</defs>
</svg>
