<svg width="197" height="33" viewBox="0 0 197 33" fill="none" xmlns="http://www.w3.org/2000/svg">
<mask id="mask0_7494_56998" style="mask-type:alpha" maskUnits="userSpaceOnUse" x="0" y="0" width="197" height="33">
<path d="M0 0H197V32.0325H0V0Z" fill="white"/>
</mask>
<g mask="url(#mask0_7494_56998)">
<path fill-rule="evenodd" clip-rule="evenodd" d="M96.4152 1.549C98.1267 2.29554 99.0744 3.55553 99.0227 5.46917C99.0075 6.03161 99.2668 5.82893 99.5553 5.71295C103.242 4.23057 106.908 4.27843 110.546 5.88748C111.205 6.17968 111.797 6.58673 112.352 7.04614C112.533 7.19477 112.676 7.32314 112.926 7.10976C115.234 5.14151 117.986 4.61623 120.915 4.6759C122.298 4.70405 123.649 4.91518 124.926 5.45341C125.444 5.67129 125.468 5.48494 125.463 5.05255C125.452 4.09095 125.391 3.12371 125.863 2.21897C126.491 1.01527 127.458 0.233262 128.794 0.103772C130.358 -0.0488016 131.952 -0.0893377 133.48 0.37739C136.466 1.28945 137.812 3.50599 138.136 6.34633C138.194 6.85078 138.145 7.36705 138.145 8.05278C139.058 7.25163 139.852 6.5766 140.795 6.11212C144.891 4.09601 148.925 4.14387 152.866 6.51579C153.317 6.78772 153.442 6.73311 153.665 6.27877C155.276 3.00548 159.109 1.0102 162.47 1.65878C163.98 1.95042 165.084 3.12315 165.469 4.90786C166.399 3.83591 167.433 2.95875 168.678 2.35521C170.155 1.63964 171.708 1.36321 173.326 1.63851C174.992 1.9217 175.968 2.9869 176.368 4.5847C176.46 4.9529 176.564 5.08689 176.964 5.09196C177.79 5.10266 178.562 5.36445 179.206 5.89199C179.515 6.14421 179.737 6.14309 180.102 5.97587C184.477 3.97722 188.72 4.15738 192.636 7.05346C195.341 9.05493 196.77 11.8559 196.97 15.231C197.182 18.8219 196.313 22.0574 193.658 24.6377C191.634 26.6037 189.139 27.4977 186.366 27.7038C183.712 27.9014 181.23 27.3772 178.975 25.9179C178.75 25.7716 178.585 25.6398 178.278 25.8774C176.147 27.5287 173.704 27.8091 171.124 27.4257C169.884 27.2416 168.732 26.8125 167.688 26.1262C167.384 25.9269 167.198 25.9816 166.922 26.1612C163.339 28.492 158.198 27.9357 155.212 24.8786C154.884 24.5425 154.745 24.5504 154.398 24.8561C151.703 27.2314 148.499 27.9622 145 27.6728C143.149 27.5208 141.464 26.8779 139.906 25.8909C139.689 25.7535 139.556 25.7181 139.336 25.9005C136.416 28.3163 131.576 27.9909 128.792 25.8065C128.35 25.4591 128.087 25.4371 127.63 25.7952C125.859 27.1858 123.751 27.5861 121.567 27.71C119.228 27.8417 116.942 27.6525 114.815 26.5598C114.554 26.4258 114.397 26.5277 114.211 26.6611C113.488 27.1779 112.681 27.3789 111.796 27.335C110.388 27.2652 108.966 27.4831 107.573 27.0704C106.921 26.8767 106.3 26.6318 105.735 26.2636C105.457 26.0829 105.287 26.0283 105.001 26.3042C104.261 27.0158 103.364 27.3784 102.313 27.3356C100.992 27.2821 99.6554 27.4746 98.3624 27.0541C97.9366 26.9161 97.4793 26.8199 97.1053 26.5913C96.6143 26.2912 96.2358 26.2912 95.7307 26.5913C94.567 27.2843 93.2464 27.5371 91.9184 27.5596C89.9903 27.5923 88.0572 27.7179 86.1342 27.3525C83.0087 26.7574 80.5182 25.284 78.9709 22.4178C78.9079 22.3001 78.823 22.1942 78.6233 21.8975C78.6233 22.4859 78.6126 22.8862 78.6255 23.2865C78.702 25.7226 76.7087 27.4093 74.5692 27.3632C72.5646 27.3192 70.6112 27.2568 68.8986 26.057C68.6753 25.901 68.5437 25.9861 68.3671 26.106C64.7471 28.5539 57.824 28.4362 54.1006 25.0453C53.821 24.7908 53.6804 24.7891 53.3986 25.0458C51.4785 26.7962 49.2045 27.6936 46.6077 27.7359C46.1571 27.7426 45.9513 27.8344 45.9985 28.327C46.1774 30.199 44.4974 32.0828 42.2509 32.0316C40.7931 31.9978 39.333 32.0912 37.9263 31.5536C35.7974 30.74 34.515 29.2036 34.0505 27.0057C33.9115 26.3498 33.7602 26.365 33.2169 26.6397C28.773 28.8895 23.6491 28.211 19.9139 24.9028C19.5708 24.5988 19.3852 24.5031 18.9769 24.8798C16.9757 26.727 14.5183 27.5062 11.8585 27.697C9.50638 27.8654 7.18122 27.7162 5.00005 26.6943C2.10345 25.3369 0.57584 23.0601 0.507221 19.8454C0.489223 19.015 0.498222 18.1806 0.563466 17.3536C0.592151 16.9859 0.704078 16.5592 0.930744 16.2861C1.42626 15.6899 1.21647 15.2446 0.913871 14.6371C-0.858963 11.0806 -0.0602879 6.36716 3.37852 3.46095C6.38873 0.917871 9.91978 0.256345 13.7399 0.781625C15.9475 1.08508 17.9667 1.81473 19.559 3.45025C20.9089 4.83692 21.5506 6.51523 21.5371 8.44858C21.5332 8.98793 21.3931 9.58358 21.5754 10.0531C21.802 10.6392 22.5175 10.284 23.004 10.4337C24.3432 10.8475 25.4383 11.5417 26.2628 12.6801C27.1841 13.9513 28.4834 13.9964 29.4558 12.7612C30.3608 11.6115 31.4396 10.767 32.8879 10.4202C33.4689 10.2811 34.0499 10.2963 34.6303 10.311C35.0139 10.3211 35.2333 10.1989 35.4301 9.86509C37.1349 6.9752 39.7137 5.33405 42.9686 4.73277C46.4204 4.09545 49.6803 4.55148 52.6084 6.62333C53.0792 6.95606 53.5055 7.59957 53.9718 7.61815C54.3947 7.63504 54.8256 6.96844 55.284 6.64866C59.1536 3.94794 64.593 3.96033 68.4615 6.67568C68.7118 6.85134 68.8755 6.98477 69.1955 6.72692C71.8964 4.5481 74.9533 4.19904 78.2279 5.02891C78.4135 5.07563 78.5985 5.26987 78.7853 4.93883C80.1655 2.4909 82.3624 1.46004 85.0864 1.37165C85.2422 1.24948 85.4272 1.2765 85.6033 1.27594C88.9172 1.27313 92.2311 1.27538 95.5445 1.272C95.8696 1.27144 96.1666 1.32605 96.4152 1.549Z" fill="#FEFEFE"/>
</g>
<path fill-rule="evenodd" clip-rule="evenodd" d="M94.9433 4.91335C95.3432 4.79681 95.5097 4.91166 95.4917 5.36094C95.4647 6.03372 95.5232 6.71664 95.2954 7.36241C94.9062 8.46645 93.9326 9.0531 92.4359 9.07168C90.7722 9.09251 89.108 9.09926 87.4454 9.0683C86.924 9.05817 86.6607 9.14993 86.6726 9.74109C86.6849 10.3677 86.6225 10.9977 86.5539 11.6221C86.5027 12.0899 86.6478 12.2369 87.1332 12.2296C89.1113 12.202 91.09 12.2419 93.0676 12.2031C93.6469 12.1924 93.828 12.3703 93.7526 12.9192C93.7161 13.1838 93.7183 13.4608 93.7487 13.7266C93.9343 15.3508 92.6986 16.1148 91.4292 16.1525C89.9915 16.1953 88.5523 16.1942 87.1135 16.1801C86.6838 16.1756 86.4875 16.2815 86.5528 16.7403C86.5871 16.9824 86.5499 17.2352 86.5702 17.4807C86.6686 18.686 87.3661 19.423 88.6158 19.4697C90.7464 19.5491 92.8865 19.6477 94.9872 19.1331C95.3387 19.0469 95.4805 19.0908 95.4619 19.4866C95.4327 20.1149 95.4698 20.7461 95.431 21.3733C95.3663 22.4187 94.7403 23.0578 93.7982 23.3787C93.2504 23.5656 92.6778 23.7063 92.0827 23.6872C90.2019 23.6264 88.3127 23.8814 86.4425 23.4417C83.3356 22.7104 81.8541 20.5772 81.6049 17.9344C81.2821 14.5108 81.3203 11.0664 81.831 7.64728C82.0847 5.94702 83.2281 4.95839 84.9565 4.92123C85.0988 5.01525 85.2597 4.98373 85.4144 4.98373C88.4392 4.98598 91.464 4.98598 94.4894 4.98373C94.643 4.98373 94.805 5.01976 94.9433 4.91335Z" fill="#459F36"/>
<path fill-rule="evenodd" clip-rule="evenodd" d="M39.7136 10.8538C42.4662 8.55899 46.3134 8.10239 49.4006 9.76268C51.5779 10.9326 52.6763 12.8603 52.858 15.2683C53.0779 18.1767 52.4677 20.8527 49.9985 22.7157C48.3039 23.9942 46.3589 24.3044 44.3189 23.621C43.5905 23.3766 43.0292 22.8553 42.4701 22.2619C42.4701 23.8445 42.4741 25.4276 42.4685 27.0102C42.4645 28.0698 42.595 27.9487 41.5455 27.9516C41.1422 27.9533 40.7384 27.9122 40.3345 27.9122C38.7141 27.9138 37.7383 26.7777 37.7135 25.1056C37.668 22.0282 37.6635 18.9486 37.722 15.8707C37.7535 14.2476 38.3165 12.7533 39.2513 11.4128C39.2951 11.1353 39.542 11.0261 39.7136 10.8538Z" fill="#FCC300"/>
<path fill-rule="evenodd" clip-rule="evenodd" d="M17.4751 10.5798C15.4525 9.10131 13.1836 8.74437 10.7572 9.10413C10.3978 9.15761 10.0524 9.25726 9.73465 9.43067C9.23295 9.70372 9.01697 10.1468 9.01697 10.7098C9.01697 11.2604 9.33981 11.5656 9.80158 11.775C11.0221 12.329 12.3557 12.4619 13.6335 12.8014C14.5498 13.0451 15.4289 13.3683 16.2309 13.8902C17.3789 14.6373 18.0116 15.6873 18.1719 17.0413C18.4976 19.7848 17.0853 22.1804 14.4592 23.1583C11.9288 24.1002 9.35106 24.1374 6.8268 23.1482C5.28176 22.543 4.46789 21.3443 4.4932 19.6384C4.50164 19.1013 4.49489 18.5642 4.49489 18.0395C4.75756 17.9387 4.84248 18.1465 4.98197 18.2383C7.15808 19.6621 9.52036 20.0978 12.0525 19.5168C12.8275 19.3389 13.1858 18.8637 13.2185 18.1482C13.2528 17.4084 12.8326 16.998 12.1948 16.7328C11.1076 16.2801 9.94445 16.1287 8.81224 15.8545C7.8049 15.6107 6.83411 15.2848 5.93138 14.76C3.47855 13.3328 3.65853 9.77241 4.98028 7.94209C6.21542 6.23226 7.92976 5.33708 9.95569 5.03475C11.7763 4.76395 13.5959 4.83038 15.3164 5.59438C16.3018 6.03183 17.137 6.64944 17.4666 7.75349C17.6488 8.47638 17.61 9.21335 17.6055 9.94806C17.6039 10.1631 17.6719 10.4013 17.4751 10.5798Z" fill="#FCC300"/>
<path fill-rule="evenodd" clip-rule="evenodd" d="M193.381 15.8729C193.325 20.7919 190.27 23.8107 185.384 23.7741C180.741 23.7403 177.517 20.4969 177.571 15.9169C177.626 11.2952 181.088 7.97628 185.775 8.05003C190.168 8.11985 193.431 11.4765 193.381 15.8729Z" fill="#459F36"/>
<path fill-rule="evenodd" clip-rule="evenodd" d="M154.551 16.3052C154.322 21.567 150.589 23.9536 146.056 23.7554C141.654 23.5634 138.43 20.0092 138.764 15.6178C139.136 10.7169 142.722 7.68622 147.655 8.0837C151.792 8.417 154.884 12.103 154.551 16.3052Z" fill="#459F36"/>
<path fill-rule="evenodd" clip-rule="evenodd" d="M112.095 18.6158C112.095 20.0779 112.082 21.5389 112.102 23.0005C112.109 23.412 112.039 23.6068 111.562 23.5753C110.601 23.5111 109.63 23.6372 108.672 23.4374C107.728 23.2414 107.227 22.7443 107.045 21.7956C106.89 20.9939 106.949 20.1826 106.926 19.3747C106.876 17.6232 107.062 15.8661 106.815 14.1214C106.652 12.9757 105.942 12.3749 104.743 12.3164C103.483 12.2545 102.634 12.8265 102.353 13.9238C102.241 14.3623 102.202 14.8065 102.203 15.2598C102.207 17.8231 102.189 20.387 102.218 22.9498C102.224 23.47 102.071 23.6051 101.572 23.5753C100.744 23.5252 99.9136 23.5894 99.0885 23.4171C97.9799 23.1863 97.1475 22.4042 97.0856 21.2777C96.9461 18.7633 96.8078 16.2264 97.1402 13.7346C97.5108 10.9573 99.2572 9.17371 101.956 8.44068C104.063 7.86867 106.2 7.9154 108.259 8.68672C110.702 9.60216 111.831 11.5445 112.029 14.0313C112.15 15.5508 112.052 17.0873 112.052 18.6158H112.095Z" fill="#459F36"/>
<path fill-rule="evenodd" clip-rule="evenodd" d="M114.395 13.6742C114.344 12.0848 114.138 10.6238 115.401 9.5316C116.22 8.82222 117.198 8.44332 118.252 8.24571C120.022 7.91466 121.796 7.87694 123.514 8.44951C125.775 9.20281 127.064 10.8254 127.324 13.1905C127.575 15.4746 127.582 17.7672 127.139 20.035C126.747 22.0471 125.462 23.226 123.496 23.6106C121.408 24.0199 119.312 24.0987 117.241 23.4101C114.113 22.3697 112.805 19.0261 114.548 16.4616C115.316 15.3316 116.474 14.8238 117.738 14.4984C119.097 14.1488 120.487 14.0722 121.881 14.0942C122.301 14.1009 122.43 13.9686 122.417 13.5616C122.389 12.6512 122.017 12.1507 121.033 12.0567C118.7 11.8326 116.379 11.7538 114.395 13.6742Z" fill="#459F36"/>
<path fill-rule="evenodd" clip-rule="evenodd" d="M62.011 17.968C61.1297 17.968 60.4536 18.0018 59.782 17.9579C59.133 17.9157 59.1796 18.2152 59.3979 18.6211C59.9226 19.5957 60.8293 19.9627 61.8547 20.0185C63.6309 20.1148 65.4071 20.1159 67.059 19.2888C67.3936 19.1211 67.4189 19.3001 67.4403 19.5754C67.6001 21.6563 66.7783 22.8583 64.7153 23.4427C62.7203 24.0073 60.6994 24.0282 58.755 23.3047C55.9135 22.2468 54.5361 20.0737 54.2537 17.0954C53.9511 13.8992 55.5277 10.747 58.2482 9.28768C60.7461 7.9483 64.479 8.34578 66.6135 10.1795C68.0877 11.4457 68.7767 13.8075 68.1726 15.6428C67.7918 16.7992 66.8256 17.2615 65.7485 17.5554C64.4571 17.9084 63.1241 17.8836 62.011 17.968Z" fill="#FCC300"/>
<path fill-rule="evenodd" clip-rule="evenodd" d="M167.265 13.8524C167.265 12.2558 167.304 10.6574 167.255 9.06243C167.187 6.79917 169.864 4.70649 171.902 4.77405C172.238 4.78531 172.315 4.91143 172.31 5.21714C172.295 6.11625 172.323 7.01649 172.296 7.9156C172.284 8.32772 172.411 8.4589 172.829 8.4482C173.953 8.42118 175.078 8.45665 176.202 8.42906C176.626 8.41949 176.765 8.56249 176.725 8.9701C176.695 9.28257 176.718 9.59954 176.718 9.91425C176.716 11.4484 175.801 12.4427 174.262 12.5525C173.769 12.5879 173.272 12.5789 172.778 12.5632C172.444 12.5525 172.294 12.6448 172.298 13.0153C172.314 14.6789 172.286 16.3437 172.316 18.0074C172.334 19.005 172.92 19.563 173.955 19.5776C174.669 19.5883 175.399 19.5956 176.084 19.3338C176.357 19.2297 176.45 19.282 176.444 19.572C176.434 20.2465 176.477 20.9249 176.421 21.5948C176.374 22.1528 176.042 22.5947 175.594 22.9303C173.963 24.1526 169.464 24.1554 167.985 21.4158C167.528 20.5679 167.279 19.6688 167.272 18.7106C167.261 17.0914 167.269 15.4716 167.269 13.8524H167.265Z" fill="#459F36"/>
<path fill-rule="evenodd" clip-rule="evenodd" d="M165.521 19.2373C165.521 20.0593 165.595 20.848 165.502 21.6177C165.392 22.5331 164.719 23.0854 163.896 23.354C162.239 23.8944 160.568 23.8815 158.97 23.1316C157.161 22.2814 156.422 20.7135 156.392 18.8167C156.34 15.5119 156.324 12.2054 156.384 8.90059C156.422 6.77188 158.786 4.72706 160.955 4.77323C161.348 4.78111 161.455 4.91004 161.446 5.28218C161.425 6.15877 161.457 7.03649 161.43 7.91252C161.418 8.31676 161.526 8.45976 161.952 8.4485C163.054 8.4181 164.157 8.45357 165.258 8.43161C165.674 8.42316 165.892 8.51099 165.834 8.98335C165.796 9.29356 165.827 9.61222 165.826 9.92694C165.822 11.4313 164.854 12.4604 163.345 12.5629C163.256 12.5685 163.165 12.5669 163.076 12.5685C161.439 12.5928 161.439 12.5928 161.439 14.2063C161.439 15.4663 161.43 16.7252 161.443 17.9846C161.453 18.9794 161.897 19.4884 162.892 19.5621C163.766 19.6263 164.64 19.556 165.521 19.2373Z" fill="#459F36"/>
<path fill-rule="evenodd" clip-rule="evenodd" d="M129.481 11.8221C129.481 9.37359 129.509 6.92454 129.462 4.47717C129.45 3.79932 129.658 3.6231 130.286 3.69403C130.909 3.76497 131.54 3.65969 132.165 3.79481C133.697 4.12642 134.463 4.96304 134.495 6.55014C134.544 8.90743 134.524 11.267 134.53 13.6254C134.534 15.0627 134.521 16.5006 134.536 17.938C134.546 18.9215 135.031 19.4355 136 19.5104C136.469 19.547 136.942 19.5583 137.413 19.5515C137.703 19.5476 137.82 19.6501 137.813 19.9411C137.8 20.4799 137.846 21.0232 137.795 21.5575C137.713 22.4071 137.241 23.0072 136.46 23.3529C134.752 24.1113 132.281 23.6834 130.912 22.4059C130.011 21.5648 129.535 20.5092 129.515 19.301C129.474 16.8086 129.503 14.3156 129.503 11.8221H129.481Z" fill="#459F36"/>
<path fill-rule="evenodd" clip-rule="evenodd" d="M35.9665 16.525C35.7972 18.8958 34.6644 20.7548 32.8089 22.1499C28.1074 25.685 21.3631 23.2422 19.989 17.5271C19.8535 16.9636 19.7939 16.3724 19.7792 15.792C19.7466 14.5348 20.5841 13.6323 21.7478 13.607C22.9076 13.5822 23.7602 14.4565 23.8047 15.716C23.8874 18.0592 25.8081 19.8456 28.1417 19.7504C30.2149 19.6649 31.9039 17.9257 32.0378 15.7379C32.1171 14.4413 32.864 13.6329 34.0047 13.6086C34.9372 13.5895 35.6318 14.1024 35.9468 15.0443C35.9997 15.5375 35.8759 16.0329 35.9665 16.525Z" fill="#E63539"/>
<path fill-rule="evenodd" clip-rule="evenodd" d="M70.0887 20.7334C69.9514 20.5054 70.0026 20.252 70.0021 20.0083C69.9981 17.9848 69.9992 15.9609 69.9998 13.938C70.0009 9.34052 74.0978 7.76637 77.4753 8.98414C78.4084 9.32025 78.8943 10.0499 78.9061 11.0611C78.9118 11.5784 79.0912 12.2096 78.8606 12.5845C78.5462 13.0952 77.9646 12.5282 77.4871 12.5147C75.604 12.4646 74.8464 13.1549 74.8458 15.0516C74.8458 17.66 74.8307 20.2684 74.8588 22.8762C74.8644 23.4206 74.7024 23.5845 74.172 23.54C73.6366 23.4949 73.0983 23.5146 72.5606 23.4375C71.0493 23.2196 70.1708 22.2749 70.0881 20.734C70.3046 20.4851 70.2411 20.1811 70.2417 19.8951C70.2467 18.0958 70.2439 16.297 70.2445 14.4982C70.2439 16.3189 70.2462 18.1402 70.2422 19.9615C70.2417 20.2267 70.29 20.5065 70.0887 20.7334Z" fill="#FCC300"/>
<path fill-rule="evenodd" clip-rule="evenodd" d="M94.9438 4.91269C94.7549 5.07596 94.5248 5.05119 94.3015 5.05119C91.4021 5.05231 88.5021 5.05231 85.6022 5.05119C85.3794 5.05119 85.1488 5.07709 84.957 4.92057C86.8559 4.90593 88.7552 4.88285 90.6541 4.88004C92.0838 4.87778 93.5141 4.90087 94.9438 4.91269Z" fill="#309B38"/>
<path fill-rule="evenodd" clip-rule="evenodd" d="M17.4762 10.579C17.4041 9.7322 17.6321 8.86912 17.3275 8.0325C17.3033 7.96494 17.4176 7.84671 17.4677 7.75269C17.9041 8.66869 17.6608 9.63424 17.671 10.5812C17.671 10.6037 17.6079 10.6448 17.5741 10.6448C17.5415 10.6443 17.5088 10.6026 17.4762 10.579Z" fill="#FAC000"/>
<path fill-rule="evenodd" clip-rule="evenodd" d="M35.9667 16.5244C35.7455 16.034 35.7703 15.5397 35.947 15.0437C36.1103 15.5352 36.0641 16.0295 35.9667 16.5244Z" fill="#E32531"/>
<path fill-rule="evenodd" clip-rule="evenodd" d="M39.7131 10.8535C39.644 11.1097 39.428 11.2454 39.2509 11.4126C39.1232 10.9931 39.4724 10.9684 39.7131 10.8535Z" fill="#FCF9F3"/>
<path fill-rule="evenodd" clip-rule="evenodd" d="M47.9531 16.4488C47.9627 17.0558 47.9143 17.6086 47.7523 18.1553C47.4211 19.2734 46.7669 19.9518 45.8957 20.0363C44.5481 20.1675 43.5317 19.7013 43.0604 18.5809C42.44 17.1053 42.3422 15.5728 42.9603 14.0606C43.4007 12.983 44.241 12.5101 45.4238 12.5945C46.6494 12.6829 47.3879 13.2853 47.7068 14.4277C47.8963 15.1055 47.9762 15.7913 47.9531 16.4488Z" fill="#FEFEFE"/>
<path fill-rule="evenodd" clip-rule="evenodd" d="M188.315 16.2307C188.296 16.8798 188.182 17.5825 187.863 18.2423C187.43 19.1397 186.736 19.6943 185.728 19.7483C184.63 19.8069 183.716 19.3908 183.234 18.3763C182.577 16.9896 182.45 15.5207 182.976 14.0603C183.426 12.8082 184.411 12.0842 185.456 12.1236C186.697 12.1709 187.676 12.9692 188.048 14.2951C188.217 14.8986 188.319 15.5219 188.315 16.2307Z" fill="#FEFEFE"/>
<path fill-rule="evenodd" clip-rule="evenodd" d="M149.473 16.0658C149.502 16.9452 149.327 17.68 148.971 18.3702C148.08 20.0992 145.595 20.3052 144.589 18.6506C143.613 17.0421 143.557 15.2759 144.383 13.5667C144.843 12.6124 145.664 12.055 146.776 12.1428C147.955 12.2363 148.855 13.0037 149.183 14.1781C149.363 14.8238 149.544 15.4797 149.473 16.0658Z" fill="#FEFEFE"/>
<path fill-rule="evenodd" clip-rule="evenodd" d="M121.355 17.3067C122.612 17.2977 122.623 17.2989 122.542 18.4187C122.493 19.1027 122.357 19.7496 121.616 20.0649C120.788 20.4179 119.991 20.3087 119.25 19.8718C118.81 19.6128 118.677 19.1399 118.746 18.6388C118.824 18.0724 119.17 17.7127 119.704 17.5438C120.282 17.3608 120.877 17.2623 121.355 17.3067Z" fill="#FDFDFD"/>
<path fill-rule="evenodd" clip-rule="evenodd" d="M60.7132 14.7561C60.3099 14.7561 59.9066 14.7421 59.5045 14.7601C59.1203 14.7781 58.9837 14.6739 59.0911 14.2579C59.5281 12.5621 61.2481 11.7345 62.8274 12.476C63.2335 12.6668 63.5299 12.9512 63.679 13.3745C63.8741 13.9302 63.6694 14.3232 63.1058 14.5191C62.3263 14.7899 61.5192 14.7635 60.7132 14.7561Z" fill="#FDFDFD"/>
<mask id="mask1_7494_56998" style="mask-type:alpha" maskUnits="userSpaceOnUse" x="0" y="0" width="197" height="33">
<path d="M0 32.0325H197V0H0V32.0325Z" fill="white"/>
</mask>
<g mask="url(#mask1_7494_56998)">
<path fill-rule="evenodd" clip-rule="evenodd" d="M161.243 18.3224H161.307V12.8342H161.243V18.3224Z" fill="#2C9B39"/>
<path fill-rule="evenodd" clip-rule="evenodd" d="M161.317 5.17179V8.04479C161.295 8.04535 161.273 8.04535 161.252 8.04535V5.16504C161.273 5.16729 161.295 5.16954 161.317 5.17179Z" fill="#2B9B39"/>
<path fill-rule="evenodd" clip-rule="evenodd" d="M70.0894 20.7318V13.3965C70.3771 13.6904 70.3766 13.9392 70.3771 14.1791C70.3805 16.1282 70.3783 18.0778 70.3811 20.0275C70.3811 20.3062 70.3569 20.568 70.0889 20.7324L70.0894 20.7318Z" fill="#FBC100"/>
</g>
</svg>
