<?xml version="1.0" standalone="no"?>
<!DOCTYPE svg PUBLIC "-//W3C//DTD SVG 20010904//EN"
 "http://www.w3.org/TR/2001/REC-SVG-20010904/DTD/svg10.dtd">
<svg version="1.0" xmlns="http://www.w3.org/2000/svg"
 width="100.000000pt" height="35.000000pt" viewBox="0 0 100.000000 35.000000"
 preserveAspectRatio="xMidYMid meet">

<g transform="translate(0.000000,35.000000) scale(0.100000,-0.100000)"
fill="#000000" stroke="none">
<path d="M52 300 c-15 -24 4 -39 38 -30 17 4 21 8 12 14 -7 4 -10 11 -7 16 3
4 -3 10 -14 13 -10 2 -22 -3 -29 -13z"/>
<path d="M153 273 c-14 -28 -28 -40 -60 -51 -50 -16 -55 -35 -13 -52 34 -14
35 -21 18 -85 -7 -24 -9 -47 -5 -51 8 -9 93 61 108 89 10 18 7 25 -25 54 -20
18 -36 35 -36 37 0 1 18 11 40 21 45 20 46 22 24 53 -21 30 -29 28 -51 -15z"/>
<path d="M392 238 c-26 -13 -39 -54 -25 -77 6 -9 30 -23 54 -32 49 -18 57 -30
34 -49 -13 -11 -23 -11 -49 -2 -42 15 -46 15 -46 -3 0 -34 88 -48 128 -19 30
21 30 69 0 88 -13 8 -38 17 -56 21 -24 5 -32 12 -30 23 3 13 14 17 47 17 51 0
66 20 26 35 -33 12 -53 12 -83 -2z"/>
<path d="M543 243 c-21 -7 -15 -33 7 -33 11 0 20 6 20 14 0 18 -11 25 -27 19z"/>
<path d="M915 238 c-3 -8 -5 -55 -3 -104 3 -76 6 -89 21 -92 16 -3 17 5 15 99
-2 71 -7 104 -15 107 -7 2 -15 -3 -18 -10z"/>
<path d="M630 187 c-47 -23 -35 -70 21 -82 17 -4 29 -13 29 -22 0 -12 -8 -15
-40 -10 -29 4 -40 1 -40 -8 0 -25 64 -34 101 -15 21 12 26 52 7 67 -7 6 -25
13 -40 17 -16 4 -28 13 -28 22 0 13 7 14 40 9 25 -4 40 -3 40 4 0 22 -58 34
-90 18z"/>
<path d="M780 191 c-14 -4 -26 -15 -28 -24 -4 -20 7 -21 42 -6 20 9 29 9 41
-1 20 -17 10 -30 -24 -30 -16 0 -39 -8 -51 -18 -45 -37 8 -90 65 -64 15 7 26
7 33 0 18 -18 32 2 32 45 0 65 -9 85 -42 96 -34 12 -32 12 -68 2z m70 -89 c0
-14 -23 -32 -41 -32 -21 0 -33 16 -24 30 7 12 65 14 65 2z"/>
<path d="M534 167 c-3 -8 -4 -39 -2 -68 2 -40 7 -54 18 -54 20 0 22 126 3 132
-7 3 -15 -2 -19 -10z"/>
</g>
</svg>
