<svg width="185" height="85" viewBox="0 0 185 85" fill="none" xmlns="http://www.w3.org/2000/svg">
<g clip-path="url(#clip0_1579_13792)">
<rect width="185" height="85" fill="url(#paint0_linear_1579_13792)"/>
<path opacity="0.9" d="M112.518 34.2964L153.743 -6.85292C162.469 -15.5632 176.743 -15.5632 185.469 -6.85292C194.195 1.85735 194.195 16.1051 185.469 24.8153L144.244 65.9646C135.518 74.6749 121.244 74.6749 112.518 65.9646C103.792 57.2544 103.792 43.0066 112.518 34.2964Z" fill="url(#paint1_linear_1579_13792)"/>
<path opacity="0.9" d="M111.074 28.1021L147.567 -8.48697C150.516 -11.4438 150.517 -16.2365 147.569 -19.1918C144.622 -22.1471 139.842 -22.1459 136.893 -19.1892L100.4 17.4C97.4512 20.3567 97.45 25.1495 100.398 28.1048C103.345 31.0601 108.125 31.0589 111.074 28.1021Z" fill="url(#paint2_linear_1579_13792)"/>
<path d="M158.434 68.1064C158.434 68.8159 157.854 69.3968 157.145 69.3968H137.624C136.916 69.3968 136.336 68.8159 136.336 68.1064V55.1992C136.336 54.4897 136.916 53.9087 137.624 53.9087H157.145C157.854 53.9087 158.434 54.4897 158.434 55.1992V68.1064Z" fill="url(#paint3_linear_1579_13792)"/>
<path d="M143.897 64.4165V62.5898C143.897 62.2351 143.607 61.9446 143.253 61.9446H135.965C135.611 61.9446 135.321 62.2351 135.321 62.5898V64.4165C135.321 64.7713 135.611 65.0618 135.965 65.0618C135.611 65.0618 135.321 65.3523 135.321 65.707V67.5337C135.321 67.8885 135.611 68.1789 135.965 68.1789H143.253C143.607 68.1789 143.897 67.8885 143.897 67.5337V65.707C143.897 65.3523 143.607 65.0618 143.253 65.0618C143.607 65.0618 143.897 64.7713 143.897 64.4165Z" fill="url(#paint4_linear_1579_13792)"/>
<path d="M158.434 67.5365C158.434 67.8913 158.144 68.1818 157.79 68.1818H150.502C150.147 68.1818 149.857 67.8913 149.857 67.5365V65.7098C149.857 65.3551 150.147 65.0646 150.502 65.0646H157.79C158.144 65.0646 158.434 65.3551 158.434 65.7098V67.5365Z" fill="url(#paint5_linear_1579_13792)"/>
<path d="M126.786 63.3357C126.786 64.0451 127.366 64.6261 128.075 64.6261H131.037C131.745 64.6261 132.325 64.0451 132.325 63.3357V54.5204C132.325 53.811 131.745 53.23 131.037 53.23H128.075C127.366 53.23 126.786 53.811 126.786 54.5204V63.3357Z" fill="#BED62F"/>
<path d="M129.581 62.0592C129.062 62.0592 128.644 61.6402 128.644 61.1207V56.7354C128.644 56.2159 129.065 55.7969 129.581 55.7969C130.097 55.7969 130.518 56.2159 130.518 56.7354V61.1207C130.518 61.6402 130.097 62.0592 129.581 62.0592Z" fill="#262C2F"/>
<path d="M143.897 67.5365C143.897 67.8913 143.607 68.1818 143.253 68.1818H135.965C135.611 68.1818 135.321 67.8913 135.321 67.5365V65.7098C135.321 65.3551 135.611 65.0646 135.965 65.0646H143.253C143.607 65.0646 143.897 65.3551 143.897 65.7098V67.5365Z" fill="url(#paint6_linear_1579_13792)"/>
<path d="M143.897 64.4165C143.897 64.7713 143.607 65.0618 143.253 65.0618H135.965C135.611 65.0618 135.321 64.7713 135.321 64.4165V62.5898C135.321 62.2351 135.611 61.9446 135.965 61.9446H143.253C143.607 61.9446 143.897 62.2351 143.897 62.5898V64.4165Z" fill="url(#paint7_linear_1579_13792)"/>
<path d="M165.08 62.8244C166.728 62.8244 168.064 61.4864 168.064 59.8357C168.064 58.1851 166.728 56.847 165.08 56.847C163.432 56.847 162.096 58.1851 162.096 59.8357C162.096 61.4864 163.432 62.8244 165.08 62.8244Z" fill="url(#paint8_linear_1579_13792)"/>
<path d="M128.897 26.2954C129.433 26.2954 129.868 25.8602 129.868 25.3233C129.868 24.7865 129.433 24.3513 128.897 24.3513C128.361 24.3513 127.927 24.7865 127.927 25.3233C127.927 25.8602 128.361 26.2954 128.897 26.2954Z" fill="white"/>
<path d="M138.171 26.2954C138.707 26.2954 139.141 25.8602 139.141 25.3233C139.141 24.7865 138.707 24.3513 138.171 24.3513C137.635 24.3513 137.2 24.7865 137.2 25.3233C137.2 25.8602 137.635 26.2954 138.171 26.2954Z" fill="white"/>
<path d="M147.445 26.2954C147.981 26.2954 148.415 25.8602 148.415 25.3233C148.415 24.7865 147.981 24.3513 147.445 24.3513C146.909 24.3513 146.474 24.7865 146.474 25.3233C146.474 25.8602 146.909 26.2954 147.445 26.2954Z" fill="white"/>
<path d="M156.721 26.2954C157.257 26.2954 157.692 25.8602 157.692 25.3233C157.692 24.7865 157.257 24.3513 156.721 24.3513C156.185 24.3513 155.75 24.7865 155.75 25.3233C155.75 25.8602 156.185 26.2954 156.721 26.2954Z" fill="white"/>
<path d="M165.995 26.2954C166.531 26.2954 166.966 25.8602 166.966 25.3233C166.966 24.7865 166.531 24.3513 165.995 24.3513C165.459 24.3513 165.024 24.7865 165.024 25.3233C165.024 25.8602 165.459 26.2954 165.995 26.2954Z" fill="white"/>
<path d="M135.083 25.3233C134.196 25.692 133.901 25.9937 133.533 26.8847C133.164 25.9909 132.869 25.692 131.982 25.3233C132.869 24.9546 133.164 24.653 133.533 23.762C133.901 24.6558 134.196 24.9546 135.083 25.3233Z" fill="url(#paint9_linear_1579_13792)"/>
<path d="M144.41 25.3233C143.523 25.692 143.227 25.9937 142.859 26.8847C142.491 25.9909 142.196 25.692 141.309 25.3233C142.196 24.9546 142.491 24.653 142.859 23.762C143.227 24.6558 143.523 24.9546 144.41 25.3233Z" fill="url(#paint10_linear_1579_13792)"/>
<path d="M153.634 25.3233C152.747 25.692 152.451 25.9937 152.083 26.8847C151.715 25.9909 151.419 25.692 150.532 25.3233C151.419 24.9546 151.715 24.653 152.083 23.762C152.451 24.6558 152.747 24.9546 153.634 25.3233Z" fill="url(#paint11_linear_1579_13792)"/>
<path d="M162.907 25.3233C162.02 25.692 161.725 25.9937 161.356 26.8847C160.988 25.9909 160.693 25.692 159.806 25.3233C160.693 24.9546 160.988 24.653 161.356 23.762C161.725 24.6558 162.02 24.9546 162.907 25.3233Z" fill="url(#paint12_linear_1579_13792)"/>
<path d="M114.415 35.1414H116.29V58.5398H114.415V35.1414Z" fill="#262C2F"/>
<path d="M152.677 17.6449C152.713 17.9969 152.454 18.2873 152.1 18.2873H142.661C142.307 18.2873 142.051 17.9996 142.092 17.6477L142.921 10.6396C142.963 10.2877 143.286 10 143.64 10H151.241C151.595 10 151.915 10.2877 151.952 10.6424L152.68 17.6477L152.677 17.6449Z" fill="url(#paint13_linear_1579_13792)"/>
<path d="M147.417 18.4689C148.418 18.4689 149.23 17.656 149.23 16.6533C149.23 15.6506 148.418 14.8378 147.417 14.8378C146.416 14.8378 145.604 15.6506 145.604 16.6533C145.604 17.656 146.416 18.4689 147.417 18.4689Z" fill="#FFBB00"/>
<path d="M113.462 60.7463C113.462 62.1038 114.558 63.2015 115.913 63.2015H120.426C121.779 63.2015 122.877 62.101 122.877 60.7463V57.5314C122.877 56.1739 121.781 55.0762 120.426 55.0762H115.913C114.56 55.0762 113.462 56.1767 113.462 57.5314V60.7463Z" fill="#FFBB00"/>
<path d="M118.192 64.3105C118.192 64.6652 118.482 64.9557 118.836 64.9557H122.967C123.321 64.9557 123.611 64.6652 123.611 64.3105V53.9702C123.611 53.6154 123.321 53.325 122.967 53.325H118.836C118.482 53.325 118.192 53.6154 118.192 53.9702V64.3105Z" fill="url(#paint14_linear_1579_13792)"/>
<path d="M171.236 68.0114C171.236 68.7209 170.656 69.3019 169.947 69.3019H124.823C124.114 69.3019 123.534 68.7209 123.534 68.0114V21.1839C123.534 20.4744 124.114 19.8934 124.823 19.8934H169.944C170.653 19.8934 171.233 20.4744 171.233 21.1839V68.0114H171.236Z" fill="#262C2F"/>
<path d="M158.434 68.1064C158.434 68.8159 157.854 69.3968 157.145 69.3968H137.624C136.916 69.3968 136.336 68.8159 136.336 68.1064V55.1992C136.336 54.4897 136.916 53.9087 137.624 53.9087H157.145C157.854 53.9087 158.434 54.4897 158.434 55.1992V68.1064Z" fill="url(#paint15_linear_1579_13792)"/>
<path d="M143.988 64.3543V62.5275C143.988 62.1728 143.698 61.8823 143.344 61.8823H136.056C135.702 61.8823 135.412 62.1728 135.412 62.5275V64.3543C135.412 64.709 135.702 64.9995 136.056 64.9995C135.702 64.9995 135.412 65.29 135.412 65.6447V67.4715C135.412 67.8262 135.702 68.1167 136.056 68.1167H143.344C143.698 68.1167 143.988 67.8262 143.988 67.4715V65.6447C143.988 65.29 143.698 64.9995 143.344 64.9995C143.698 64.9995 143.988 64.709 143.988 64.3543Z" fill="url(#paint16_linear_1579_13792)"/>
<path d="M158.525 67.5365C158.525 67.8913 158.235 68.1818 157.881 68.1818H150.593C150.239 68.1818 149.949 67.8913 149.949 67.5365V65.7098C149.949 65.3551 150.239 65.0646 150.593 65.0646H157.881C158.235 65.0646 158.525 65.3551 158.525 65.7098V67.5365Z" fill="url(#paint17_linear_1579_13792)"/>
<path d="M162.213 63.3357C162.213 64.0451 162.794 64.6261 163.502 64.6261H166.464C167.172 64.6261 167.752 64.0451 167.752 63.3357V54.5204C167.752 53.811 167.172 53.23 166.464 53.23H163.502C162.794 53.23 162.213 53.811 162.213 54.5204V63.3357Z" fill="url(#paint18_linear_1579_13792)"/>
<path d="M165.008 62.0592C164.489 62.0592 164.071 61.6402 164.071 61.1207V56.7354C164.071 56.2159 164.492 55.7969 165.008 55.7969C165.524 55.7969 165.945 56.2159 165.945 56.7354V61.1207C165.945 61.6402 165.524 62.0592 165.008 62.0592Z" fill="#FFBB00"/>
<path d="M143.897 67.5365C143.897 67.8913 143.607 68.1818 143.253 68.1818H135.965C135.611 68.1818 135.321 67.8913 135.321 67.5365V65.7098C135.321 65.3551 135.611 65.0646 135.965 65.0646H143.253C143.607 65.0646 143.897 65.3551 143.897 65.7098V67.5365Z" fill="#FF8E0D"/>
<path d="M129.771 62.8244C131.419 62.8244 132.755 61.4864 132.755 59.8357C132.755 58.1851 131.419 56.847 129.771 56.847C128.123 56.847 126.787 58.1851 126.787 59.8357C126.787 61.4864 128.123 62.8244 129.771 62.8244Z" fill="url(#paint19_linear_1579_13792)"/>
<path d="M115.353 38.1552C113.501 38.1552 112 36.6508 112 34.795C112 32.9392 113.501 31.4348 115.353 31.4348C117.204 31.4348 118.705 32.9392 118.705 34.795C118.705 36.6508 117.204 38.1552 115.353 38.1552Z" fill="url(#paint20_linear_1579_13792)"/>
<path d="M174.54 68.4348H119.035C118.992 68.4348 118.951 68.4397 118.91 68.4472C118.626 68.499 118.409 68.7311 118.409 69.0052V72.4297C118.409 72.7433 118.691 73 119.035 73H121.936H174.543C174.887 73 175.169 72.7433 175.169 72.4297V69.0052C175.169 68.6916 174.887 68.4348 174.543 68.4348H174.54Z" fill="#FFBB00"/>
<path d="M128.133 26.9702C128.876 26.9702 129.479 26.3711 129.479 25.6322C129.479 24.8932 128.876 24.2942 128.133 24.2942C127.389 24.2942 126.787 24.8932 126.787 25.6322C126.787 26.3711 127.389 26.9702 128.133 26.9702Z" fill="white"/>
<path d="M140.994 26.9702C141.737 26.9702 142.34 26.3711 142.34 25.6322C142.34 24.8932 141.737 24.2942 140.994 24.2942C140.251 24.2942 139.648 24.8932 139.648 25.6322C139.648 26.3711 140.251 26.9702 140.994 26.9702Z" fill="white"/>
<path d="M153.855 26.9702C154.599 26.9702 155.201 26.3711 155.201 25.6322C155.201 24.8932 154.599 24.2942 153.855 24.2942C153.112 24.2942 152.509 24.8932 152.509 25.6322C152.509 26.3711 153.112 26.9702 153.855 26.9702Z" fill="white"/>
<path d="M166.72 26.9702C167.464 26.9702 168.066 26.3711 168.066 25.6322C168.066 24.8932 167.464 24.2942 166.72 24.2942C165.977 24.2942 165.374 24.8932 165.374 25.6322C165.374 26.3711 165.977 26.9702 166.72 26.9702Z" fill="white"/>
<path d="M136.712 25.6322C135.482 26.1397 135.072 26.5549 134.561 27.7814C134.051 26.5511 133.641 26.1397 132.411 25.6322C133.641 25.1246 134.051 24.7094 134.561 23.4829C135.072 24.7132 135.482 25.1246 136.712 25.6322Z" fill="url(#paint21_linear_1579_13792)"/>
<path d="M149.647 25.6322C148.417 26.1397 148.007 26.5549 147.496 27.7814C146.986 26.5511 146.576 26.1397 145.346 25.6322C146.576 25.1246 146.986 24.7094 147.496 23.4829C148.007 24.7132 148.417 25.1246 149.647 25.6322Z" fill="url(#paint22_linear_1579_13792)"/>
<path d="M162.438 25.6322C161.208 26.1397 160.798 26.5549 160.287 27.7814C159.777 26.5511 159.367 26.1397 158.137 25.6322C159.367 25.1246 159.777 24.7094 160.287 23.4829C160.798 24.7132 161.208 25.1246 162.438 25.6322Z" fill="url(#paint23_linear_1579_13792)"/>
<path d="M156.27 19.2398C156.27 19.5945 155.98 19.885 155.625 19.885H139.145C138.791 19.885 138.5 19.5945 138.5 19.2398V17.7482C138.5 17.3935 138.791 17.103 139.145 17.103H155.625C155.98 17.103 156.27 17.3935 156.27 17.7482V19.2398Z" fill="#FFBB00"/>
<path d="M139.627 44.532C139.627 45.2415 139.069 45.8225 138.389 45.8225H127.961C127.28 45.8225 126.722 45.2415 126.722 44.532V32.1834C126.722 31.4739 127.28 30.8929 127.961 30.8929H138.389C139.069 30.8929 139.627 31.4739 139.627 32.1834V44.532Z" fill="white"/>
<path d="M153.899 44.532C153.899 45.2415 153.341 45.8225 152.66 45.8225H142.232C141.551 45.8225 140.994 45.2415 140.994 44.532V32.1834C140.994 31.4739 141.551 30.8929 142.232 30.8929H152.66C153.341 30.8929 153.899 31.4739 153.899 32.1834V44.532Z" fill="white"/>
<path d="M168.173 44.532C168.173 45.2415 167.615 45.8225 166.935 45.8225H156.506C155.826 45.8225 155.268 45.2415 155.268 44.532V32.1834C155.268 31.4739 155.826 30.8929 156.506 30.8929H166.935C167.615 30.8929 168.173 31.4739 168.173 32.1834V44.532Z" fill="white"/>
<path d="M130.479 35.1022H129.266V38.4344H130.42C130.42 38.4344 130.716 37.2585 131.486 37.3367C132.256 37.4149 132.903 37.7417 133.865 37.6244C133.865 37.6244 131.037 39.2249 131.037 41.9622H135.098C135.098 41.9622 134.808 38.1076 137.078 35.7753L136.213 35.0435C136.213 35.0435 135.349 35.8703 133.48 35.1581C133.48 35.1581 132.016 34.6525 130.476 35.4821V35.1022H130.479Z" fill="#262C2F"/>
<path d="M144.75 35.1022H143.537V38.4344H144.692C144.692 38.4344 144.987 37.2585 145.757 37.3367C146.527 37.4149 147.174 37.7417 148.136 37.6244C148.136 37.6244 145.308 39.2249 145.308 41.9622H149.369C149.369 41.9622 149.079 38.1076 151.349 35.7753L150.485 35.0435C150.485 35.0435 149.62 35.8703 147.751 35.1581C147.751 35.1581 146.287 34.6525 144.748 35.4821V35.1022H144.75Z" fill="#262C2F"/>
<path d="M159.549 35.1022H158.336V38.4344H159.491C159.491 38.4344 159.786 37.2585 160.556 37.3367C161.326 37.4149 161.973 37.7417 162.935 37.6244C162.935 37.6244 160.107 39.2249 160.107 41.9622H164.168C164.168 41.9622 163.878 38.1076 166.148 35.7753L165.284 35.0435C165.284 35.0435 164.419 35.8703 162.55 35.1581C162.55 35.1581 161.086 34.6525 159.546 35.4821V35.1022H159.549Z" fill="#262C2F"/>
</g>
<defs>
<linearGradient id="paint0_linear_1579_13792" x1="-1.79567e-06" y1="85" x2="80.4321" y2="-95.1825" gradientUnits="userSpaceOnUse">
<stop offset="0.125" stop-color="#006138"/>
<stop offset="1" stop-color="#83D92E"/>
</linearGradient>
<linearGradient id="paint1_linear_1579_13792" x1="209.466" y1="-33.4028" x2="110.78" y2="69.7225" gradientUnits="userSpaceOnUse">
<stop offset="0.24" stop-color="white" stop-opacity="0"/>
<stop offset="1" stop-color="white" stop-opacity="0.7"/>
</linearGradient>
<linearGradient id="paint2_linear_1579_13792" x1="149.768" y1="4.45091" x2="98.1894" y2="4.45091" gradientUnits="userSpaceOnUse">
<stop offset="0.24" stop-color="white" stop-opacity="0"/>
<stop offset="1" stop-color="white" stop-opacity="0.7"/>
</linearGradient>
<linearGradient id="paint3_linear_1579_13792" x1="147.385" y1="53.9087" x2="147.385" y2="69.3968" gradientUnits="userSpaceOnUse">
<stop stop-color="#FFAF1F"/>
<stop offset="1" stop-color="#FF900E"/>
</linearGradient>
<linearGradient id="paint4_linear_1579_13792" x1="139.609" y1="61.9446" x2="139.609" y2="68.1789" gradientUnits="userSpaceOnUse">
<stop stop-color="#D01C46"/>
<stop offset="1" stop-color="#E63848"/>
</linearGradient>
<linearGradient id="paint5_linear_1579_13792" x1="154.146" y1="65.0646" x2="154.146" y2="68.1818" gradientUnits="userSpaceOnUse">
<stop stop-color="#D01C46"/>
<stop offset="1" stop-color="#E63848"/>
</linearGradient>
<linearGradient id="paint6_linear_1579_13792" x1="139.609" y1="65.0646" x2="139.609" y2="68.1818" gradientUnits="userSpaceOnUse">
<stop stop-color="#D01C46"/>
<stop offset="1" stop-color="#E63848"/>
</linearGradient>
<linearGradient id="paint7_linear_1579_13792" x1="139.609" y1="61.9446" x2="139.609" y2="65.0618" gradientUnits="userSpaceOnUse">
<stop stop-color="#D01C46"/>
<stop offset="1" stop-color="#E63848"/>
</linearGradient>
<linearGradient id="paint8_linear_1579_13792" x1="165.08" y1="56.847" x2="165.08" y2="62.8244" gradientUnits="userSpaceOnUse">
<stop stop-color="#D01C46"/>
<stop offset="1" stop-color="#E63848"/>
</linearGradient>
<linearGradient id="paint9_linear_1579_13792" x1="133.533" y1="23.762" x2="133.533" y2="26.8847" gradientUnits="userSpaceOnUse">
<stop stop-color="#D01C46"/>
<stop offset="1" stop-color="#E63848"/>
</linearGradient>
<linearGradient id="paint10_linear_1579_13792" x1="142.859" y1="23.762" x2="142.859" y2="26.8847" gradientUnits="userSpaceOnUse">
<stop stop-color="#D01C46"/>
<stop offset="1" stop-color="#E63848"/>
</linearGradient>
<linearGradient id="paint11_linear_1579_13792" x1="152.083" y1="23.762" x2="152.083" y2="26.8847" gradientUnits="userSpaceOnUse">
<stop stop-color="#D01C46"/>
<stop offset="1" stop-color="#E63848"/>
</linearGradient>
<linearGradient id="paint12_linear_1579_13792" x1="161.356" y1="23.762" x2="161.356" y2="26.8847" gradientUnits="userSpaceOnUse">
<stop stop-color="#D01C46"/>
<stop offset="1" stop-color="#E63848"/>
</linearGradient>
<linearGradient id="paint13_linear_1579_13792" x1="147.384" y1="10" x2="147.384" y2="18.2873" gradientUnits="userSpaceOnUse">
<stop stop-color="#D01C46"/>
<stop offset="1" stop-color="#E63848"/>
</linearGradient>
<linearGradient id="paint14_linear_1579_13792" x1="120.901" y1="53.325" x2="120.901" y2="64.9557" gradientUnits="userSpaceOnUse">
<stop stop-color="#D01C46"/>
<stop offset="1" stop-color="#E63848"/>
</linearGradient>
<linearGradient id="paint15_linear_1579_13792" x1="147.385" y1="53.9087" x2="147.385" y2="69.3968" gradientUnits="userSpaceOnUse">
<stop stop-color="#D01C46"/>
<stop offset="1" stop-color="#E63848"/>
</linearGradient>
<linearGradient id="paint16_linear_1579_13792" x1="139.626" y1="71.1799" x2="145.454" y2="63.1632" gradientUnits="userSpaceOnUse">
<stop stop-color="#FF8E0D"/>
<stop offset="1" stop-color="#FFAF1E"/>
</linearGradient>
<linearGradient id="paint17_linear_1579_13792" x1="154.163" y1="69.7134" x2="156.13" y2="64.3018" gradientUnits="userSpaceOnUse">
<stop stop-color="#FF8E0D"/>
<stop offset="1" stop-color="#FFAF1E"/>
</linearGradient>
<linearGradient id="paint18_linear_1579_13792" x1="164.935" y1="70.2256" x2="173.741" y2="65.9454" gradientUnits="userSpaceOnUse">
<stop stop-color="#FF8E0D"/>
<stop offset="1" stop-color="#FFAF1E"/>
</linearGradient>
<linearGradient id="paint19_linear_1579_13792" x1="129.771" y1="56.847" x2="129.771" y2="62.8244" gradientUnits="userSpaceOnUse">
<stop stop-color="#D01C46"/>
<stop offset="1" stop-color="#E63848"/>
</linearGradient>
<linearGradient id="paint20_linear_1579_13792" x1="115.353" y1="31.4348" x2="115.353" y2="38.1552" gradientUnits="userSpaceOnUse">
<stop stop-color="#D01C46"/>
<stop offset="1" stop-color="#E63848"/>
</linearGradient>
<linearGradient id="paint21_linear_1579_13792" x1="134.561" y1="23.4829" x2="134.561" y2="27.7814" gradientUnits="userSpaceOnUse">
<stop stop-color="#FFAF1F"/>
<stop offset="1" stop-color="#FF900E"/>
</linearGradient>
<linearGradient id="paint22_linear_1579_13792" x1="147.496" y1="23.4829" x2="147.496" y2="27.7814" gradientUnits="userSpaceOnUse">
<stop stop-color="#FFAF1F"/>
<stop offset="1" stop-color="#FF900E"/>
</linearGradient>
<linearGradient id="paint23_linear_1579_13792" x1="160.287" y1="23.4829" x2="160.287" y2="27.7814" gradientUnits="userSpaceOnUse">
<stop stop-color="#FFAF1F"/>
<stop offset="1" stop-color="#FF900E"/>
</linearGradient>
<clipPath id="clip0_1579_13792">
<rect width="185" height="85" fill="white"/>
</clipPath>
</defs>
</svg>
