<svg width="185" height="85" viewBox="0 0 185 85" fill="none" xmlns="http://www.w3.org/2000/svg">
<g clip-path="url(#clip0_1579_14485)">
<rect width="185" height="85" fill="url(#paint0_linear_1579_14485)"/>
<path opacity="0.9" d="M111.541 34.1918L152.747 -6.53446C161.469 -15.1552 175.736 -15.1552 184.458 -6.53446C193.18 2.08626 193.18 16.1875 184.458 24.8082L143.253 65.5345C134.531 74.1552 120.264 74.1552 111.541 65.5345C102.819 56.9137 102.819 42.8125 111.541 34.1918Z" fill="url(#paint1_linear_1579_14485)"/>
<path opacity="0.9" d="M116.074 23.1021L152.566 -13.487C155.515 -16.4438 155.517 -21.2365 152.569 -24.1918C149.622 -27.1471 144.841 -27.1459 141.892 -24.1892L105.4 12.4C102.451 15.3567 102.45 20.1495 105.397 23.1048C108.345 26.0601 113.125 26.0589 116.074 23.1021Z" fill="url(#paint2_linear_1579_14485)"/>
<mask id="mask0_1579_14485" style="mask-type:luminance" maskUnits="userSpaceOnUse" x="104" y="28" width="45" height="45">
<path d="M144.234 38.2734C143.149 36.7311 141.847 35.3149 140.351 34.0717C139.403 33.2772 138.37 32.5575 137.261 31.9172C137.205 31.8845 137.143 31.8518 137.087 31.8191C134.841 30.5478 132.463 29.7112 130.057 29.2906C125.448 28.4821 120.721 29.1784 116.583 31.1975C112.776 33.0529 109.459 36.0253 107.185 39.9699C104.897 43.9332 103.977 48.3124 104.293 52.5607C104.303 52.7009 104.312 52.8411 104.326 52.9813C104.326 53 104.326 53.0141 104.331 53.0327C104.553 55.5425 105.109 57.426 106.034 59.6927C109.186 67.0303 115.979 71.8722 123.448 72.821C125.094 73.0453 127.024 73.0547 128.581 72.8724C128.741 72.8537 128.901 72.835 129.057 72.8163C129.076 72.8163 129.09 72.8163 129.109 72.807C138.535 71.5871 146.051 64.4178 147.858 55.2434C149.028 49.3172 147.688 43.162 144.234 38.2734Z" fill="white"/>
</mask>
<g mask="url(#mask0_1579_14485)">
<path d="M129.104 72.8116C129.104 72.8116 129.076 72.8116 129.057 72.821C128.892 72.8397 128.727 72.8537 128.571 72.8864C127.425 73.0219 126.057 73.0313 124.754 72.9472C124.273 72.9098 123.806 72.863 123.33 72.7976C121.093 72.5125 118.937 71.8722 116.913 70.9282C115.39 70.2131 113.937 69.3204 112.601 68.2688C112.46 68.1427 112.314 68.0445 112.172 67.9136C110.728 66.7125 109.436 65.3244 108.327 63.7775C107.785 63.0203 107.294 62.2305 106.855 61.3986C106.544 60.8564 106.275 60.2629 106.015 59.688C105.204 57.7017 104.685 56.0145 104.425 53.9441C104.374 53.6263 104.34 53.2945 104.322 52.9767C104.317 52.8271 104.293 52.6916 104.289 52.542C103.973 48.2983 104.892 43.9332 107.185 39.9605C109.19 36.474 112.012 33.7446 115.295 31.9078L115.361 31.8611C115.762 31.5994 116.168 31.3891 116.583 31.1928C120.353 29.3607 124.632 28.5942 128.878 29.1364C129.255 29.1691 129.647 29.2205 130.053 29.2859C132.459 29.7019 134.836 30.5431 137.082 31.805C137.134 31.8424 137.186 31.8798 137.257 31.9078C138.351 32.5481 139.399 33.2726 140.347 34.0671L140.361 34.0858C141.857 35.329 143.135 36.7264 144.211 38.2687C144.437 38.5865 144.664 38.937 144.876 39.2688C145.017 39.4979 145.145 39.7128 145.272 39.9278C145.376 40.1054 145.489 40.3064 145.593 40.484C145.702 40.7083 145.819 40.9046 145.928 41.1336C146.159 41.601 146.376 42.0824 146.565 42.5591C146.749 42.961 146.9 43.3863 147.051 43.8116C147.39 44.7884 147.659 45.7652 147.858 46.7888C147.947 47.3075 148.027 47.8076 148.089 48.3217C148.145 48.6115 148.164 48.9246 148.188 49.2424C148.211 49.4527 148.226 49.649 148.221 49.8547C148.244 50.3454 148.254 50.8221 148.244 51.3082C148.249 51.3549 148.254 51.4297 148.263 51.4717C148.24 51.9718 148.216 52.4719 148.178 52.9533C148.136 53.4627 148.07 53.9722 147.98 54.4909C147.895 55.0097 147.792 55.5425 147.664 56.0379C147.551 56.552 147.405 57.0614 147.258 57.5709C147.117 57.9775 146.985 58.3981 146.815 58.8C146.626 59.3188 146.404 59.8282 146.178 60.3236C146.046 60.5994 145.904 60.8985 145.739 61.1696C145.607 61.4453 145.47 61.7164 145.305 61.9875C145.282 62.0295 145.277 62.0576 145.244 62.0809C145.22 62.123 145.201 62.1604 145.168 62.1884L145.183 62.2071C144.994 62.5483 144.791 62.8661 144.579 63.1746C141.111 68.3436 135.572 71.9704 129.095 72.8163L129.104 72.8116Z" fill="white"/>
<g opacity="0.2">
<path d="M127.807 72.9472C128.288 72.9098 128.755 72.8631 129.232 72.7977C131.458 72.4565 133.629 71.7975 135.662 70.8394C137.191 70.157 138.629 69.2784 139.96 68.2736C140.101 68.1474 140.248 68.0492 140.389 67.9184C142.625 66.1377 144.508 63.9271 145.876 61.3753L145.89 61.3566C147.074 59.1319 147.848 56.6595 148.136 53.9488C148.188 53.631 148.221 53.2992 148.24 52.9814C148.244 52.8318 148.268 52.6963 148.273 52.5467C144.687 60.09 136.705 64.4692 128.496 63.5579C128.118 63.5158 127.788 63.4831 127.42 63.427L127.401 63.413C123.547 62.768 120.272 61.0902 117.664 58.7674L117.645 58.7533C114.507 56.0052 112.323 52.3364 111.177 48.4713C110.143 44.9427 109.974 41.2365 110.761 37.8902C111.087 36.5488 111.54 35.2729 112.186 34.0858C110.691 35.329 109.412 36.7264 108.336 38.2687C108.11 38.5865 107.884 38.9371 107.671 39.2689C107.53 39.4979 107.402 39.7129 107.275 39.9279C107.171 40.1055 107.058 40.3064 106.954 40.484C106.846 40.7084 106.728 40.9047 106.619 41.1337C106.388 41.601 106.171 42.0824 105.982 42.5591C105.798 42.9611 105.647 43.3864 105.496 43.8117C105.157 44.7885 104.892 45.7933 104.69 46.7888C104.6 47.3076 104.52 47.8077 104.458 48.3218C104.421 48.6255 104.397 48.9387 104.378 49.2518C104.355 49.4621 104.34 49.6584 104.331 49.85C104.307 50.3408 104.298 50.8175 104.307 51.3035C104.303 51.3503 104.298 51.4251 104.289 51.4671C104.312 51.9672 104.336 52.4673 104.373 52.9487C104.416 53.4581 104.482 53.9675 104.572 54.4863C104.657 55.0051 104.76 55.5379 104.888 56.0333C105.001 56.5474 105.147 57.0568 105.293 57.5662C105.435 57.9728 105.567 58.3935 105.737 58.7954C105.926 59.3142 106.147 59.8236 106.374 60.319C106.506 60.5948 106.647 60.8939 106.813 61.1649C106.945 61.4407 107.081 61.7118 107.247 61.9828C107.27 62.0249 107.275 62.0529 107.308 62.0763L107.374 62.1978C107.563 62.539 107.766 62.8568 107.978 63.1653C112.88 70.7039 120.508 73.5641 127.812 72.9425L127.807 72.9472Z" fill="#262C2F"/>
</g>
<path d="M145.197 62.2071L145.183 62.1884L144.503 60.8471L146.985 51.383L148.183 49.2565L148.202 49.2424C148.226 49.4527 148.24 49.649 148.235 49.8547C148.259 50.3454 148.268 50.8221 148.259 51.3082C148.263 51.3549 148.268 51.4297 148.277 51.4718C148.254 51.9718 148.23 52.4719 148.193 52.9533C148.15 53.4627 148.084 53.9722 147.994 54.4909C147.966 54.7386 147.924 54.9957 147.867 55.2387C147.806 55.5098 147.749 55.7809 147.674 56.0379C147.56 56.552 147.414 57.0614 147.268 57.5709C147.126 57.9775 146.994 58.3981 146.824 58.8C146.636 59.3188 146.414 59.8282 146.187 60.3237C146.055 60.5994 145.914 60.8985 145.749 61.1696C145.617 61.4453 145.48 61.7164 145.315 61.9875C145.291 62.0295 145.286 62.0576 145.253 62.0809L145.187 62.2025L145.197 62.2071Z" fill="#262C2F"/>
<path d="M116.918 70.9281C115.394 70.213 113.941 69.3204 112.606 68.2688C112.465 68.1426 112.318 68.0445 112.177 67.9136C109.941 66.1329 108.058 63.9223 106.69 61.3705L106.864 61.3985L109.879 62.165L116.343 68.3669L116.909 70.8299L116.923 70.9234L116.918 70.9281Z" fill="#262C2F"/>
<path d="M123.646 44.9566L115.682 38.6472L108.351 44.7043L111.115 54.6545L120.466 54.9769L123.646 44.9566Z" fill="#262C2F"/>
<path d="M133.449 35.5345L141.913 37.9321L144.107 46.6999L137.809 50.766L130.916 43.0591L133.449 35.5345Z" fill="#262C2F"/>
<path d="M127.236 32.02L119.178 34.1418L114.578 32.5014L115.3 31.9125L115.366 31.8658C115.767 31.604 116.173 31.3937 116.588 31.1974C120.357 29.3653 124.636 28.5989 128.882 29.141L127.231 32.02H127.236Z" fill="#262C2F"/>
<path d="M135.129 58.7112L125.707 61.3471L123.849 68.152L131.51 70.8486L139.271 64.3149L135.129 58.7112Z" fill="#262C2F"/>
</g>
<path d="M118.491 17.5793C118.571 21.6279 115.519 25.0256 111.526 25.4269C111.12 23.6433 111.495 21.6948 112.557 20.21C113.909 18.3195 116.18 17.3118 118.491 17.5793Z" fill="url(#paint3_linear_1579_14485)"/>
<path d="M109.536 15.6129C110.714 13.9676 111.138 11.97 110.71 9.99475C114.658 9.97246 117.969 12.9242 118.437 16.8034C115.827 16.4824 113.462 17.6328 111.932 19.7685C110.741 21.4361 110.317 23.4605 110.772 25.458L111.415 25.4446C111.285 25.4536 111.16 25.4714 111.031 25.4803C106.944 25.6275 103.491 22.5865 103.053 18.5869C105.655 18.8991 108.015 17.7531 109.541 15.6218L109.536 15.6129Z" fill="url(#paint4_linear_1579_14485)"/>
<path d="M103.004 17.8022C102.969 13.7937 105.998 10.4407 109.96 10.0349C110.335 11.7962 109.96 13.7045 108.916 15.167C107.569 17.0531 105.311 18.0564 103.009 17.8022H103.004Z" fill="url(#paint5_linear_1579_14485)"/>
<path d="M111.526 25.4357H111.415C111.45 25.4357 111.49 25.4357 111.526 25.4268C111.526 25.4268 111.526 25.4312 111.526 25.4357Z" fill="white"/>
<path d="M111.932 19.764C113.462 17.6283 115.827 16.4779 118.437 16.7989C118.464 17.0129 118.486 17.227 118.495 17.4454C118.495 17.49 118.495 17.5346 118.495 17.5747C116.184 17.3117 113.913 18.3149 112.561 20.2055C111.499 21.6903 111.125 23.6388 111.531 25.4223C111.495 25.4223 111.455 25.4268 111.419 25.4312L110.777 25.4446C110.322 23.447 110.745 21.4227 111.937 19.7551L111.932 19.764Z" fill="white"/>
<path d="M103.004 17.8021C105.307 18.0563 107.564 17.053 108.912 15.167C109.96 13.7045 110.33 11.7961 109.956 10.0348C110.125 10.017 110.29 9.99915 110.464 9.99023C110.545 9.99023 110.625 9.99023 110.71 9.99023C111.142 11.9655 110.719 13.9631 109.536 15.6084C108.01 17.7397 105.65 18.8856 103.049 18.5735C103.027 18.3862 103.009 18.199 103 18.0072C103 17.9359 103 17.8646 103 17.7932L103.004 17.8021Z" fill="white"/>
<path opacity="0.2" d="M117.268 21.9087C117.268 21.9087 105.418 25.4401 103.018 17.2715C103.018 17.2715 102.465 22.9387 108.323 25.0834C108.323 25.0834 113.489 27.0364 117.268 21.9042V21.9087Z" fill="#262C2F"/>
</g>
<defs>
<linearGradient id="paint0_linear_1579_14485" x1="-1.79567e-06" y1="85" x2="80.4321" y2="-95.1825" gradientUnits="userSpaceOnUse">
<stop offset="0.125" stop-color="#006138"/>
<stop offset="1" stop-color="#83D92E"/>
</linearGradient>
<linearGradient id="paint1_linear_1579_14485" x1="208.444" y1="-32.8114" x2="110.82" y2="70.2154" gradientUnits="userSpaceOnUse">
<stop offset="0.24" stop-color="white" stop-opacity="0"/>
<stop offset="1" stop-color="white" stop-opacity="0.7"/>
</linearGradient>
<linearGradient id="paint2_linear_1579_14485" x1="154.768" y1="-0.54909" x2="103.189" y2="-0.549088" gradientUnits="userSpaceOnUse">
<stop offset="0.24" stop-color="white" stop-opacity="0"/>
<stop offset="1" stop-color="white" stop-opacity="0.7"/>
</linearGradient>
<linearGradient id="paint3_linear_1579_14485" x1="113.158" y1="24.876" x2="118.538" y2="10.2318" gradientUnits="userSpaceOnUse">
<stop offset="0.00520833" stop-color="#9FB526"/>
<stop offset="0.546875" stop-color="#B6D331"/>
</linearGradient>
<linearGradient id="paint4_linear_1579_14485" x1="106.921" y1="24.4039" x2="116.73" y2="-4.95086" gradientUnits="userSpaceOnUse">
<stop offset="0.00520833" stop-color="#9FB526"/>
<stop offset="0.546875" stop-color="#B6D331"/>
</linearGradient>
<linearGradient id="paint5_linear_1579_14485" x1="104.788" y1="17.2961" x2="110.085" y2="2.78465" gradientUnits="userSpaceOnUse">
<stop offset="0.00520833" stop-color="#9FB526"/>
<stop offset="0.546875" stop-color="#B6D331"/>
</linearGradient>
<clipPath id="clip0_1579_14485">
<rect width="185" height="85" fill="white"/>
</clipPath>
</defs>
</svg>
