<svg width="185" height="85" viewBox="0 0 185 85" fill="none" xmlns="http://www.w3.org/2000/svg">
<g clip-path="url(#clip0_1579_14977)">
<rect width="185" height="85" fill="url(#paint0_linear_1579_14977)"/>
<path opacity="0.9" d="M111.542 34.1918L152.747 -6.53446C161.469 -15.1552 175.736 -15.1552 184.458 -6.53446C193.181 2.08626 193.181 16.1875 184.458 24.8082L143.253 65.5345C134 73 120.264 74.1552 111.542 65.5345C102.819 56.9137 102.819 42.8125 111.542 34.1918Z" fill="url(#paint1_linear_1579_14977)"/>
<path opacity="0.9" d="M116.074 23.1021L152.567 -13.487C155.516 -16.4438 155.517 -21.2365 152.569 -24.1918C149.622 -27.1471 144.842 -27.1459 141.893 -24.1892L105.4 12.4C102.451 15.3567 102.45 20.1495 105.398 23.1048C108.345 26.0601 113.125 26.0589 116.074 23.1021Z" fill="url(#paint2_linear_1579_14977)"/>
<path d="M151 48.4307C151 61.3725 140.256 71.8615 127 71.8615C113.744 71.8615 103 61.3725 103 48.4307C103 35.4889 113.744 25 127 25C127.949 25 128.89 25.0545 129.808 25.1557C141.74 26.5107 151 36.4156 151 48.4307Z" fill="url(#paint3_linear_1579_14977)"/>
<path opacity="0.1" d="M129.816 25.1558C129.816 25.1558 129.816 25.1558 129.824 25.1558C140.591 27.4685 148.647 36.8361 148.647 48.0414C148.647 60.9832 137.903 71.4722 124.647 71.4722C123.698 71.4722 122.749 71.4177 121.832 71.3164C123.499 71.6746 125.221 71.8615 127 71.8615C140.256 71.8615 151 61.3726 151 48.4308C151 36.4234 141.74 26.5185 129.816 25.1558Z" fill="#262C2F"/>
<path d="M146.781 48.4308C146.781 51.6545 145.975 54.6914 144.547 57.3623C144.547 57.3701 144.507 57.3623 144.507 57.3779C144.252 57.8451 143.997 58.2967 143.71 58.7484C143.702 58.764 143.71 58.7951 143.694 58.8107C140.184 64.1836 134.019 67.75 127 67.75C119.981 67.75 113.823 64.1836 110.306 58.8107C110.29 58.7873 110.306 58.7717 110.29 58.7562C110.011 58.3201 109.74 57.8607 109.492 57.4013C109.492 57.3857 109.461 57.3857 109.453 57.3701C108.025 54.6992 107.219 51.6623 107.219 48.4385C107.219 45.2148 108.025 42.1779 109.453 39.5148C109.58 39.2734 109.835 39.1099 109.971 38.8763C110.115 38.6271 110.154 38.3078 110.314 38.0664C113.68 32.9115 119.494 29.4152 126.146 29.1426C126.434 29.1271 126.713 29.1271 127 29.1271C127.287 29.1271 127.574 29.1271 127.853 29.1426C134.513 29.423 140.32 32.9115 143.686 38.0664C143.71 38.1054 143.694 38.1209 143.718 38.1599C143.981 38.5726 144.244 39.0398 144.483 39.4681C144.491 39.4914 144.531 39.4914 144.547 39.507C145.975 42.1779 146.781 45.2148 146.781 48.4308Z" fill="#F8F8F8"/>
<path d="M140.639 61.1856C140.639 62.7118 139.371 63.95 137.808 63.95C136.946 63.95 136.172 63.5762 135.654 62.9766C135.231 62.4938 134.976 61.8709 134.976 61.1856C134.976 59.6672 136.228 58.4291 137.784 58.4213C137.792 58.4213 137.8 58.4213 137.808 58.4213C139.371 58.4213 140.639 59.6594 140.639 61.1856Z" fill="url(#paint4_linear_1579_14977)"/>
<path opacity="0.1" d="M140.639 61.1856C140.639 62.7118 139.371 63.95 137.807 63.95C136.946 63.95 136.172 63.5762 135.654 62.9844C137.209 62.9766 138.469 61.7385 138.469 60.22C138.469 59.5348 138.214 58.9041 137.791 58.4213H137.807C139.371 58.4213 140.639 59.6594 140.639 61.1856Z" fill="#262C2F"/>
<path d="M116.671 48.3139C116.671 49.8401 115.403 51.0782 113.839 51.0782C112.978 51.0782 112.204 50.7045 111.686 50.1049C111.263 49.6221 111.008 48.9914 111.008 48.3139C111.008 46.7955 112.268 45.5573 113.815 45.5496C113.815 45.5496 113.831 45.5496 113.839 45.5496C115.403 45.5496 116.671 46.7877 116.671 48.3139Z" fill="url(#paint5_linear_1579_14977)"/>
<path d="M121.831 37.4045C121.831 38.9307 120.563 40.1688 119 40.1688C118.131 40.1688 117.349 39.7872 116.83 39.1799C116.416 38.6971 116.168 38.0741 116.168 37.3967C116.168 35.8782 117.421 34.6479 118.968 34.6323C118.968 34.6323 118.976 34.6323 118.984 34.6323C118.984 34.6323 119 34.6323 119.008 34.6323C120.571 34.6323 121.839 35.8704 121.839 37.3967L121.831 37.4045Z" fill="#FFBB00"/>
<path d="M137.871 37.1942C137.871 38.7205 136.603 39.9586 135.04 39.9586C134.179 39.9586 133.405 39.5848 132.886 38.9852C132.464 38.5024 132.208 37.8717 132.208 37.1865C132.208 35.668 133.461 34.4377 135.008 34.4221C135.024 34.4221 135.032 34.4221 135.048 34.4221C136.611 34.4221 137.879 35.6602 137.879 37.1865L137.871 37.1942Z" fill="url(#paint6_linear_1579_14977)"/>
<path d="M122.868 59.6439C122.868 61.1701 121.6 62.4082 120.037 62.4082C119.175 62.4082 118.402 62.0266 117.875 61.4348C117.453 60.9521 117.197 60.3291 117.197 59.6439C117.197 58.1254 118.457 56.8873 120.013 56.8795C120.013 56.8795 120.029 56.8795 120.037 56.8795C121.6 56.8795 122.868 58.1176 122.868 59.6439Z" fill="url(#paint7_linear_1579_14977)"/>
<path opacity="0.1" d="M122.868 59.6439C122.868 61.1701 121.6 62.4082 120.037 62.4082C119.175 62.4082 118.402 62.0344 117.883 61.4426C119.439 61.4348 120.699 60.1967 120.699 58.6783C120.699 57.993 120.444 57.3623 120.021 56.8795H120.037C121.6 56.8795 122.868 58.1176 122.868 59.6439Z" fill="#262C2F"/>
<path d="M129.831 34.6324C129.831 36.1586 128.563 37.3967 127 37.3967C126.139 37.3967 125.357 37.0152 124.838 36.4234C124.416 35.9406 124.168 35.3176 124.168 34.6324C124.168 33.1062 125.437 31.868 127 31.868C128.563 31.868 129.831 33.1062 129.831 34.6324Z" fill="url(#paint8_linear_1579_14977)"/>
<path opacity="0.1" d="M129.832 34.6324C129.832 36.1586 128.564 37.3967 127 37.3967C126.139 37.3967 125.365 37.023 124.847 36.4312C126.402 36.4234 127.662 35.1853 127.662 33.6668C127.662 32.9816 127.407 32.3508 126.984 31.868H127C128.564 31.868 129.832 33.1062 129.832 34.6324Z" fill="#262C2F"/>
<path opacity="0.1" d="M121.832 37.4045C121.832 38.9307 120.564 40.1688 119 40.1688C118.139 40.1688 117.365 39.7951 116.847 39.2033C118.402 39.1955 119.662 37.9574 119.662 36.4389C119.662 35.7537 119.407 35.1229 118.984 34.6401H119C120.564 34.6401 121.832 35.8783 121.832 37.4045Z" fill="#262C2F"/>
<path d="M135.566 45.2225C135.566 46.7487 134.298 47.9868 132.735 47.9868C131.172 47.9868 129.903 46.7487 129.903 45.2225C129.903 43.6962 131.164 42.4659 132.719 42.4581C132.719 42.4581 132.735 42.4581 132.743 42.4581C134.306 42.4581 135.574 43.6962 135.574 45.2225H135.566Z" fill="#0488D2"/>
<path opacity="0.1" d="M135.566 45.2225C135.566 46.7487 134.298 47.9868 132.735 47.9868C131.873 47.9868 131.099 47.613 130.581 47.0212C132.136 47.0135 133.397 45.7753 133.397 44.2569C133.397 43.5717 133.141 42.9409 132.719 42.4581H132.735C134.298 42.4581 135.566 43.6962 135.566 45.2225Z" fill="#262C2F"/>
<path opacity="0.1" d="M137.871 37.1943C137.871 38.7205 136.603 39.9586 135.04 39.9586C134.178 39.9586 133.405 39.5849 132.886 38.993C134.442 38.9853 135.702 37.7471 135.702 36.2287C135.702 35.5435 135.447 34.9127 135.016 34.4299H135.032C136.595 34.4299 137.863 35.668 137.863 37.1943H137.871Z" fill="#262C2F"/>
<path opacity="0.1" d="M116.671 48.3139C116.671 49.8401 115.403 51.0782 113.84 51.0782C112.978 51.0782 112.204 50.7045 111.686 50.1127C113.241 50.1049 114.502 48.8668 114.502 47.3483C114.502 46.6631 114.246 46.0323 113.824 45.5496H113.84C115.403 45.5496 116.671 46.7877 116.671 48.3139Z" fill="#262C2F"/>
<path d="M143.654 49.5987C143.654 51.1249 142.386 52.363 140.823 52.363C139.961 52.363 139.188 51.9893 138.669 51.3897C138.246 50.9069 137.991 50.2761 137.991 49.5987C137.991 48.0802 139.251 46.8421 140.807 46.8344C140.807 46.8344 140.823 46.8344 140.831 46.8344C142.394 46.8344 143.662 48.0725 143.662 49.5987H143.654Z" fill="#FFBB00"/>
<path opacity="0.1" d="M143.654 49.5987C143.654 51.1249 142.386 52.363 140.822 52.363C139.961 52.363 139.187 51.9893 138.669 51.3975C140.224 51.3897 141.485 50.1516 141.485 48.6331C141.485 47.9479 141.229 47.3171 140.807 46.8344H140.822C142.386 46.8344 143.654 48.0725 143.654 49.5987Z" fill="#262C2F"/>
<path d="M128.707 48.4307L144.548 57.3623C144.284 57.8529 143.997 58.3434 143.694 58.8106L127.862 49.8869V54.6836C127.862 55.1119 127.551 55.4856 127.12 55.5401C126.601 55.6024 126.155 55.2053 126.155 54.7147V49.8947L110.322 58.8184C110.019 58.3512 109.732 57.8684 109.469 57.3701L125.309 48.4385L109.469 39.5147C109.732 39.0242 110.019 38.5336 110.322 38.0664L126.155 46.9901V29.1426H126.218C126.745 29.1037 127.271 29.1037 127.798 29.1426H127.862V46.9979L143.694 38.0742C143.997 38.5414 144.284 39.0242 144.548 39.5225L128.707 48.4463V48.4307Z" fill="#DADDE1"/>
<path d="M127 54.5C126.601 54.5 126.21 54.5545 125.836 54.648C124.105 55.0918 122.765 56.5168 122.51 58.3156L119.566 78.834L127 79.4492L134.434 78.834L131.491 58.3156C131.18 56.1275 129.265 54.5078 127 54.5078V54.5Z" fill="#FFBB00"/>
<path d="M131.491 58.3078C131.18 56.1197 129.265 54.5 127 54.5C126.601 54.5 126.211 54.5467 125.844 54.648C127.575 55.0918 128.923 56.5168 129.178 58.3156L132.121 78.834H134.434L131.491 58.3156V58.3078Z" fill="black" fill-opacity="0.1"/>
<path d="M128.915 59.7483C128.915 60.784 128.053 61.625 126.992 61.625C126.259 61.625 125.628 61.2279 125.301 60.6361C125.158 60.3713 125.078 60.0676 125.078 59.7483C125.078 58.7127 125.94 57.8717 127 57.8717C127.048 57.8717 127.088 57.8717 127.136 57.8717C128.133 57.9418 128.923 58.7516 128.923 59.7406L128.915 59.7483Z" fill="#F8F8F8"/>
<path d="M128.915 59.7483C128.915 60.784 128.053 61.6172 127.001 61.6172C126.267 61.6172 125.637 61.2201 125.31 60.6283C125.357 60.6283 125.405 60.6283 125.453 60.6283C126.514 60.6283 127.375 59.7873 127.375 58.7594C127.375 58.4401 127.296 58.1365 127.144 57.8717C128.141 57.9418 128.923 58.7516 128.923 59.7406L128.915 59.7483Z" fill="#DADDE1"/>
<path d="M143.24 81H110.753C110.314 81 109.963 80.6573 109.963 80.2291V77.6049C109.963 77.1766 110.314 76.834 110.753 76.834H143.24C143.678 76.834 144.029 77.1766 144.029 77.6049V80.2291C144.029 80.6573 143.678 81 143.24 81Z" fill="url(#paint9_linear_1579_14977)"/>
<g clip-path="url(#clip1_1579_14977)">
<path d="M118.999 17.3608C118.999 17.3477 118.999 17.3347 118.998 17.3216C118.998 17.292 118.997 17.2624 118.996 17.2328C118.996 17.2184 118.995 17.2041 118.995 17.1897C118.994 17.1593 118.993 17.129 118.991 17.0988C118.991 17.087 118.99 17.075 118.989 17.0631C118.987 17.0215 118.985 16.9799 118.982 16.9385C118.982 16.9322 118.981 16.9259 118.981 16.9196C118.979 16.8843 118.976 16.8489 118.974 16.8138C118.972 16.8003 118.971 16.7868 118.97 16.7733C118.968 16.7446 118.965 16.7159 118.963 16.6872C118.961 16.6734 118.96 16.6593 118.959 16.6454C118.955 16.6142 118.952 16.5829 118.949 16.5517C118.948 16.5417 118.947 16.5315 118.945 16.5215C118.941 16.4806 118.936 16.4397 118.931 16.399C118.929 16.3896 118.928 16.3803 118.927 16.3711C118.923 16.3395 118.918 16.3078 118.914 16.2762C118.912 16.2627 118.91 16.2492 118.908 16.2357C118.904 16.2074 118.899 16.1791 118.895 16.151C118.893 16.1376 118.891 16.1245 118.889 16.1112C118.883 16.0781 118.878 16.045 118.872 16.0119C118.871 16.0046 118.869 15.9972 118.868 15.99C118.861 15.9499 118.853 15.9099 118.846 15.87C118.844 15.859 118.841 15.8483 118.839 15.8374C118.833 15.808 118.828 15.7786 118.821 15.7492C118.819 15.7357 118.816 15.7222 118.813 15.7088C118.807 15.6809 118.801 15.653 118.795 15.625C118.792 15.6126 118.789 15.6002 118.786 15.5879C118.778 15.5507 118.769 15.5137 118.76 15.4767C118.76 15.4743 118.759 15.4719 118.758 15.4695C118.749 15.4301 118.739 15.391 118.729 15.3518C118.726 15.3402 118.723 15.3285 118.72 15.3168C118.712 15.2889 118.705 15.261 118.697 15.2332C118.693 15.2201 118.69 15.207 118.686 15.1938C118.678 15.1657 118.67 15.1378 118.662 15.1098C118.659 15.0987 118.655 15.0876 118.652 15.0765C118.641 15.0379 118.629 14.9994 118.617 14.9609C118.616 14.957 118.615 14.9533 118.614 14.9495C118.603 14.9149 118.592 14.8806 118.58 14.8462C118.576 14.8342 118.572 14.8222 118.568 14.8102C118.559 14.7833 118.55 14.7567 118.541 14.7301C118.537 14.7173 118.533 14.7047 118.528 14.6921C118.518 14.6636 118.508 14.6352 118.498 14.6069C118.494 14.5974 118.491 14.5878 118.488 14.5784C118.474 14.5408 118.46 14.5033 118.446 14.4661C118.443 14.4587 118.44 14.4515 118.437 14.4442C118.426 14.4141 118.414 14.3841 118.402 14.3543C118.397 14.3423 118.392 14.3303 118.388 14.3183C118.377 14.2922 118.366 14.2663 118.356 14.2404C118.351 14.2285 118.346 14.2167 118.341 14.2049C118.328 14.1751 118.316 14.1453 118.303 14.1157C118.3 14.1087 118.297 14.1016 118.294 14.0948C118.278 14.0584 118.261 14.0219 118.245 13.9858C118.241 13.9768 118.237 13.9677 118.233 13.9586C118.22 13.9313 118.207 13.9041 118.195 13.8769C118.189 13.865 118.183 13.8532 118.178 13.8414C118.166 13.816 118.154 13.7907 118.141 13.7655C118.136 13.7544 118.13 13.7435 118.125 13.7324C118.109 13.7 118.093 13.6678 118.076 13.6358C118.075 13.6327 118.073 13.6294 118.071 13.6262C118.053 13.5909 118.035 13.5557 118.016 13.5206C118.011 13.5108 118.006 13.501 118 13.4912C117.987 13.4657 117.973 13.4403 117.959 13.415C117.953 13.4035 117.947 13.392 117.94 13.3807C117.926 13.3556 117.912 13.3306 117.898 13.3056C117.892 13.2958 117.887 13.286 117.881 13.2762C117.862 13.2418 117.842 13.2074 117.821 13.1732C117.821 13.1723 117.82 13.1713 117.82 13.1702C117.8 13.1373 117.78 13.1044 117.76 13.0716C117.754 13.0616 117.748 13.0516 117.742 13.0417C117.727 13.0174 117.712 12.9934 117.697 12.9695C117.69 12.9586 117.683 12.9479 117.676 12.937C117.66 12.9118 117.644 12.8866 117.628 12.8617C117.622 12.8533 117.617 12.845 117.611 12.8369C117.59 12.8038 117.568 12.7706 117.545 12.7379C117.542 12.7329 117.539 12.7281 117.535 12.7231C117.516 12.6954 117.497 12.6678 117.478 12.6404C117.471 12.6304 117.464 12.6204 117.457 12.6104C117.441 12.5873 117.425 12.5644 117.408 12.5416C117.401 12.5316 117.394 12.5215 117.386 12.5115C117.368 12.4859 117.349 12.4604 117.33 12.4351C117.325 12.4288 117.321 12.4223 117.316 12.4158C117.292 12.3842 117.269 12.3526 117.244 12.3213C117.239 12.3145 117.234 12.3078 117.229 12.301C117.21 12.2765 117.191 12.2521 117.171 12.2277C117.164 12.2179 117.156 12.2081 117.148 12.1985C117.13 12.1765 117.113 12.1544 117.095 12.1326C117.087 12.1234 117.08 12.1141 117.072 12.1049C117.05 12.0779 117.028 12.051 117.005 12.0242C117.002 12.0209 117 12.0176 116.997 12.0142C116.971 11.9839 116.945 11.9539 116.919 11.9239C116.913 11.9164 116.906 11.9088 116.899 11.9012C116.88 11.879 116.86 11.8566 116.841 11.8346C116.832 11.8253 116.824 11.8159 116.815 11.8067C116.796 11.7852 116.777 11.7639 116.757 11.7428C116.75 11.7347 116.742 11.7266 116.735 11.7184C116.681 11.6605 116.626 11.6034 116.571 11.5471C116.563 11.5392 116.555 11.5314 116.548 11.5236C116.527 11.5031 116.507 11.4827 116.486 11.4624C116.477 11.4537 116.469 11.4448 116.46 11.4361C116.439 11.4152 116.417 11.3945 116.396 11.374C116.388 11.3671 116.381 11.3601 116.374 11.3533C116.346 11.3259 116.317 11.2985 116.288 11.2715C116.285 11.2687 116.282 11.2659 116.279 11.2632C116.253 11.2391 116.227 11.2154 116.2 11.1918C116.192 11.184 116.183 11.1762 116.174 11.1684C116.153 11.1494 116.132 11.1303 116.11 11.1115C116.101 11.1033 116.092 11.0954 116.083 11.0874C116.059 11.0669 116.035 11.0464 116.011 11.0262C116.005 11.0208 115.999 11.0155 115.993 11.0101C115.962 10.9844 115.932 10.959 115.901 10.9337C115.895 10.9289 115.889 10.9243 115.884 10.9196C115.859 10.8993 115.834 10.8791 115.809 10.8591C115.799 10.8516 115.79 10.844 115.78 10.8366C115.758 10.8188 115.735 10.8012 115.713 10.7837C115.704 10.7765 115.694 10.7691 115.685 10.7618C115.658 10.7411 115.631 10.7206 115.603 10.7001C115.599 10.6967 115.595 10.6934 115.59 10.6901C115.558 10.6662 115.526 10.6427 115.494 10.6192C115.486 10.6137 115.479 10.6083 115.471 10.6028C115.447 10.585 115.422 10.5674 115.397 10.5498C115.387 10.5426 115.377 10.5356 115.367 10.5286C115.343 10.5121 115.319 10.4956 115.295 10.4794C115.286 10.4731 115.277 10.4666 115.267 10.4603C115.235 10.4383 115.202 10.4163 115.169 10.3946C113.829 9.51279 112.224 9 110.5 9C105.806 9 102 12.7999 102 17.4873C102 20.5798 103.656 23.2858 106.132 24.7694C106.137 24.7726 106.142 24.7757 106.148 24.7789C106.226 24.8253 106.304 24.8706 106.384 24.9147C106.389 24.9174 106.394 24.92 106.399 24.9228C106.435 24.943 106.472 24.9629 106.509 24.9826C106.513 24.9846 106.516 24.9864 106.52 24.9885C106.561 25.0103 106.602 25.0316 106.644 25.0529C106.644 25.0534 106.645 25.0538 106.646 25.0543C106.685 25.0741 106.724 25.0936 106.764 25.1128C106.77 25.1157 106.776 25.1189 106.782 25.1219C106.863 25.1614 106.945 25.1997 107.028 25.2367C107.034 25.2395 107.041 25.2423 107.047 25.2449C107.084 25.2615 107.121 25.2778 107.159 25.2939C107.164 25.2959 107.168 25.298 107.173 25.2998C107.215 25.3178 107.258 25.3355 107.301 25.3529C107.303 25.354 107.306 25.3551 107.309 25.3561C107.348 25.3718 107.386 25.3871 107.426 25.4023C107.433 25.4053 107.441 25.4082 107.448 25.411C107.532 25.4432 107.617 25.4743 107.702 25.5039C107.71 25.5066 107.718 25.5092 107.725 25.512C107.763 25.5248 107.8 25.5373 107.837 25.5497C107.843 25.5518 107.85 25.5538 107.856 25.5558C107.899 25.5699 107.942 25.5838 107.986 25.5971C107.99 25.5986 107.995 25.6001 108 25.6015C108.038 25.6132 108.077 25.6247 108.115 25.6359C108.124 25.6385 108.133 25.6413 108.142 25.6439C108.228 25.6687 108.315 25.6922 108.402 25.7142C108.412 25.7166 108.421 25.719 108.431 25.7214C108.467 25.7307 108.504 25.7395 108.541 25.7482C108.549 25.7501 108.557 25.7519 108.565 25.7538C108.608 25.764 108.652 25.7738 108.696 25.7834C108.703 25.7849 108.71 25.7863 108.717 25.7878C108.755 25.7958 108.792 25.8034 108.829 25.8109C108.84 25.8132 108.851 25.8152 108.862 25.8174C108.95 25.8346 109.038 25.8503 109.127 25.8648C109.138 25.8666 109.149 25.8683 109.16 25.8701C109.197 25.8759 109.233 25.8814 109.269 25.8866C109.279 25.8879 109.288 25.8894 109.297 25.8907C109.341 25.897 109.386 25.9029 109.43 25.9084C109.439 25.9095 109.448 25.9105 109.457 25.9116C109.493 25.916 109.53 25.9203 109.567 25.9243C109.579 25.9256 109.591 25.9269 109.603 25.9282C109.647 25.9328 109.692 25.9373 109.737 25.9414C109.737 25.9414 109.737 25.9414 109.738 25.9414C109.783 25.9454 109.828 25.9489 109.873 25.9521C109.885 25.953 109.898 25.9538 109.91 25.9547C109.946 25.9571 109.983 25.9595 110.019 25.9615C110.029 25.9621 110.039 25.9626 110.049 25.9632C110.094 25.9656 110.139 25.9676 110.185 25.9691C110.195 25.9695 110.205 25.9697 110.215 25.97C110.251 25.9713 110.288 25.9723 110.325 25.973C110.338 25.9732 110.35 25.9735 110.363 25.9737C110.409 25.9745 110.454 25.975 110.5 25.975C110.684 25.975 110.866 25.9693 111.046 25.9578C111.082 25.9556 111.118 25.953 111.154 25.9502C111.442 25.9284 111.726 25.8922 112.005 25.8424C112.319 25.7863 112.627 25.7133 112.928 25.6237C112.995 25.6039 113.061 25.5832 113.128 25.5618C113.194 25.5403 113.26 25.5181 113.325 25.495C113.391 25.4719 113.456 25.4482 113.52 25.4236C113.553 25.4114 113.585 25.3988 113.617 25.3862C114.646 24.9809 115.578 24.3808 116.365 23.6312C116.389 23.6077 116.414 23.5842 116.438 23.5605C116.657 23.3471 116.864 23.1221 117.059 22.8863C117.081 22.86 117.103 22.8337 117.124 22.8073C117.166 22.7544 117.208 22.7009 117.25 22.6469C117.271 22.6199 117.291 22.5929 117.312 22.5655C117.352 22.5111 117.393 22.456 117.432 22.4007C117.472 22.3452 117.51 22.2893 117.549 22.2329C117.701 22.0072 117.844 21.7735 117.974 21.5331C117.991 21.5029 118.007 21.4727 118.023 21.4426C118.055 21.3821 118.086 21.3211 118.117 21.2596C118.178 21.1368 118.236 21.0123 118.292 20.8861C118.374 20.6969 118.451 20.5041 118.52 20.3081C118.543 20.2428 118.565 20.1769 118.587 20.1109C118.619 20.0117 118.649 19.9118 118.678 19.8112C118.688 19.7777 118.697 19.744 118.706 19.7102C118.724 19.6426 118.742 19.5749 118.758 19.5069C118.808 19.3024 118.851 19.0953 118.886 18.8853C118.897 18.8154 118.908 18.7451 118.918 18.6746C118.972 18.2867 119 17.8904 119 17.4877C119 17.4455 119 17.4033 118.999 17.3612L118.999 17.3608Z" fill="#BED62F"/>
<path d="M110.5 22.7103C113.389 22.7103 115.731 20.3719 115.731 17.4873C115.731 14.6027 113.389 12.2643 110.5 12.2643C107.611 12.2643 105.269 14.6027 105.269 17.4873C105.269 20.3719 107.611 22.7103 110.5 22.7103Z" fill="white"/>
<path opacity="0.1" d="M119 17.5126C119 14.5471 117.477 11.9369 115.169 10.4192C115.165 10.4168 115.161 10.4142 115.158 10.4118C115.142 10.4018 115.127 10.3918 115.112 10.3818C116.708 12.8609 116.883 15.9874 115.637 18.6081C115.435 19.5644 114.963 20.4751 114.219 21.2176C113.476 21.9602 112.564 22.431 111.606 22.633C108.981 23.8776 105.85 23.7028 103.367 22.1085C103.69 22.6104 104.07 23.0867 104.51 23.5259C104.976 23.9908 105.482 24.3906 106.017 24.725C107.319 25.533 108.855 26 110.5 26C115.194 26 119 22.2001 119 17.5126Z" fill="black"/>
<path d="M111.251 15.4696C111.171 15.5333 111.104 15.5882 111.05 15.6345C110.996 15.6809 110.946 15.7264 110.901 15.7715L109.126 17.5437C109.012 17.6577 109.096 17.8553 109.378 18.1365L108.959 18.5543L107.062 16.6597L107.48 16.2418C107.809 16.5707 108.031 16.6786 108.145 16.5646L109.417 15.2945L108.887 14.765L109.27 14.3512C109.65 14.7147 110.064 14.8129 110.513 14.6457L111.251 15.4695L111.251 15.4696Z" fill="url(#paint10_linear_1579_14977)"/>
<path d="M110.155 19.8759C109.979 19.7007 109.849 19.5242 109.764 19.3465C109.679 19.1687 109.63 18.9981 109.619 18.835C109.607 18.6718 109.627 18.5225 109.68 18.3873C109.733 18.2519 109.806 18.1379 109.899 18.0451C110.014 17.9309 110.137 17.8678 110.268 17.856C110.4 17.8442 110.525 17.8978 110.645 18.0171C110.764 18.1364 110.813 18.2554 110.806 18.3893C110.799 18.5234 110.744 18.642 110.641 18.7456C110.572 18.8146 110.487 18.8523 110.388 18.8592C110.288 18.8659 110.202 18.8387 110.13 18.7776C110.125 18.8202 110.129 18.8679 110.143 18.921C110.156 18.9741 110.177 19.027 110.206 19.0803C110.235 19.1333 110.269 19.1851 110.306 19.2355C110.343 19.286 110.383 19.3322 110.426 19.3748C110.545 19.4943 110.671 19.554 110.804 19.554C110.937 19.554 111.067 19.4904 111.195 19.3629C111.301 19.2567 111.382 19.1592 111.436 19.0704C111.49 18.9815 111.52 18.8953 111.524 18.8116C111.528 18.728 111.51 18.6426 111.47 18.5549C111.43 18.4674 111.37 18.373 111.29 18.2722L111.609 18.0016C111.745 18.1211 111.871 18.1834 111.988 18.1886C112.105 18.194 112.235 18.125 112.379 17.9816C112.448 17.9126 112.496 17.8482 112.524 17.7885C112.552 17.7287 112.563 17.6717 112.556 17.6174C112.549 17.563 112.529 17.5099 112.496 17.4581C112.463 17.4063 112.419 17.3526 112.363 17.2968C112.262 17.1959 112.166 17.1282 112.076 17.0938C111.985 17.0592 111.903 17.0341 111.829 17.0182C111.9 17.1005 111.939 17.1987 111.944 17.3127C111.95 17.4268 111.91 17.5263 111.825 17.6112C111.726 17.7095 111.612 17.7609 111.481 17.7659C111.351 17.7709 111.229 17.7172 111.117 17.6051C111.005 17.493 110.954 17.3745 110.964 17.2494C110.974 17.1244 111.035 17.0061 111.147 16.8946C111.237 16.8043 111.349 16.7314 111.481 16.6756C111.614 16.6199 111.762 16.5973 111.924 16.6079C112.086 16.6184 112.261 16.6682 112.448 16.7572C112.635 16.8459 112.829 16.9901 113.028 17.1891C113.166 17.3271 113.286 17.4703 113.387 17.619C113.488 17.7676 113.56 17.9148 113.602 18.0608C113.645 18.2067 113.653 18.3488 113.626 18.4866C113.6 18.6246 113.528 18.7521 113.411 18.8688C113.235 19.044 113.057 19.1348 112.875 19.1415C112.693 19.1481 112.486 19.0758 112.255 18.9247C112.462 19.174 112.562 19.4062 112.554 19.6212C112.546 19.8361 112.455 20.0298 112.283 20.2022C112.126 20.3589 111.956 20.4595 111.772 20.5047C111.589 20.5498 111.403 20.5511 111.214 20.5086C111.026 20.4662 110.84 20.3885 110.658 20.2757C110.476 20.1628 110.308 20.0294 110.154 19.8757L110.155 19.8759Z" fill="url(#paint11_linear_1579_14977)"/>
</g>
</g>
<defs>
<linearGradient id="paint0_linear_1579_14977" x1="-1.79567e-06" y1="85" x2="80.4321" y2="-95.1825" gradientUnits="userSpaceOnUse">
<stop offset="0.125" stop-color="#006138"/>
<stop offset="1" stop-color="#83D92E"/>
</linearGradient>
<linearGradient id="paint1_linear_1579_14977" x1="208.444" y1="-32.8114" x2="110.82" y2="70.2154" gradientUnits="userSpaceOnUse">
<stop offset="0.24" stop-color="white" stop-opacity="0"/>
<stop offset="1" stop-color="white" stop-opacity="0.7"/>
</linearGradient>
<linearGradient id="paint2_linear_1579_14977" x1="154.768" y1="-0.54909" x2="103.189" y2="-0.549088" gradientUnits="userSpaceOnUse">
<stop offset="0.24" stop-color="white" stop-opacity="0"/>
<stop offset="1" stop-color="white" stop-opacity="0.7"/>
</linearGradient>
<linearGradient id="paint3_linear_1579_14977" x1="115.067" y1="68.5897" x2="144.01" y2="-20.7504" gradientUnits="userSpaceOnUse">
<stop stop-color="#00643A"/>
<stop offset="1" stop-color="#003C3A"/>
</linearGradient>
<linearGradient id="paint4_linear_1579_14977" x1="137.808" y1="58.4213" x2="137.808" y2="63.95" gradientUnits="userSpaceOnUse">
<stop stop-color="#D01C46"/>
<stop offset="1" stop-color="#E63848"/>
</linearGradient>
<linearGradient id="paint5_linear_1579_14977" x1="113.839" y1="45.5496" x2="113.839" y2="51.0782" gradientUnits="userSpaceOnUse">
<stop stop-color="#D01C46"/>
<stop offset="1" stop-color="#E63848"/>
</linearGradient>
<linearGradient id="paint6_linear_1579_14977" x1="135.044" y1="34.4221" x2="135.044" y2="39.9586" gradientUnits="userSpaceOnUse">
<stop stop-color="#D01C46"/>
<stop offset="1" stop-color="#E63848"/>
</linearGradient>
<linearGradient id="paint7_linear_1579_14977" x1="118.623" y1="62.0222" x2="122.034" y2="51.4791" gradientUnits="userSpaceOnUse">
<stop stop-color="#00643A"/>
<stop offset="1" stop-color="#003C3A"/>
</linearGradient>
<linearGradient id="paint8_linear_1579_14977" x1="125.592" y1="37.0107" x2="129.007" y2="26.4704" gradientUnits="userSpaceOnUse">
<stop stop-color="#00643A"/>
<stop offset="1" stop-color="#003C3A"/>
</linearGradient>
<linearGradient id="paint9_linear_1579_14977" x1="118.527" y1="80.7091" x2="118.883" y2="71.9476" gradientUnits="userSpaceOnUse">
<stop stop-color="#00643A"/>
<stop offset="1" stop-color="#003C3A"/>
</linearGradient>
<linearGradient id="paint10_linear_1579_14977" x1="108.115" y1="18.2609" x2="110.768" y2="10.2901" gradientUnits="userSpaceOnUse">
<stop stop-color="#00643A"/>
<stop offset="1" stop-color="#003C3A"/>
</linearGradient>
<linearGradient id="paint11_linear_1579_14977" x1="110.627" y1="20.2649" x2="113.059" y2="12.7657" gradientUnits="userSpaceOnUse">
<stop stop-color="#00643A"/>
<stop offset="1" stop-color="#003C3A"/>
</linearGradient>
<clipPath id="clip0_1579_14977">
<rect width="185" height="85" fill="white"/>
</clipPath>
<clipPath id="clip1_1579_14977">
<rect width="17" height="17" fill="white" transform="translate(102 9)"/>
</clipPath>
</defs>
</svg>
